<?xml version="1.0" encoding="utf-8"?>
<!-- Generator: Adobe Illustrator 17.0.0, SVG Export Plug-In . SVG Version: 6.00 Build 0)  -->
<!DOCTYPE svg PUBLIC "-//W3C//DTD SVG 1.1//EN" "http://www.w3.org/Graphics/SVG/1.1/DTD/svg11.dtd" [
	<!ENTITY ns_flows "http://ns.adobe.com/Flows/1.0/">
	<!ENTITY ns_extend "http://ns.adobe.com/Extensibility/1.0/">
	<!ENTITY ns_ai "http://ns.adobe.com/AdobeIllustrator/10.0/">
	<!ENTITY ns_graphs "http://ns.adobe.com/Graphs/1.0/">
]>
<svg version="1.1" id="Layer_1" xmlns:x="&ns_extend;" xmlns:i="&ns_ai;" xmlns:graph="&ns_graphs;"
	 xmlns="http://www.w3.org/2000/svg" xmlns:xlink="http://www.w3.org/1999/xlink" xmlns:a="http://ns.adobe.com/AdobeSVGViewerExtensions/3.0/"
	 x="0px" y="0px" width="196px" height="196px" viewBox="0 0 196 196" enable-background="new 0 0 196 196" xml:space="preserve">
<circle fill="#FFFFFF" cx="98" cy="98" r="98"/>
<g>
	<path d="M108.7,138.2c-0.7,1.5-1.6,3.3-2.7,5.3c-1.1,2.1-2.3,4.2-3.7,6.4c-1.4,2.2-2.9,4.4-4.6,6.6c-1.7,2.2-3.5,4.2-5.5,5.9
		c-2,1.7-4.1,3.1-6.4,4.2s-4.7,1.6-7.2,1.6c-3.9,0-7.3-1.2-10.1-3.6c-2.8-2.4-5.2-5.6-7.2-9.5c-2-3.9-3.5-8.4-4.8-13.4
		c-1.2-5-2.1-10.1-2.8-15.3c-0.7-5.2-1.1-10.2-1.3-15.1c-0.2-4.9-0.3-9.2-0.3-13c0-5.5,0.2-11.2,0.5-17.1c0.4-5.9,0.9-11.6,1.7-17.3
		c0.8-5.6,1.8-10.9,3-16c1.2-5,2.6-9.4,4.3-13.2c1.7-3.8,3.6-6.8,5.7-9c2.2-2.2,4.6-3.3,7.4-3.3c2.2,0,4.1,0.5,5.8,1.5
		c1.7,1,3.2,2.7,4.4,5c1.2,2.3,2.1,5.3,2.7,8.9c0.7,3.7,1,8.1,1,13.4c0,6.5-0.7,13.3-2.1,20.2c-1.4,7-3.2,14-5.6,21
		c-2.4,7.1-5.1,14.1-8.3,21.1c-3.2,7-6.6,13.9-10.3,20.5c1.6,8.3,3.8,14.8,6.6,19.6c2.7,4.7,6,7.1,9.9,7.1c2.6,0,5.1-1,7.5-3.1
		c2.4-2.1,4.6-4.5,6.7-7.3c2-2.8,3.8-5.7,5.3-8.6c1.5-2.9,2.7-5.2,3.6-7c0.3-0.7,0.8-1.2,1.4-1.5c0.6-0.4,1.2-0.5,2-0.5
		c1.1,0,2,0.4,2.7,1.2c0.7,0.8,1,1.7,1,2.6C109.1,137.1,109,137.6,108.7,138.2z M59.6,98.8c0,4.2,0.1,8.2,0.3,12.1
		c0.2,3.9,0.5,7.5,0.8,11.1c2.7-5.3,5.4-10.9,7.8-16.9c2.5-6,4.7-12,6.6-18.1c1.9-6.1,3.4-12.2,4.6-18.2c1.1-6,1.7-11.8,1.7-17.3
		c0-7.7-0.6-13.2-1.9-16.6c-1.2-3.3-2.9-5-5-5c-1.4,0-2.7,0.9-4,2.8c-1.3,1.9-2.5,4.5-3.6,7.7c-1.1,3.3-2.1,7.1-3,11.6
		c-0.9,4.4-1.7,9.2-2.3,14.3c-0.6,5.1-1.1,10.4-1.5,16C59.8,87.8,59.6,93.3,59.6,98.8z"/>
	<path d="M157.8,138.2c-0.7,1.5-1.6,3.3-2.7,5.3c-1.1,2.1-2.3,4.2-3.7,6.4c-1.4,2.2-2.9,4.4-4.6,6.6c-1.7,2.2-3.5,4.2-5.5,5.9
		c-2,1.7-4.1,3.1-6.4,4.2s-4.7,1.6-7.2,1.6c-3.9,0-7.3-1.2-10.1-3.6c-2.8-2.4-5.2-5.6-7.2-9.5s-3.5-8.4-4.8-13.4
		c-1.2-5-2.1-10.1-2.8-15.3c-0.7-5.2-1.1-10.2-1.3-15.1c-0.2-4.9-0.3-9.2-0.3-13c0-5.5,0.2-11.2,0.5-17.1c0.4-5.9,0.9-11.6,1.7-17.3
		c0.8-5.6,1.8-10.9,3-16c1.2-5,2.6-9.4,4.3-13.2c1.7-3.8,3.6-6.8,5.7-9c2.2-2.2,4.6-3.3,7.4-3.3c2.2,0,4.1,0.5,5.8,1.5
		c1.7,1,3.2,2.7,4.4,5c1.2,2.3,2.1,5.3,2.7,8.9c0.7,3.7,1,8.1,1,13.4c0,6.5-0.7,13.3-2.1,20.2c-1.4,7-3.2,14-5.6,21
		c-2.4,7.1-5.1,14.1-8.3,21.1c-3.2,7-6.6,13.9-10.3,20.5c1.6,8.3,3.8,14.8,6.6,19.6c2.7,4.7,6,7.1,9.9,7.1c2.6,0,5.1-1,7.5-3.1
		c2.4-2.1,4.6-4.5,6.7-7.3c2-2.8,3.8-5.7,5.3-8.6c1.5-2.9,2.7-5.2,3.6-7c0.3-0.7,0.8-1.2,1.4-1.5c0.6-0.4,1.2-0.5,2-0.5
		c1.1,0,2,0.4,2.7,1.2c0.7,0.8,1,1.7,1,2.6C158.2,137.1,158.1,137.6,157.8,138.2z M108.7,98.8c0,4.2,0.1,8.2,0.3,12.1
		c0.2,3.9,0.5,7.5,0.8,11.1c2.7-5.3,5.4-10.9,7.8-16.9c2.5-6,4.7-12,6.6-18.1c1.9-6.1,3.4-12.2,4.6-18.2c1.1-6,1.7-11.8,1.7-17.3
		c0-7.7-0.6-13.2-1.9-16.6c-1.2-3.3-2.9-5-5-5c-1.4,0-2.7,0.9-4,2.8c-1.3,1.9-2.5,4.5-3.6,7.7c-1.1,3.3-2.1,7.1-3,11.6
		c-0.9,4.4-1.7,9.2-2.3,14.3c-0.6,5.1-1.1,10.4-1.5,16C108.9,87.8,108.7,93.3,108.7,98.8z"/>
</g>
</svg>
