<?xml version="1.0" encoding="utf-8"?>
<!-- Generator: Adobe Illustrator 17.0.0, SVG Export Plug-In . SVG Version: 6.00 Build 0)  -->
<!DOCTYPE svg PUBLIC "-//W3C//DTD SVG 1.1//EN" "http://www.w3.org/Graphics/SVG/1.1/DTD/svg11.dtd" [
	<!ENTITY ns_flows "http://ns.adobe.com/Flows/1.0/">
	<!ENTITY ns_extend "http://ns.adobe.com/Extensibility/1.0/">
	<!ENTITY ns_ai "http://ns.adobe.com/AdobeIllustrator/10.0/">
	<!ENTITY ns_graphs "http://ns.adobe.com/Graphs/1.0/">
]>
<svg version="1.1" id="Layer_1" xmlns:x="&ns_extend;" xmlns:i="&ns_ai;" xmlns:graph="&ns_graphs;"
	 xmlns="http://www.w3.org/2000/svg" xmlns:xlink="http://www.w3.org/1999/xlink" xmlns:a="http://ns.adobe.com/AdobeSVGViewerExtensions/3.0/"
	 x="0px" y="0px" width="143.2px" height="146.9px" viewBox="0 0 143.2 146.9" enable-background="new 0 0 143.2 146.9"
	 xml:space="preserve">
<g>
	<g>
		<path fill="#1A1A1A" d="M37.9,7.8c1.9-1.3,4.5-1.4,6.1-3.5c0.5-0.7,2.4,0,3.7-0.6C48.8,3.2,50,3,51.2,2.6c1.6-0.4,3.3-0.9,4.9,0.2
			c-0.2,1-1.3,1-1.9,1.6c-0.6,0.2-1.1,0.5-0.5,1.2c-0.3,0.9-1.1,1-1.8,1c-2.1,0.3-3.6,1.4-5.5,2.6c1.6,0.9,2.7,1.9,4.3,0.4
			C51.5,8.9,53,9,54.2,9c1.4,0.2,2.8,0,4.2,0.2c0.3,0,0.6,0.1,0.9,0.1c0.6,0.2,1.2,0.3,1.8,0.3c1.6,0.3,3.3,0.5,4.9,0.7
			c4.2,0.1,8.1,1.5,12.1,2.5c0.8,0.2,1.5,0.4,2.2,0.6c0.2,0,0.4,0.1,0.6,0.2c1.6,0.3,2.7,1.4,4.2,1.9c3.7,1.5,7.4,3.2,10.8,5.3
			c0.6,0.3,1.5,0.7,1,1.6c-0.3,0.7-1.2,0.4-1.8,0.3c-2.6-0.7-5.2-0.9-7.9-1c-1.1,0-2.2-0.3-3.2-0.7c-1.8-0.6-3.7-1-5.6-1.1
			c-1.7-0.1,0.3,0.7-0.2,0.9c-0.5,1.2-1.5,1-2.5,1.1c-1.1,0-2.2,0-3.2,0c-5.5-0.2-10.9,0-16.3,1.1c-1.2,0.3-2.4,0.6-3.4,1.3
			c-0.7,0.5-1.5,0.8-2.3,1c-4.4,0.8-8,3-11.3,5.8c-0.7,0.6-1.4,1.3-2.3,1.7c-1.5,0.7-2.7,1.4-3.3,3.1c-0.2,0.7-0.9,1.1-1.5,1.5
			c-2.8,2-4.5,4.7-5.7,7.9c-1.3,3.2-3.1,6.2-4.5,9.5c-1,2.5-2,4.9-2.1,7.6c0,1.4-0.5,2.8-1.2,4.1c-1.5,3.2-1,6.6-0.5,9.9
			c0,0.3,0.6,0.3,0.7,0.6c0.2,0.4-0.3,1,0.1,1.3c1.5,1.5,1.2,3.4,0.9,5c-0.5,3.3,1.1,6,2,8.9c0.6,1.3-0.3,2.7,0.1,4
			c-0.1,0.2,0.4-0.1,0.1,0c-0.1,0-0.1,0-0.1-0.2c0-0.4,0-0.9,0.5-1c0.5-0.1,0.6,0.3,0.8,0.7c0.3,0.6,0.5,1.3,0.7,2
			c0.1,0.6,0,1.1-0.3,1.6c-0.4,2.1,0.8,3.4,1.9,4.9c0.2,0.6,0,1.2,0.3,1.8c0.1,1.4,1.1,2.4,1.9,3.5c0.4,0.6,0.8,1.1,1,1.8
			c0.4,1.2,1,2.2,2.4,2.4c1,0.4,2,0.6,2.8,1.4c1.7,2.1,2.7,4.8,3.4,7.3c0.6,2.1,1.2,3.3,3.3,3.7c0.4,0.1,0.6,0.6,0.8,1.1
			c0.8,1.8,4.7,4.1,6.7,3.9c0.1,0,0.3,0,0.4-0.1c2.1-2.7,4.3,0.2,6.4,0.1c0.5,0,0.8,0.6,0.6,1c-0.5,1.4,0.3,1.4,1.3,1.5
			c0.8,0,1.5,0.4,2,1c0.4,0.5,0.7,1,0.4,1.6c-0.2,0.6-0.8,0.9-1.4,0.9c-1.6-0.2-2.5,0.6-3.4,1.7c-1.1,1.3-2.8,1-4,0.3
			c-3.5-1.8-7.5-2.8-10.4-5.8c-0.9-1-2.4-1.3-3.8-1.2c-2.1,0.2-3-0.5-2.8-2.5c0.1-1.5-0.2-2.2-1.8-2.3c-1,0-1.6-0.7-2.1-1.6
			c-0.5-0.9-0.9-1.1-1.7-0.1c-1.7,2.2-2.9,2.1-3.9-0.5c-1-2.6-3.3-4.1-5.4-5.8c1.1,2,2.8,3.3,4,5c0.2,0.4,1.1,0.8,0.1,1.4
			c-3.4-3.2-6.2-6.9-8.5-11c-2-3.5-4.4-6.8-6-10.6c-2.6-6.1-5-12.2-5.5-18.9C3,84.2,2,83.4,2,82.5c-0.3-0.8-0.8-1.6-0.2-2.4
			c0.2-0.4,1.4,0.9,1-0.5c-0.4-1.3-0.5-2.5,0.3-3.7c0.4-1.1,0.2-2.3,0.3-3.4c0.1-2.7,0.5-5.5,0.9-8.2c0.3-2.1,0.9-4,1.6-5.9
			c0.6-0.6-0.1-1.5,0.4-2.1c0.7-1.9,1.2-3.8,2.3-5.5c1.2-4.9,4.5-8.7,6.9-12.9c0.4-0.8,0.9-1.6,1.8-2c2.6-3.3,5-6.7,7.8-9.9
			c3.4-3.9,7.3-7.2,11.3-10.4c0.2-0.1,0.2-0.3,0.3-0.5c0.3-0.5,0.5-3.2,0.4-3.8C36.6,9.9,37,8.8,37.9,7.8z"/>
		<path fill="#1A1A1A" d="M22.6,125.7c-0.2-1.3-1.2-2.1-2.1-3c-1-1-1.6-2.1-2.6-3.1c-0.6-0.7-0.2-1.1,0.3-1.6c1.3,2.1,3.6,3,5.1,4.9
			c0.8,1,0.7,2.1,1.5,3c0.9,1.1,1.5,1.1,2.2-0.1c0.2-0.5,0.5-0.9,0.8-1.3c0.7-0.9,1.4-0.7,1.7,0.2c0.5,1.4,1.3,2.2,2.9,2
			c1.4-0.1,1.8,0.8,1.4,1.9c-0.2,0.8-0.2,1.5,0.1,2.2c0.3,0.7,0.7,1,1.5,0.8c2.3-0.6,3.8,0.1,5.5,2.1c0.9,1.1,2.5,1.3,3.7,2
			c1.8,1.1,3.9,2,5.9,2.7c1.5,0.5,3.1,1.1,4.1-1.2c0.3-0.7,1.3-1.4,2.5-0.9c0.6,0.2,1.4,0.3,1.7-0.5c0.2-0.7-0.3-1.4-1-1.7
			c-0.4-0.2-1-0.2-1.5-0.4c-0.7-0.3-3.6,1.1-1.4-1.7c0.3-0.4-0.1-1.2-0.8-0.9c-1,0.4-1.6-0.1-2.2-0.6c-1.1-0.9-2.1-0.9-2.9,0.4
			c-0.3,0.5-0.5,0.9-1.2,0.6c-1.7-0.7-3.5-1.3-5.2-2c-0.5-0.2-1.3-0.4-1.3-1c-0.1-2.5-2.3-2.5-3.7-3.2c-0.4-0.2-1.1-0.3-0.8-0.8
			c1-1.9-0.7-3.2-1.1-4.7c-0.4-1.7-1.6-3-2.1-4.7c-0.9-2.5-2.6-4.7-3.9-7c-0.4-0.7-1.1-1.4-0.5-2.3c0.4-0.2,0.8-0.1,1.1,0.1
			c2.4,2.2,3.8,5.2,5.9,7.7c5.2,6.1,11.5,10.6,19,13.6c3.9,1.6,7.9,1.5,11.8,2.2c4.9,0.9,9.7-0.1,14.6-0.6c0.2,0,0.4,0,0.6-0.1
			c4-1.5,8.1-2.7,11.7-5c5.3-3.4,10.6-6.8,15.4-11c1-0.9,1.8-1.9,3-2.5c1.1-0.6,1.9-1.5,2.4-2.7c0.5-0.8,0.7-1.9,1.7-2.3
			c1.3-1.2,2.7-2.2,2.8-4.2c0-0.6,0.3-1.1,0.9-1.3c1.3-0.3,1.6,0.4,1.4,1.5c-0.1,0.8-0.4,1.5-0.9,2.1c-0.7,0.8-1,1.8-1.2,2.9
			c-0.3,1.3,0.4,2,1.7,2.1c1.5,0.1,2.1,0.9,1.6,2.3c-0.4,1.1-1.3,1.7-2.5,2c-1.1,0.2-1.5-0.4-1.8-1.4c-0.1-0.3-0.2-0.6-0.7-0.5
			c-0.7,0.2-1.4,0.5-1.7,1.2c-0.3,0.5-0.1,1,0.3,1.2c2.2,1.1,3.1,3.8,5.5,4.7c0.9,0.4,1.1,1.3,0.1,1.9c-0.2,0.1-0.6,0.2-0.6,0.4
			c-0.1,1.9-1.4,2.7-3.2,3.5c1.5,0.7,2.2,0,2.9-0.6c0.6-0.5,1.1-1,1.9-0.6c0.8,0.4,1.5,0.9,1.1,2c-6.4,5.9-13.7,10.6-21.9,13.5
			c-6.3,2.2-12.4,5-18.8,6.7c-1.2,0.3-2.4,0.5-3.5,1c-1,0.4-1.2-0.9-2.1-0.7c-1.6,0.2-3,0.7-4.5,1c-6.3,1.3-12.6,0.9-18.7-0.6
			c-3.7-0.9-7.5-1.2-10.9-3.1c-6.5-3.6-12.6-7.6-17.7-13C24.8,128.1,23.3,127.2,22.6,125.7z"/>
		<path fill="#1A1A1A" d="M124,124.5c-0.7-1.9-1.2-2-2.7-0.7c-0.3,0.3-0.8,0.4-1.2,0.5c-0.8,0.3-1.8,1.2-2.2-0.3
			c-0.4-1.2,0.6-1.4,1.5-1.5c0.6-0.1,1.2-0.4,1.2-0.8c-0.1-1.4,0-2.4,1.7-2.7c0.4-0.1-0.1-0.7-0.5-1c-1.7-0.9-3.4-1.7-4-3.7
			c-0.1-0.2-0.4-0.4-0.6-0.4c-1.2-0.1-1.8-0.9-1.8-1.9c0-1.1,1.2-1.2,1.9-1.7c0.9-0.5,1.9-1,1.8,0.8c0,0.9,0.5,1.2,1.4,0.9
			c1.3-0.5,2.2-1.1,2-2.7c-0.2-1.1-0.9-0.9-1.6-0.5c-0.4,0.2-1,0.5-1.2-0.1c-0.3-0.9-1.2-1.6-0.9-2.8c0.5-1.8,1.9-3.2,2.3-5
			c0.3-1.2-0.5-0.8-0.9-1.1c-0.5-0.6-0.1-1.1,0-1.6c1.6-4.6,3-9.2,2.9-14.2c0-1.1,0.6-1.7,1.5-2c1.4-0.6,2.1-1.7,2.4-3.1
			c0.6-3,1.3-5.9,1.2-9c0-1.4,0-2.8,0.5-4.2c0.4-0.9,0.3-1.8-0.1-2.7c-1.3-2.7-1.2-5.6-1.5-8.5c0.3-0.8,0.8-0.8,1.3-0.2
			c0.7,0.8,1.4,0.7,2.3,0.5c2.5-0.6,2.7,0,4.1,1.9c1.5,1.9,1.4,3.7,1.2,5.8c-0.2,2-0.2,2.3-2.4,2.9c1.1-0.2,2.2-0.2,3,0.8
			c1.2,3.7,0.8,7.5,0.9,11.3c0,2.6,0.2,5-1.3,7.4c-0.5,0.8,0.3,1.9,0,2.9c-0.4,1.5-0.7,3-1.8,4.2c-1.1,1.1-1.3,2.7-1.8,4.1
			c-0.3,0.8,0,1.4,1.1,1.3c1.4-0.2,1.6,0.5,1.1,1.6c-0.1,0.3-0.4,0.7-0.2,0.9c1.3,1.8,0.5,3.7,0.5,5.6c0,0.4,0.4,0.7,0.2,1.1
			C133.2,113.6,129.8,119.8,124,124.5z"/>
		<path fill="#1A1A1A" d="M136.5,66.5c-0.9-0.4-1.8-1.2-2.8-0.2c-0.2,0.2-0.6,0.3-0.9,0c-0.3-0.3-0.2-0.7-0.2-1.1
			c0.1-0.5,0.4-0.6,0.9-0.5c1.8,0.5,2.5-0.2,1.9-2c-0.2-0.7,0.3-1.2,0.3-1.9c0-1,1-2.4-1.1-2.6c-0.4,0-0.4-0.5-0.4-0.8
			c-0.5-2.2-1.4-2.9-3.4-2c-1.6,0.7-2.4,0.4-3-1.1c0,0-0.1,0-0.2,0c-0.1,0-0.1,0.1-0.1,0.1c-0.9-0.1-1-0.7-1-1.5
			c0.1-0.2,0.3-0.4,0.5-0.6c0.3-0.3,1-0.6,0.6-1.2c-0.3-0.6-0.9-0.1-1.4-0.1c-0.4-0.1-0.5-0.4-0.5-0.8c0.3-0.9,1.2-1.3,1.6-2.2
			c-0.8-0.3-1.4,0.5-2,0.3c-1.3-1.5-1.8-3.4-2.7-5.1c-4.2-7.4-9.6-13.8-15.5-19.9c-1.7-1.8-3.3-3.6-5.2-5.3c-4.4-3.8-9.4-6.4-15.3-7
			c-1.4-0.3-2.8-0.2-4.3,0c-0.7,0.1-1.6,0.3-1.9-0.5c-0.3-1,0.8-1,1.4-1.2c1.6-0.5,3.3-0.8,4.5-0.6c-2.9-1.2-6.2-1.2-9.5-0.4
			c-0.2,0-0.4,0-0.6,0C76,8.2,75.8,8,75.8,7.7c0.3-0.9,1.3-0.6,1.9-1.2c1.2-0.6,2.7-0.6,3.9-1.1c0.7-0.2,1.2-0.8,2-0.8
			c1.9-0.2,3.8,0.1,5.6,0.3c0.7,0,1.5,0.1,2.1,0.5c0.7,0.5,1.3,0.2,1.9-0.2c-1.8-1.2-3.7-1.6-5.8-1.6c-1.6-0.1-3.3-0.3-4.9,0
			c-0.5-0.1-1.2-0.1-1.1-0.9c0.6-0.8,1.6-0.8,2.4-1.1c-0.8-0.1-1.6-0.2-2.5-0.3c3.4-0.5,6.4,0.2,9.5,1.2c6.8,2.2,12.7,5.6,17.7,10.8
			c6.7,7,13.3,14.2,19.1,22c0.2,1.1-1.2,1.8-0.7,3.1c0.3,0.8,0.5,1.5,1.5,1.3c1.2-0.2,2,0.5,2.6,1.4c0.7,1.1,1.7,2.2,2.1,3.4
			c0.9,2.3,2.2,4.6,2,7.2c-0.1,1.9,0.9,3.5,1.7,5.1c1,1.8,1.9,3.5,0.5,5.6c-0.5,0.8-0.3,2-0.2,3.1C137.2,65.9,137.4,66.5,136.5,66.5
			z"/>
		<path fill="#1A1A1A" d="M136.5,66.5c0.5-1.1-0.2-2.2,0.1-3.4c0.1-0.7,0.1-1.3,0.6-1.9c0.6-0.6,0.6-1.4,0.2-2.2
			c-1.5-3-2.9-5.8-3.1-9.4c-0.1-2-0.5-4.9-2.9-6.4c-0.3-0.2-0.2-0.6-0.3-0.9c-0.6-1.2-1.1-2.5-2.8-2.3c-0.6,0.1-1.6,0.6-1.7-0.1
			c-0.2-1-1.1-2.1-0.3-3.2c0.4-0.5,0.8-1,1.2-1.5c6.2,7.4,10.9,15.4,13,24.9c0.5,2.4,1.8,4.6,2.1,7.1c0.4,3.3,0,6.6-0.1,9.8
			c-0.2,4.8-1.4,9.4-2.4,14c-1.1,4.7-2.2,9.4-3.9,13.9c-0.2,0.5-0.5,1-0.8,1.5c-1.6-1.2-0.4-2.7-0.4-4c0-0.3,0.4-0.6,0-1
			c-1-1-1.7-2-0.3-3.2c0.1-0.1,0-0.5,0-0.5c-0.2-0.1-0.5-0.1-0.7-0.1c-0.5,0.2-1,0.9-1.5,0.2c-0.4-0.6-0.8-1.3-0.4-2
			c1-1.6,1.1-3.5,2.5-5c1.1-1.2,1.7-3,1.1-4.8c-0.3-0.9-0.2-1.9,0.4-2.6c1.3-1.4,1.3-2.8,0.9-4.6c-0.5-1.8,0.1-3.7,0.1-5.6
			C137.1,71.1,136.5,68.9,136.5,66.5z"/>
		<path fill="#1A1A1A" d="M17.2,35.8c-2.3,3.5-4.1,7.4-6.7,10.7c-0.6,0.8-0.5,1.7-0.7,2.5c-0.2,0.6-0.2,1.4-0.8,1.9
			C8.3,51,8.1,50.5,8,50.1c-0.1-0.5,0.3-0.9,0.4-1.3c0.4-1.7,1.6-3.1,2-4.8c1.3-2.5,2.9-4.9,4.3-7.4C15.5,35.4,16.2,35.6,17.2,35.8z
			"/>
		<path fill="#1A1A1A" d="M37.9,7.8c-0.2,0.6-0.4,1.2-0.5,1.8c-0.5,1.7,0.2,2.7,2.3,2.8c-1.2,1.2-2.3,2.1-3.3,3.1
			c0.4-1.1-0.1-2-0.7-2.6c-1.2-1.1-1.2-2.5-0.7-3.6C35.3,8.2,36.5,7.5,37.9,7.8z"/>
		<path fill="#1A1A1A" d="M55.9,2.9c-1.6,0-3.1-0.7-4.7-0.3c3.5-1.4,7.1-1.4,10.8-1.8C63.6,0.7,65,1.1,66.4,2
			c-0.3,1.2-1.3,0.8-2,0.8c-2,0.1-4-0.2-5.9,0.2C57.6,3.1,56.7,3.7,55.9,2.9z"/>
		<path fill="#1A1A1A" d="M3.1,75.9c-0.5,1.5,0.4,3,0.1,4.6c-0.1,0.4,0.3,1-0.4,1.1c-0.7,0-0.4-0.7-0.6-1c-0.1-0.2-0.3-0.3-0.4-0.4
			c-0.5-3.3-1-6.6,0-10c0.1,1.3,0.3,2.5,0.4,3.8C2.4,74.6,2.3,75.4,3.1,75.9z"/>
		<path fill="#1A1A1A" d="M81.4,2.7c0.3,0.5,0.8,0.3,1.2,0.4C82.8,3.7,82,3.6,82,4c0.2,0.1,0.4,0.1,0.6,0.2c0.4,0.1,0.8,0.2,0.8,0.8
			c-0.7,0-0.8,1-1.6,0.8c-4.2-1.4-8.5-2.2-12.9-2.6c-0.6-0.1-1.3,0-1.9-0.3c-0.4-0.5-0.1-0.7,0.3-0.9c3.2,0.2,6.4,0.1,9.5,1.2
			C78.4,3.7,80,4.2,81.4,2.7z"/>
		<path fill="#1A1A1A" d="M67.3,1.9c-0.1,0.2-0.2,0.4-0.4,0.7C66.8,3,66.4,3.2,66,3.4c-2.4,0.4-4.9,0-7.3-0.1
			c-0.3-0.2-0.5-0.4-0.6-0.7c2.1-0.5,4.2-0.3,6.3-0.3c0.7,0,1.4,0.3,2-0.3C66.7,2,67,1.9,67.3,1.9z"/>
		<path fill="#1A1A1A" d="M8.2,50.2c0.2,0.3,0.5,0.5,0.7,0.8c-1.1,1.7-1.6,3.6-2.3,5.5c-0.9,0.4-1.1-0.1-0.8-0.7
			C6,55,6.4,54.3,6.6,53.6c0-0.1,0-0.2,0-0.3C7.2,52.3,7,50.9,8.2,50.2z"/>
		<path fill="#1A1A1A" d="M10.4,44c-0.1,1.9-1.2,3.4-2,5c-0.2,0.1-0.3,0.1-0.5,0C8.5,47.2,9.4,45.5,10.4,44z"/>
		<path fill="#1A1A1A" d="M5.4,53.2c-0.2-1.5,0.8-2.7,1.2-4C6.8,50.7,5.9,51.9,5.4,53.2z"/>
		<path fill="#1A1A1A" d="M6.6,53.6C6.9,54.4,6.2,55,6,55.7c-0.2,0.6,0,0.8,0.6,0.7c-0.5,0.6-0.2,1.4-0.8,1.9
			C5.1,56.6,5.3,55,6.6,53.6z"/>
		<path fill="#1A1A1A" d="M8,49c0.2,0,0.3,0,0.5,0c-0.1,0.4-0.2,0.8-0.3,1.2c-0.8,0.9-0.6,2.3-1.6,3.1C6.4,51.7,7.6,50.4,8,49z"/>
		<path fill="#1A1A1A" d="M2,82.5c0.4,0.6,0.8,1.3,1.2,1.9c0.4,0.6-0.1,0.8-0.6,0.8C2.1,84.4,1.9,83.5,2,82.5z"/>
		<path fill="#1A1A1A" d="M81.8,11.6c-0.5,0.7-0.9,1.5-0.8,2.4c-2.9-0.7-5.9-1.3-8.8-2.1c-2-0.6-4-0.9-6.1-1.1
			C64.7,9.3,62.7,9,61,10.1c-0.6,0-1.2,0.3-1.6-0.2c-0.7-0.9-0.6-1.5,0.6-1.8c0.6-0.1,1.3,0,1.9-0.3c0.8-0.4,1.5-0.2,2.3-0.2
			c0.3,0.1-0.2,0.2,0,0c0.1-0.1,0-0.1-0.1-0.1c-0.7,0-1.4,0-2.1,0.1c-0.6,0.1-1.3,0.2-1.4-0.8c0.5-0.5,1.1-0.7,1.8-0.8
			C64,6,65.7,6,67.4,6c2.5,0,5,0.6,7.4,1.1c0,0.9,0,0.9-1.1,1.3c1-0.4,1.8,0.5,2.7,0.5c-0.3-0.2-1,0-0.9-0.7C75.6,7.8,76,8,76.3,8.1
			c0.1,0,0.2,0,0.3,0c1.2-0.3,2.3-0.5,2.8,1.2c0.3,0.9,0.9,2.1,2.3,2C81.8,11.3,81.8,11.5,81.8,11.6z"/>
		<path fill="#1A1A1A" d="M21.4,92.2c0.4-0.3,0.8-0.6,1.3-0.8c1.2,0.7,0.9,2,1.3,3c1.1,2.2,1.9,4.5,3.2,6.7c0.4,1.7,1.7,3,2.1,4.8
			c1,2.6,2.7,4.8,4,7.2c0.3,0.7,1,1.2,0.4,2c-0.9-0.4-1.8-0.9-2.7-1.3c-1-0.9-1.4-2.2-2.3-3.2c-0.6-1.3-1.8-2.3-2.4-3.6
			c-0.9-1.4,0-3.3-1.1-4.7c-1.1-1.4-1.5-3-1.6-4.8c-0.3-0.7-0.7-1.4-1-2.1c-0.3,0.7,0.3,1.4-0.2,2.2C20.4,96,21.8,94,21.4,92.2z"/>
		<path fill="#1A1A1A" d="M62.2,6.5c-0.5,0.2-1,0.3-1.5,0.5c-0.5-0.1-0.9-0.2-1.4-0.1c-1.2,0.3-2.5,0.2-3.6,0.9
			c-0.2,0.3-0.4,0.6-0.5,0.9c-0.3,0.4-0.5,0.7-1.1,0.6c-1.4,0.7-3.5-0.2-4.3,1.9c-0.2,0.4-0.8,0.3-1.2-0.1c-0.5-0.5-1-0.9-1.7-0.9
			c-0.5,0-0.9,0-1-0.6c-0.1-0.5,0.2-1,0.6-1.1c1.8-0.7,3.2-2.1,5.2-2.3c0.8,0.9,1.5,0.1,2.3-0.1c2.3-0.5,4.5-1.3,6.9-1.1
			C61.5,5.3,62.2,5.6,62.2,6.5z"/>
		<path fill="#1A1A1A" d="M60.9,5.3c-2.5,0-4.8,1.2-7.3,1.2c-0.6-0.3,0.9-0.8-0.1-1.1c-0.5,0-1-0.1-1.5-0.1c0.3-0.9,1.2-0.9,1.8-1.2
			c1.2-0.5,2.5-0.5,3.8-0.8c1.9,0.2,3.9-0.4,5.8-0.1c0.7,0.2,1,0.6,0.4,1.2c-0.4,0.4-0.9,0.7-1.4,1C61.9,5.8,61.5,5.1,60.9,5.3z"/>
		<path fill="#1A1A1A" d="M18.3,66.5c-0.1,0.4-0.2,0.9-0.4,1.3c0.5,1.6-0.2,3.3,0.4,5c0.1,1.4,0.9,2.8,0.4,4.3
			c-1.3-0.1-1.5-1.3-1.6-2.1c-0.2-2.8,0-5.5,0.4-8.3C17.7,66.1,18.1,66.5,18.3,66.5z"/>
		<path fill="#1A1A1A" d="M72.3,21.7c0-0.1,0-0.2,0-0.2c1.1,0,2.3,0,3.4,0c0.8,0.3,1.6,0.2,2.4,0c0.8-0.2,1.7-0.3,2.1,0.7
			c-2,1.6-4.2,0.6-6.4,0.5C73.5,22.1,72.5,22.6,72.3,21.7z"/>
		<path fill="#1A1A1A" d="M61,10.1C60.7,9.5,60.8,9,61.5,9c1.6,0.1,3.2,0.2,4.7,0.6c0.7,0.2,0,0.8-0.1,1.2
			C64.4,10.6,62.7,10.3,61,10.1z"/>
		<path fill="#1A1A1A" d="M80.3,22.1c-1.5-0.2-3-0.4-4.5-0.7c0.8-0.3,1.8,0.3,2.4-0.7c0.9-0.8,1.7-0.7,2.4,0.3
			c1.3,0.3,2.5,0.6,3.8,0.9c-0.3,1-1.4,0.2-1.8,0.8c-0.5,0.2-0.9-0.1-1.3-0.5C81,22.1,80.7,22.1,80.3,22.1z"/>
		<path fill="#1A1A1A" d="M80.6,20.9c-0.8-0.5-1.6-0.3-2.4-0.3c-0.7,0-1.4-0.2-2-1c2.8-0.5,5.4,0.2,7.9,0.9
			C83,20.9,81.7,19.9,80.6,20.9z"/>
		<path fill="#1A1A1A" d="M54,9.3c0.2-0.3,0.5-0.6,0.7-0.9c1-0.4,2-0.8,3.1-0.6c0.8,0.3,1.3,0.8,0.8,1.7C57.1,9.6,55.5,10.1,54,9.3z
			"/>
		<path fill="#1A1A1A" d="M26.6,107.1c0.8,1.1,1.8,2.1,2.3,3.3c0.2,0.4,0.3,0.8-0.4,0.8c-1.1-1.8-3.2-3.1-3.3-5.6
			C26.2,105.8,26.1,106.7,26.6,107.1z"/>
		<path fill="#1A1A1A" d="M25.4,104.3c-1.6-1-2.8-3.6-2.4-5.1c1.2,0.9,1.6,2.4,2.5,3.5C25.5,103.3,26.4,103.9,25.4,104.3z"/>
		<path fill="#1A1A1A" d="M28.6,111.3c0.1-0.3,0.2-0.5,0.4-0.8c0.8,1.1,1.8,1.9,2,3.4C29.2,113.7,28.3,112.6,28.6,111.3z"/>
		<path fill="#1A1A1A" d="M58,3.7c-1.3,0.5-2.7,0.6-4.1,0.4c0.4-0.8,1.5-0.6,2-1.2c0.7-0.1,1.5-0.2,2.2-0.4c0.2,0.1,0.3,0.3,0.5,0.4
			C58.6,3.4,58.2,3.5,58,3.7z"/>
		<path fill="#1A1A1A" d="M25.4,102.8c-1.1-1-1.8-2.2-2.4-3.6c0.6-0.4,0.4-1.1,0.5-1.6c0.4,1.7,1.1,3.2,2,4.6
			C25.6,102.5,25.6,102.7,25.4,102.8z"/>
		<path fill="#1A1A1A" d="M80.9,14c1.7-0.6,3.1,0.8,4.7,0.8c0,0.5-1.4,0.1-0.8,1C83.3,15.7,82.5,14,80.9,14z"/>
		<path fill="#1A1A1A" d="M25.4,102.8c0-0.2,0.1-0.4,0.1-0.6c1.4,1.4,0.1,3.4,1.1,4.9c-0.4-0.5-0.9-0.9-1.3-1.4
			c-0.7-0.5,0.3-0.9,0.1-1.4C25.8,103.8,25.3,103.3,25.4,102.8z"/>
		<path fill="#1A1A1A" d="M58.6,9.6c0.2-0.7-0.3-1-0.8-1.4c1.4-1.2,2.9-0.6,4.3-0.1c-0.5,0.7-1.3,0.4-2,0.4c-1.2,0-1,0.6-0.8,1.3
			C59.1,9.7,58.9,9.7,58.6,9.6z"/>
		<path fill="#1A1A1A" d="M53.6,5.4c0.2,0.2,1-0.6,0.7,0.4c-0.1,0.3-0.4,0.5-0.6,0.7c-1.7,0.7-1.9,0.6-2-0.4
			C52.3,6.1,53.1,6.3,53.6,5.4z"/>
		<path fill="#1A1A1A" d="M30.3,127.2c1.2,0.2,2.1,0.8,2.1,1.8c0,0.9-0.9,1.7-1.7,2c-0.7,0.3-2.8-1.6-2.7-2.4
			C28.1,127,29.7,128,30.3,127.2z"/>
		<path fill="#1A1A1A" d="M29.2,105.9c-1.2-1.3-1.9-2.9-2.3-4.6c-0.1-0.4,0-0.5,0.4-0.5c1,1.8,1.9,3.6,2.9,5.4
			C29.9,106.1,29.5,106,29.2,105.9z"/>
		<path fill="#1A1A1A" d="M116.6,105.5c0.9-1.4,1.9-2.9,2.8-4.3c0.2,0.3,0.5,0.7,0.5,0.8C118.6,103,118.3,104.9,116.6,105.5z"/>
		<path fill="#1A1A1A" d="M112.5,110.5c0.8-1,1.3-2.2,2.5-2.8C114.6,109,113.8,109.9,112.5,110.5z"/>
		<path fill="#1A1A1A" d="M62.2,5.4c0.1-1,1.9-0.5,1.6-1.8c0.7-0.6,1.6-0.2,2.4-0.3c0,0,0.1-0.1,0.1-0.1c0-0.1-0.1-0.1-0.1-0.2
			c0.3-0.1,0.5-0.3,0.8-0.4c4.7,0.1,9.3,1.1,13.9,2.3c0.4,0.1,1.4-0.2,1,0.9c-1.3,0.4-2.6,0.7-4,1.1c-1.7,0.4-3.3,0.1-5-0.3
			c-0.7,0-0.9-0.6-1.4-0.9c-0.8-0.4-0.6,0.3-0.7,0.6c-1,0.3-2-0.2-3,0c-1.2-0.6-2.5,0.1-3.8-0.2C63.3,6.1,62.5,6.3,62.2,5.4z"/>
		<path fill="#1A1A1A" d="M81.8,11.6c-1-0.9-2.3,0.1-3.4-0.7c0.3-0.7,1-0.3,1.6-0.6c-1.7,0-1.1-3-3.3-2.2c3.8-1.4,7.4-0.9,11.3,0.8
			c-2.6,0.5-5.1,0.4-7.2,1.7c2.1,0.3,4.2-0.5,6.3,0.2C85.2,10.7,83.5,11.6,81.8,11.6z"/>
		<path fill="#1A1A1A" d="M93.6,5.4c-1.3,1.7-2.7-0.1-4.1,0c-1.3-0.5-2.6-0.6-3.9-1c-0.3-0.3-0.6-0.6-0.3-1c0.8-0.3,1.6,0.2,2.5,0.1
			C89.9,3.6,92,3.6,93.6,5.4z"/>
		<path fill="#1A1A1A" d="M72.8,6.2c1.7,0.2,3.3,0.4,5,0.7c-0.4,0.9-1.5,0.1-1.9,0.9c-0.4,0.2-0.6,0-0.8-0.3
			c-2.5-0.3-4.9-0.6-7.4-0.9c-0.1-0.1-0.2-0.1-0.1-0.2c0-0.1,0.1-0.1,0.1-0.1c1-0.5,2.1,0.2,3.1-0.1C71.5,5.5,72.1,6.8,72.8,6.2z"/>
		<path fill="#1A1A1A" d="M75.1,7.4c0.3,0.1,0.5,0.2,0.8,0.3C76,7.9,76.2,8,76.3,8.1c-0.1,0-0.1,0-0.2,0.1c-0.1,0.1-0.2,0.1-0.3,0.2
			c0.7,0.3,1.6,0.2,2.2,1.3c-2.1-0.4-3.9-1.3-5.9-1.1C73.2,8.1,74.2,8,75.1,7.4z"/>
		<path fill="#1A1A1A" d="M85.7,4.2c1.3,0.3,2.8,0.1,3.9,1.2c-2.1-0.1-4.1-0.3-6.2-0.4c-0.3-0.1-0.7-0.3-1-0.4
			C83.3,3,84.5,3.8,85.7,4.2z"/>
		<path fill="#1A1A1A" d="M126,50.2c-0.2-0.6-0.3-1.3-0.5-1.9c0.7-0.5,1.6-1.6,2.4-0.7c0.8,0.9-0.8,1.3-1.2,2
			C126.6,49.8,126.3,50,126,50.2z"/>
		<path fill="#1A1A1A" d="M87.6,3.8c-0.8,0.3-1.5-0.6-2.3-0.3c-1.3,0.7-2.7,0.4-4.1,0.6C80.9,4,80.3,4,81,3.6c0.5-0.3,1.2,0,1.6-0.5
			c1.7-0.3,3.4-0.3,5,0C87.8,3.3,87.9,3.6,87.6,3.8z"/>
		<path fill="#1A1A1A" d="M87.6,3.8c0-0.2,0-0.5,0-0.7c2.6-0.2,4.8,1.1,7.1,2c-0.4,0.5-0.8,0.2-1.1,0.2C91.8,4.1,89.7,3.8,87.6,3.8z
			"/>
		<path fill="#1A1A1A" d="M126.8,52.9c-0.1-0.6-0.3-1.3-0.4-1.9c0.6-0.6,1.3-1.2,1.8-0.1C128.9,52.2,127.8,52.6,126.8,52.9z"/>
		<path fill="#1A1A1A" d="M134.8,95.7c0-0.8-0.4-1.4,0.3-1.9c0.1-0.1,0.4,0,0.5,0.1C135.9,94.7,135.8,95.2,134.8,95.7z"/>
		<path fill="#1A1A1A" d="M81.2,4.2c1.4-0.2,2.7-0.7,4.1-0.6c0.1,0.2,0.2,0.4,0.4,0.6c-1.1,0.3-2.3-0.4-3.3,0.4
			C82,4.4,81.6,4.3,81.2,4.2z"/>
		<path fill="#1A1A1A" d="M66.1,3c0.4,0.1,0.7,0.1,1.1,0.2c0,0.1,0,0.3,0,0.4c-1.2,0-2.3,0-3.5,0c-1.9-0.3-3.9,0.4-5.8,0.2
			c0-0.5,0.4-0.6,0.7-0.7C61.2,3,63.6,3,66.1,3z"/>
		<path fill="#1A1A1A" d="M27.3,100.8c-0.1,0.2-0.3,0.3-0.4,0.5c-1.3-2.1-2.3-4.4-3.1-6.7c0.2-0.2,0.4-0.2,0.6-0.1
			C25.3,96.6,26.3,98.7,27.3,100.8z"/>
		<path fill="#1A1A1A" d="M82.5,22.4c0.5-0.6,1.4,0,1.9-0.6c2.4,0.1,4.7,0.8,7,1.7c-2.7-0.2-5.4-1.2-8.1-1
			C83,22.8,82.7,22.8,82.5,22.4z"/>
		<path fill="#1A1A1A" d="M70.1,22.2c-1.4,0.4-2.7,0.3-4.6,0c1.6-0.7,2.9-0.4,4.1-0.4C69.8,21.9,70,21.9,70.1,22.2z"/>
		<path fill="#1A1A1A" d="M24.4,94.5c-0.2,0-0.4,0-0.6,0.1c-0.4-1.1-0.8-2.1-1.1-3.2c0.3-0.5,0.6-0.7,0.8,0
			C23.8,92.4,24.1,93.5,24.4,94.5z"/>
		<path fill="#1A1A1A" d="M70.1,22.2c-0.1-0.1-0.3-0.2-0.4-0.4c0.9,0,1.8-0.1,2.7-0.1c0.5,0.3,1.1,0.6,1.6,0.9
			C72.6,22.4,71.4,22.3,70.1,22.2z"/>
		<path fill="#1A1A1A" d="M18.3,72.7c-0.8-1.6-0.1-3.3-0.4-5C18.8,69.4,18.2,71.1,18.3,72.7z"/>
		<path fill="#1A1A1A" d="M82.5,22.4c0.3,0,0.5,0.1,0.8,0.1c-0.6,0.7-1.3,1-2.2,0.5c-0.6-0.4,0.2-0.5,0.2-0.8
			C81.7,22.3,82.1,22.4,82.5,22.4z"/>
		<path fill="#1A1A1A" d="M62.2,8.1c-1.4,0-2.9,0.1-4.3,0.1c-1,0.1-2.1,0.1-3.1,0.2C54.9,8.2,55,8,55.1,7.8C56.5,7.2,58,7,59.4,6.6
			c0.7-0.7,1-0.4,1.2,0.4c1.2,0.9,2.8-0.2,4.2,0.7C63.9,8,62.9,7.5,62.2,8.1z"/>
		<path fill="#1A1A1A" d="M67.7,6.2c0,0.1,0,0.2,0,0.3c-1.8,0-3.7,0-5.5,0c-0.4-0.4-0.8-0.8-1.2-1.2c0.5-0.6,0.8,0.1,1.3,0.1
			C63.4,6,64.7,6,66,5.8C66.7,5.7,67.2,5.5,67.7,6.2z"/>
		<path fill="#1A1A1A" d="M69.1,9.8c2.3-1.5,4.1,0.3,6.1,0.3c-0.9,0.5-1.9,0.4-2.8,0C71.5,9.7,70.4,10.4,69.1,9.8z"/>
		<path fill="#1A1A1A" d="M59.4,6.6c-1.3,0.8-2.7,1.4-4.3,1.2C55,6.5,56.1,7.2,56.6,7C57.5,6.7,58.4,6.4,59.4,6.6z"/>
		<path fill="#1A1A1A" d="M72.8,6.2c-0.7,0.6-1.4,0-2.1-0.1c-0.3-0.2-0.6-0.5-1-0.8C71.1,5,72.1,5,72.8,6.2z"/>
	</g>
	<g>
		<path fill="#FDFDFD" d="M49.4,90.2c0.4,0.1,1,0,1.3,0.4c1,1.4,2.5,1.5,4,1.8c1.6,0.3,2.8,1.4,4.4,1.8c0.2,0.1,0.4,0.1,0.7,0.2
			c1-0.1,1.8,0.2,2.6,0.7c1.5,1,3.3,1.2,4.9,2.1c2.1,1.2,4.5,1.7,6.6,2.8c0.9,0.4,2,0.3,2.9,1c0.8,0.9,2,0.9,3.1,1.2
			c1.5,0.3,2.4,1.5,3.8,1.9"/>
		<path fill="#FDFDFD" d="M84.8,97.5c-0.3-0.1-0.6-0.3-1-0.3c-1.8,0.1-3.3-1-5-1.1c-1.1-0.3-2.2-0.3-3.3-0.4
			c-0.6-0.1-1.2-0.2-1.6-0.7c0-1.6,1.2-1,1.9-0.9c1.9,0.3,3.7,0.3,5.3-1c0.1-0.1,0.3-0.2,0.4-0.2c0.6-0.3,1.3-0.2,1.9-0.2
			c0.9,0,1.7-0.2,2.1-1.2c-0.3-2.1-0.3-4.2,0.6-6.3c1.9-2.2,1.7-4.8,1.6-7.4c-0.1-1.6,0.6-2.5,2-3.2c1.5-0.7,2.8-1.9,4.7-1.3
			c0.4,0.1,0.7-0.3,0.6-0.8c-0.3-1.1,0-2,0.9-2.6c-0.2-0.5-0.6-0.5-0.9-0.4c-2.4,0.2-4.2-0.7-5.7-2.5c-0.9-1-1.9-1.9-3-2.6
			c-0.5-0.4-1.2-0.7-1.1-1.5c1.7-2.8,2.4-5.9,2.9-9.1c0.2-1,0.2-2.1-0.4-3.1c-0.3-0.5-0.5-1-0.3-1.6c0.3-1.1-0.4-1.8-0.9-2.6
			c-0.4-0.7-0.8-1.5-0.8-2.3c-0.1-2.2-2.1-3.1-3.1-4.6c0-0.1-0.1-0.1-0.1-0.1c-0.5-0.2-0.9,0-1.3,0.3c-1.2,0.9-3.5-0.2-4,2
			c-0.2,1.1-1.3,1.7-1.5,2.8c-1.3,1.7-1.6,3.7-1.9,5.7c-0.3,1.9-1.4,3.6-1.9,5.5c-0.3,0.6-0.9,0.9-1.4,1.1c-0.9,0.4-1.6,1-2,1.9
			c-0.3,0.6-0.5,1.6-1.5,1.3c-0.9-0.3-1.2-1.1-1.3-2c-0.1-0.7,0.3-1.3,0.4-2c0.7-3.5,0.8-7.1,0.4-10.6c-0.3-2.1-1.3-3.8-3-5
			c-0.8-0.6-1.6-1.1-1.9-2c-0.1-0.1-0.1-0.3-0.2-0.5c-0.9-3-3.2-4.9-6.2-5c-1.7-0.1-2.6,0.7-2.7,2.4c-0.1,1.4-0.3,2.8-0.5,4.1
			c-0.1,3.2-0.8,6.3,0.2,9.4c0,2.1,0.9,3.9,1.8,5.7c0.2,0.5,0.5,1,0,1.4c-0.5,0.5-1,0.2-1.6,0c-0.9-0.4-1.7-0.9-2.7-1
			c-0.5-0.1-0.9-0.2-1.2-0.6c-1.4-1.8-3.3-2.1-5.4-2.3c-0.3,0-0.7-0.1-1-0.1c-1.1-0.1-2.4-1-3.1,0.2c-0.7,1.3-0.8,2.9-0.1,4.3
			c1.4,3,3.5,5.5,6.3,7.4c1.6,1.1,3.2,2.2,4.7,3.5c0.4,0.3,1,0.6,0.7,1.3c-0.2,0.3-0.6,0.6-0.9,0.9c-2.1,0.9-4.4,0.4-6.6,0.6
			c-1.7,0.1-3.2,0.5-4.4,1.7c-0.3,0.3-0.6,0.5-0.9,0.7c-2.1,1.1-2.3,3.1-0.7,4.8c1.1,1.2,2.5,1.9,4,2.3c2.1,0.8,3.9,2.1,6.2,2.4
			c1,0.2,2,0.2,3,0.5c1.5,0.5,1.6,0.7,1.1,2.2c-0.2,0.7,0.3,0.8,0.8,1.1c0.7,0.7,0.3,1.9,1.1,2.5c0.2,0.6,1.2,1.2,0.4,1.9
			c-0.7,0.7-1.5,0.3-2.2-0.1"/>
		<path fill="#4D4D4D" d="M86.1,44.1c-0.1,0.8,0.7,1.4,0.7,2.1c0.7,1.8,0.7,3.6,0.2,5.4c-0.8,0.6-1.2,0.3-1.5-0.5
			c-0.2-0.5-0.1-1-0.1-1.5c-0.1-1.8-0.7-2.3-2.5-2.1c-0.4,0-0.7,0.2-0.8,0.5c-0.1,1.1-1,1.7-1.6,2.5c-0.8,1-1.2,1.9-0.6,3.2
			c0.4,0.7,0.4,1.6,0,2.3c-0.6,1.1-0.2,2.1,0.1,3.2c0.3,1.1,0.9,0.9,1.4,0.4c0.5-0.4,0.7-0.8,1.5-0.3c0.7,0.4,0.9-0.6,1-1.1
			c0.3-1.7,0.9-3.2,1.5-4.8c0.2-0.5,0.2-1.3,1.2-0.9c0.6,1.7,0.2,3.3-0.2,4.9c-0.2,0.9-0.4,1.7-0.1,2.6c0.3,0.8,0,1.4-0.6,2
			c-0.4,0.4-0.8,0.7-0.8,1.4c0,0.2,0,0.3-0.1,0.5c-0.1,0.6-0.6,0.8-1.1,0.9c-0.5,0.1-0.9,0.3-1.3,0.7C81,67,79,67.3,77.2,66.1
			c-1.3-0.8-1.7,0-2,1c-0.4,0.7-0.9,0.7-1.6,0.6c-0.5-0.1-1-0.2-1.5-0.2c-1.8,0.2-1.8,0.2-1.6-1.5c0-0.2,0.1-0.3,0.2-0.5
			c1.3-1.3,2.1-2.7,2.2-4.7c-0.7,0.3-0.8,0.9-1.1,1.5c-0.3,0.6-0.6,1.2-1.5,1.1c-0.8-0.9,0-1.6,0.4-2.3c1-1,1.3-2.1,0.8-3.4
			c-0.3-0.8-0.1-1.5,0.1-2.2c0-1.3,0.7-2.5,1.2-3.7c0.3-0.8,0.7-1.6,0.6-2.5c-0.1-1.9,0.8-3.5,1.9-4.9c0.6-1.1,1.5-1.9,2.3-2.8
			c1.4-1.6,4.9-1.6,6.3-0.1C84.7,42.2,85.8,42.9,86.1,44.1z"/>
		<path fill="#AFAFAF" d="M81.8,93.1c-0.1,0.1-0.2,0.1-0.3,0.2c-2.4,0.9-4.6,0.9-7.2,0.4c-2.6-0.6-5.1-1.1-7.6-1.8
			c-0.7-0.2-1.3-0.3-1.8-0.8c-1.4-1.5-2.9-2.9-4.1-4.6c-0.3-0.4-0.4-0.8-0.4-1.3c0.6-1.1,1.7-1.8,2-3c0.1-0.3,0.4-0.6,0.8-0.5
			c0.4,0.1,0.4,0.5,0.5,0.8c0.1,0.5,0,1-0.1,1.5c0.3-0.9,0.7-1.8,1.2-2.5c0.8-1.3,2-1.4,3-0.3c0.3,0.4,0.8,0.8,0.9,1.2
			c0.3,1.8,1.7,1.6,3,1.7c0.9,0.2,1.5,0.9,2.2,1.5c0.7,0.5,1.3,0.8,2.1,0.2c1-0.7,1.4-1.5,1.1-2.7c-0.3-0.9-0.7-1.4-1.8-1.4
			c-2.4-0.1-2.9-0.5-3.4-2.2c0.1-0.3,0.3-0.6,0.5-0.8c0.6-0.4,1-0.4,1.3,0.3c0.3,0.9,1,1.1,1.9,1.1c1,0,1.9,0.2,2.5,1
			c0.4,1.3,0.9,2.6,0.6,4c-1.1,2.2,0.2,4.2,0.5,6.2c0.1,0.5,0.6,0.5,0.9,0.6C80.9,92.2,81.7,92.2,81.8,93.1z"/>
		<path fill="#AFAFAF" d="M40.9,80c-2.2-0.2-3.7-1.6-5-3.1c-0.7-0.8-0.2-1.9-0.1-2.9c0-1.1,0.3-1.6,1.5-1.8c1.1-0.2,1.7-1.5,2.9-2
			c1.9-0.7,3.8-0.4,5.8-0.6c1.3-0.1,2.6,0,3.9-0.3c1.7,0.6,3.2,1.6,4.9,2.3c0.8,0.3,1.1,1.1-0.2,1.4c-0.6-0.1-0.7-0.1-0.7,0.2
			c0.1,1.3-0.4,1.8-1.9,1.9c-1.6,0.1-3.2-0.3-4.8-0.9c0.6,1.6,2.2,1.5,3.2,2.2c0.8,0.7,1.2,1.5,0.7,2.5c-0.5,1.1-1.5,1.1-2.5,0.9
			c-1.1-0.2-2.2-0.1-3.4-0.1c-1.2,0-2.3,0.2-3.5-0.3C41,79.1,40.9,79.5,40.9,80z"/>
		<path fill="#797979" d="M53.6,54.6c-1.2-1.7-1.8-3.7-1.8-5.8c-0.3-1.8,0.1-3.3,1.8-4.3c0.6-0.3,0.1-0.6-0.1-0.9
			c-0.4-0.5-0.5-1.1-0.1-1.7c0.4-0.6,1-0.6,1.6-0.5c1.3,0.2,1.6,0,1.3-1.3c0-0.2-0.1-0.3-0.1-0.5c-0.5-1.6,0.6-3.2,2.3-3.3
			c0.3,0,0.7,0.1,0.7,0.3c0.2,1.4,1.6,1.1,2.4,1.6c0.3,0.5,0.6,0.9,1.1,1.2c0.9,0.7,1,1.3-0.1,1.8c-0.3,0.8-0.3,1.6-0.1,2.3
			c0.6,2.5,0.2,5,0.3,7.4c0,0.6,0.2,1.3-0.6,1.5c-0.7-0.8-1.4-1.1-2.3-0.2c-0.6,0.7-1.5,0.6-2.3,0.9c-1,0.4-1.3,0.9-1.1,2
			c0.1,0.8,0.8,2-0.7,2.5C54.3,57,54.4,55.5,53.6,54.6z"/>
		<path fill="#AEAEAE" d="M50.3,68.9c0.4-0.5,0-0.7-0.3-0.9c-2.4-1.8-4.8-3.6-7.2-5.5c-2.2-1.7-3.6-4.1-4.6-6.6
			c-0.5-1.1-0.2-2.7,0.2-3.9c0.3-0.9,1.6-1.3,2.4-0.9c1.2,0.6,2.5,0.4,3.8,0.6c1.6,0.3,3.1,0.7,4.1,2.2c0.2,0.3,0.7,0.5,1.1,0.7
			c1.1,0.3,1.8,0.9,1.6,2.1c-0.2,1.2,1.2,1.6,1.3,2.6c-0.3,0.6-0.7,0.3-1.1,0.2c-0.5-0.1-1-0.2-1.4,0.1c-0.9,0.7-1.8,0.6-2.6-0.1
			c-1.1-0.8-2.3-1.5-3.7-1.9c-1.2-0.3-1.7-1.4-2.4-2.2c-0.4-0.4-0.8-0.9-1.1-1.3c-0.9,3.1,1,5.1,3.2,6.8c0.8,0.7,1.6,1.4,2.3,2.2
			c2,2.3,4.4,3.8,7.2,4.7c1.2,0.4,1.8,1.2,2.2,2.3c0.2,0.5,0.3,1-0.3,1.3C53,71.1,51.4,70.5,50.3,68.9z"/>
		<path fill="#CACACA" d="M95.7,72.7c0.2,1.5-0.8,1.3-1.7,1.2c-1.2-0.2-4.7,1.4-5.4,2.3c-0.8,1.1-0.6,2.6-0.4,3.3
			c0.7,2.5-0.6,4.2-1.6,6.1c-0.8-0.5-0.7-1.6-1.1-2.3c-1.1-2.1-2.8-3.5-4.5-5c-0.8-0.7-1.1-1.3-0.2-2.2c0.3-0.3,0.2-0.7,0.2-1.1
			c0-0.2-0.1-0.3-0.1-0.5c-0.1-0.4-0.1-0.8,0-1.2c0.8-1.3,2.1-1.3,3.4-1.6c0.1,0.1,0.2,0.2,0.3,0.3c0.1,0.4,0.3,0.7,0.6,1
			c0-0.3-0.2-0.5-0.3-0.8c-0.1-0.3-0.2-0.6-0.2-1c0.7-1.5,1.3-1.8,2.7-1.1c0.7,0.4,1.3,0.8,2,1.2c0.5,0.3,1.1,0.6,1.7,0.5
			C92.8,71.5,94.2,72,95.7,72.7z"/>
		<path fill="#ADADAD" d="M95.7,72.7c-0.8,0.5-1.4-0.2-2-0.3c-0.3,0-0.7-0.4-1.1-0.3c-2.1,0.9-3.5-0.3-5-1.4c-1.1-0.7-2.1-1-2.6,0.7
			c-0.2,0.1-0.5,0-0.6-0.2c-0.9-1.7-2.6-2.5-4.2-3.3c0-1.4,1.2-1.5,2.1-1.6c1.4-0.2,2.4-1.2,2.4-2.8l0.1,0c0-0.5,0.2-0.7,0.7-0.7
			c2.1,1.9,4.1,3.9,6.2,5.7c1,0.8,2.5,0.6,3.7,0.5c0.6,0,1.2-0.1,1.5,0.5c0.2,0.6-0.4,0.8-0.9,1C95,71,95.4,71.9,95.7,72.7z"/>
		<path fill="#878787" d="M81.8,93.1c-0.8-0.9-2.7-0.4-3-1.4c-0.3-1.1-0.4-2.1-1-3.2c-0.6-1.1,0.3-2.3,0.5-3.5
			c0.8-1.4,0-2.9,0.4-4.4c0.1-0.5-0.1-1.2,0.7-1.4c2.3,0.7,2.8,2.7,3.3,4.6c0.2,0.7,0.2,1.4,0.4,2.1c0.1,0.3,0,0.7,0.2,0.8
			c2.6,0.7,1.8,3.3,2.8,4.9c-0.3,1.3-1.3,1.4-2.4,1.5C83.1,93.2,82.5,93.1,81.8,93.1z"/>
		<path fill="#535353" d="M83.4,104.4c-0.1-0.3-0.2-0.6-0.5-0.7c-1.8-0.5-1.5-1.7-1.3-3c0.1-0.7,0.3-1.3,0.5-2
			c0.1-0.7-0.4-2.2,1.3-1.2c0.1-0.2-0.1-0.6,0.3-0.7c2.2,0.2,3.9,1.5,5.7,2.5"/>
		<path fill="#535353" d="M90.4,102c-0.6-1.7-2.6-1.1-3.5-2.2"/>
		<path fill="#929292" d="M61.3,38.4c0,0-0.1-0.1-0.1-0.1c-1.6,0.5-2.3-0.2-2.2-1.9c-0.8,0.4-1.5,0.8-2.2,1.1
			c-0.7,0.3-0.8,0.6-0.5,1.3c0.2,0.5,0.5,0.9,0.6,1.5c0,2,0,2-1.8,1.4c-0.5-0.2-1.2-0.4-1.5,0.3c-0.2,0.6-0.4,1.2,0.5,1.5
			c0.6,0.2,0.8,1,0.3,1.1c-1.9,0.7-2.5,2.1-2.4,3.9c0,0.1-0.1,0.2-0.2,0.3c-1-3.2-0.5-6.3,0-9.5c0.5-1.3,0.5-2.6,0.7-3.9
			c0.1-0.9,0.3-1.5,1.4-1.5c0.5,0,0.9-0.2,1.2-0.4c1.1-0.7,2.2-0.6,3,0.3c0.6,0.7,2.3,0.5,2,2.1c1.4,0,1.1,1.4,1.6,2l0,0
			C61.7,38.2,61.6,38.4,61.3,38.4z"/>
		<path fill="#919191" d="M40.9,80c-0.2-0.3-0.8-0.5-0.6-0.9c0.2-0.5,0.8-0.4,1.2-0.2c2.6,0.9,5.3-0.2,7.9,0.6
			c0.7,0.2,1.1-0.3,1.3-0.8c0.4-0.9-0.2-1.5-0.7-2.1c1-0.7,2.1-0.9,3.3-0.9c0.5,0,1.1-0.1,1.3,0.4c0.3,0.6-0.1,1.1-0.5,1.5
			c-0.7,0.8-1.8,1-2.5,2.1c1.2-0.7,2.1-1.4,3.2-1.7c0.6-0.2,1.2-0.5,1.7,0.1c0.3,0.5,0.3,1.1,0.2,1.7c-0.1,0.6-0.4,1-0.7,1.5
			c-0.6,1.2-1.4,2.1-2.8,1.2c-0.6,0.9,0.4,2.2-0.9,2.8c-0.6-0.1-1.2-0.2-1.7-0.5c1.1-1.4,1.1-1.5-0.8-1.8
			C46.7,82.6,43.7,81.7,40.9,80z"/>
		<path fill="#3A3A3A" d="M59.2,94.7c-1.6-0.4-3.1-1.3-4.6-2c-1-0.3-1.3-1.2-0.9-2c0.3-0.8,0-1.1-0.5-1.6c0.1-0.8-1.2-1-0.8-1.9
			c0.8-1.6,1.4-3.3,3-4.4c0.9-0.6,1.5,0.1,1.9,0.8c0.5,0.9,0.6,1.9,0.7,2.9c0.1,0.6,0.1,1.1,0.9,1.2c0.2,0.4,0.3,0.8,0.5,1.3
			c0.2,0.5,0.1,0.9-0.2,1.4c-0.3,0.5-0.1,0.9,0.4,1.2c0.1,0.1,0.3,0.2,0.4,0.3C60.2,93,59.9,94,59.2,94.7z"/>
		<path fill="#B3B3B3" d="M86.1,91.7c-0.6-1.1-1.8-2-1.3-3.6c0.2-0.7-0.5-0.4-0.9-0.4c-0.8,0.1-1.1,0-1.1-0.9
			c-0.1-2.1-0.7-4.1-1.6-6c-0.4-0.8-1.7-0.3-1.8-1.5c-0.7-2.1-0.1-3.8,1.9-4.8c0.7,1.1,0.2,1.8-0.8,2.3c2.5,2.6,5.9,4.6,6.2,8.6
			C85.7,87.5,85.8,89.6,86.1,91.7z"/>
		<path fill="#A7A7A7" d="M73.7,100.2c-3.8-1-7.1-3-10.8-4.3c-1.1-0.4-1.9-1.7-3.3-1.2c0.7-0.9,0.7-2,0.8-3.1
			c3.4,1.1,6.7,2.6,9.8,4.3c1.6,0.8,3.2,1.2,4.9,1.6c0.5,0.1,1,0.1,1.4,0.5c0.3,1.2-0.7,1.5-1.4,1.9
			C74.7,100.1,74.2,100.3,73.7,100.2z"/>
		<path fill="#707070" d="M73.7,100.2c0.8-0.8,2.1-0.9,2.9-1.9c0.5-0.2,0.9,0.1,1.4,0.2c0.9,0.3,1,0,0.6-0.8
			c-0.4-0.7-1.2-1.6,0.5-1.9c1.7-0.2,3.1,1.2,4.8,1c0,0.3,0.1,0.6,0.1,1c-0.5-0.2-0.9-0.3-1.3-0.4c0,1-0.2,2-0.4,2.9
			c-0.1,0.9-1.5,2.6,1,2.8c0.5,0,0.6,0.7,0.2,1.2c-1.4-0.3-2.4-1.5-3.8-1.9c-1-0.6-2.3-0.3-3.1-1.1
			C75.7,100.6,74.4,101.1,73.7,100.2z"/>
		<path fill="#D4D4D4" d="M60.5,85.2c1.2,2.4,2.9,4.8,5.2,5.8c2,1,4.4,2.2,6.9,1.9c0.5-0.1,1.2,0,1.6,0.2c2,0.9,3.9,0.9,6,0.3
			c0.4-0.1,0.9-0.1,1.3-0.1c-1.4,1.6-3.3,1.5-5.2,1.4c-0.7,0-1.7-1.1-2.2,0.3c-1.2,0.5-2.4-0.4-3.5-0.3c-3.6-1.3-6.8-3.4-9.5-6.1
			c-0.7-0.7-1.5-1.1-2.4-1.6c-0.5-0.7-1-1.5-0.4-2.4c0.4-0.5,0.9-0.8,1.6-0.5C60.3,84.3,60.5,84.7,60.5,85.2z"/>
		<path fill="#D1D1D1" d="M52.6,59.3c-1-1-2.3-1.8-1.7-3.6c0.2-0.5-0.9-0.7-1.2-1.2c1.1-0.2,1.9,0.5,2.8,0.9
			c0.4,0.1,0.7,0.6,1.2,0.2c0.3-0.3-0.3-0.7-0.2-1.1c1.2,0.7,1.2,2.2,2.2,3c0.2,0,0.4,0.1,0.5,0.3c0.7,0.8,1.5,1.5,2.2,2.3
			c0.4,0.5,0.9,1,0.5,1.6c-0.4,0.7-1.1,0.8-1.8,0.8c-0.8,0-1.5-0.6-2.2-0.9C54.2,61,52.8,60.8,52.6,59.3z"/>
		<path fill="#7E7E7E" d="M71.7,55.5c0,0.8,0.1,1.5,0.4,2.2c0.5,1.3,0.3,2.5-0.8,3.5c-0.9-0.4-1.7-0.3-2.6,0
			c-1.1,0.3-2.1,0.4-2.9-0.7c-0.2-0.3-0.4-0.7-0.5-1.1c-0.9-1.1-1.3-2.6-2.4-3.6c-0.4-0.3-0.9-0.9-0.2-1.4c0.7,0,1.1,0.6,1.8,0.6
			c0.8,0,1.8-0.5,1.9,0.9c0,1.2-1.1,2.4,0.2,3.5c0.5,0.4,1,0.5,1.1-0.1c0.3-1.8,1.4-2.6,3-3.1C71.1,56.2,71.4,55.8,71.7,55.5z"/>
		<path fill="#AEAEAE" d="M66.5,56c-0.5-1.2-1.4-0.3-2.1-0.3c0.5-2.4,0.8-4.9,0.6-7.3c0-0.5-0.1-1,0-1.5c0.5-2.7-0.3-4.7-2.9-5.8
			c-0.2-1,0.9-0.2,1.1-0.8c-0.6-0.6-1.2-1.2-1.9-1.9c0.1-0.2,0.3-0.3,0.4-0.5c0.4,0.8,1,1.4,1.7,2c2.3,1.7,3.8,3.8,3.4,6.9
			c-0.1,0.8,0.5,1.5,0.5,2.4C67.2,51.5,66.6,53.7,66.5,56z"/>
		<path fill="#989898" d="M85.5,62.9c-0.2,0.2-0.5,0.5-0.7,0.7c-0.8-0.6,0-1,0.3-1.3c0.7-0.8,1.1-1.3,0.7-2.6
			c-0.5-1.5,0.7-3.2,0.7-4.9c0-0.7,0-1.4,0.1-2.1c-0.2-0.5,0.2-0.8,0.3-1.2c0-1.7,0-3.5,0-5.2c0.6,0.9,1.8,1.7,1,3.1
			c-0.2,0.3,0,0.6,0.2,0.9c0.6,0.7,0.7,1.4,0.7,2.3c-0.2,2.1-0.4,4.3-1.3,6.3C86.8,60.2,87.1,62,85.5,62.9z"/>
		<path fill="#636363" d="M58.6,84.7c-0.6,0.8,0.4,1.4,0.2,2.2c0.5,0.3,0.5,0.6,0,0.9c-0.6,0.2-1.1,0.3-1.2-0.6
			c-0.1-1.1-0.3-2.2-0.6-3.3c-0.1-0.5-0.4-1-1-1c-0.6-0.1-0.6,0.7-0.8,0.8c-1.6,0.8-1.5,2.5-2.4,3.7c-0.6,0.9,0.7,0.9,0.3,1.5
			c-0.2,0-0.3,0-0.3-0.2c-0.4-0.6-1.5-0.9-0.6-1.9c0.2-0.3-0.3-0.5-0.5-0.7c0-0.5,0.2-0.7,0.7-0.8c0.6-0.8,0.1-1.7,0.2-2.5
			c0-0.5,0.2-1.1,0.7-0.7c1.8,1.5,2.1-0.1,2.7-1.2c0.2-0.3,0.4-0.7,0.6-1c1.1,0.1,2.1,0.7,3.1,1.1c0.4,1.4-0.6,1-1.4,1.2
			C58.3,82.9,59,83.8,58.6,84.7z"/>
		<path fill="#C4C4C4" d="M49.9,88.8c0.7,0.1,1.4,0.7,2,1.2c0.6,0.4,1.1,0.5,1.7,0c0-0.6-0.9-0.7-0.7-1.4c0.1,0.1,0.2,0.1,0.3,0.2
			c0.6,0.6,1.2,1.2,0.7,2.3c-0.2,0.5,0.3,1.1,0.7,1.6c-1.6,0-3-0.2-4-1.7"/>
		<path fill="#838383" d="M86.1,44.1c-1.1-1.1-2.2-2.2-3.3-3.2c-0.2-0.1-0.5-0.4-0.5-0.3c-1.4,1-3.6-0.3-4.8,1.6
			c-0.5,0.8-1.4,1.4-2.1,2.2c0.8-1.5,1.7-3.1,2.5-4.6c0.1-0.1,0.3-0.3,0.4-0.2c1.4,1,2.5-0.1,3.7-0.6c0.2-0.1,0.7-0.1,0.8,0.1
			c1,1.7,3,2.6,3.6,4.5C86.3,43.7,86.2,43.9,86.1,44.1z"/>
		<path fill="#AFAFAF" d="M61.7,37.9c-1.1-1.5-2.3-2.8-3.8-3.9c-0.9-0.6-1.8-1-2.7-0.1c-0.2,0.2-0.4,0.4-0.5,0.4
			c-2.6-0.2-1.9,1.9-2.2,3.2c-0.1,0.7-0.1,1.3-0.7,1.8c-0.2-1.8,0.4-3.5,0.4-5.3c0-1.2,1.5-1.4,2.4-1.7c0.8-0.2,2-0.2,2.6,0.3
			C59,34,61.9,34.6,61.7,37.9z"/>
		<path fill="#A7A7A7" d="M70.8,94.5c1.2-0.4,2.2,0.3,3.3,0.5c1.5,0.7,3.3,0.2,4.8,0.9c-1.5,1.4,0.5,1.9,0.7,3
			c-0.6,0-1.2,0.7-1.9,0.1c-1.1-1.5-2.7-2.5-4.5-2.8c-0.8-0.1-1.5-0.3-2.2-0.8C70.7,95.2,70.3,95,70.8,94.5z"/>
		<path fill="#525252" d="M50.3,68.9c1.5,0.8,2.8,2.1,4.6,2.5c0.3,0.1,0.7-0.4,1,0.1c0.1,1.9,0,2-1.4,1.7c-0.1-0.1-0.1-0.3-0.1-0.5
			c0.2-0.1,0.5,0,0.6-0.2c0.3-0.5-0.2-0.5-0.5-0.6c-1.7-0.6-3.5-1.1-4.7-2.6C49.6,68.8,49.9,68.8,50.3,68.9z"/>
		<path fill="#636363" d="M60.3,91.7c1.1,1.3,0.6,2.3-0.7,3.1c-0.1,0-0.3-0.1-0.4-0.1c0.3-0.9,1-1.8,0.4-2.8c0-0.4,0.3-0.5,0.6-0.4
			C60.2,91.5,60.2,91.6,60.3,91.7z"/>
		<path fill="#3A3A3A" d="M52.4,85.2c-0.2,0.3-0.5,0.5-0.7,0.8c-1.1,0.3-1.1-0.4-1-1.1C51.3,84.4,51.9,84.5,52.4,85.2z"/>
		<path fill="#A7A7A7" d="M76.5,101.3c0.8-0.2,1.4,1.2,2.4,0.2c0.2-0.2,0.5,0.6,0.8,0.9C78.5,102.3,77.3,102.4,76.5,101.3z"/>
		<path fill="#3C3C3C" d="M65.6,59.2c0.2,0.4,0.3,0.7,0.5,1.1c0,0.3,0.2,0.5,0.3,0.7c0.4,0.6,0,1.9,0.6,1.9c1.2,0.1,2.3,0.9,3.5,0.4
			c1.1-0.6,0.9-2.1,1.9-2.8c0.2-0.2,0.3-0.6,0.7-0.5c0.4,0.1,0.3,0.6,0.3,0.9c-0.2,1.9-0.7,3.7-2.4,4.9c-0.3-0.6-0.5-0.9-1.3-0.4
			c-1.2,0.8-2.3,1.7-3.5,2.6c1,0.3,1.9,0,2.7-0.7c0.6-0.5,1-1.3,1.9-1.3c0.6,0.5-0.2,1,0.1,1.7c0.8-0.9,1.8-0.7,2.8-0.4
			c0.6,0.2,1.1,0.2,1.5-0.3c1.8-0.2,3.6,0,5.2,0.9c2.2,0.4,3.6,1.7,4.6,3.6c0,0.3,0.1,0.5,0.2,0.8c-0.4,0.3-0.6,0.2-0.6-0.2l0,0
			c-1.1-0.9-2.2-1.8-3.5-2.4c-1.4-0.6-2.6-0.8-4-0.2c-2,0.9-4.2,1.1-6.3,1.6c-1.5,0.1-2.8,1-4.3,1.1c-0.6,0-1-0.3-1.2-0.8
			c-0.2-0.5,0.2-1.5-1-1.1c-0.6,0.2-1.4,0.7-1.7-0.2c-0.3-0.8,0.6-1.1,1-1.5c0.1-0.1,0.2-0.4,0.2-0.4C62,67,63,65.8,63.1,64.6
			c0.3-1.7,0.8-3.4,1.6-4.9C64.9,59.5,65,58.9,65.6,59.2z"/>
		<path fill="#6E6E6E" d="M86.8,51.5c0.1,0.4-0.1,0.8-0.3,1.2c-1.2,1.5-1.6,3.2-2,5c-0.2,1.2-0.8,2.1-1.7,2.8
			c-0.7-0.3,0.2-1.1-0.6-1.2c-0.4,0.7-0.9,0.9-2.9,1.4c0.3-0.7,0.5-1.4-0.1-2c-0.2-0.2-0.2-0.5-0.1-0.8c0.4-1.9,0.9-3.7,0-5.6
			c-0.2-0.3,0.2-0.7,0.4-1.1c0.8-1.2,2.3-1.9,2.4-3.6c0-0.4,0.4-0.6,1-0.5c3,0.5,3,0.5,3,3.6C85.8,51.4,85.8,52,86.8,51.5z"/>
		<path fill="#6B6B6B" d="M80.3,67.8c-1.7-0.3-3.5-0.6-5.2-0.9c-0.6-1,0.4-1.2,0.8-1.7c0.4-0.4,0.8,0.1,1.1,0.3
			c1.9,1.3,3.7,1.1,5.2-0.5c0.4-0.4,0.8-0.9,1.6-0.7c0.6,0.2,0.7-0.4,0.9-0.8c1.1,1-0.1,1.6-0.4,2.2c-0.3,0.5-0.6,1.5-1.8,0.9
			C81.7,66.3,80.8,67.1,80.3,67.8z"/>
		<path fill="#505050" d="M70.6,63.3c-0.5,0.8-1.2,0.9-2,0.4c0,0-0.1-0.1-0.1-0.1c-3.1,0.5-2-1.9-2.4-3.3c0.9,1.3,2.1,0.6,3.2,0.3
			c0.9-0.3,1.6-0.4,2.1,0.6C70.8,61.9,70.1,62.4,70.6,63.3z"/>
		<path fill="#212121" d="M70.8,66c-1.3,1-2.1,2.7-4,2.7c-0.5,0-1.2,0.3-1.5-0.4c-0.3-0.8,0.5-0.8,1-1.1c1.7-1.1,3.3-2.3,5.1-3.5
			c0.2,0.8-0.8,1.3-0.4,2C71,65.8,70.9,65.9,70.8,66z"/>
		<path fill="#353535" d="M88.4,99.5c3.2,2.1,5.4,4.9,7.4,8.1c1.1,1.7,2.1,3.4,2.5,5.5c0.1,0.7,1.3,0.6,0.9,1.8
			c-0.6,1.6-0.8,1.9-2.4,1.2c-0.4-0.2-0.7-0.4-0.9,0.2c-0.4-0.4-1.1-0.4-1.2-1.1c-0.2-2-2-2.6-3.2-3.7c-1.1-1.1-2-2.3-3.3-3.2
			c-1-0.9-1.9-1.8-2.9-2.7c-0.6-0.7-1.3-1.4-1.9-2.1c0.4-0.5,0.9,0.1,1.3-0.2c0-0.1,0.1-0.2,0-0.3"/>
		<path fill="#353535" d="M88.1,101.8c-0.4-0.6-1-1-1.7-1.4c-0.4-0.2-0.9-0.5-0.7-1c0.2-0.5,0.7-0.2,1-0.1c0.6,0.2,1.4,0,1.5,1"/>
		<path fill="#505050" d="M60.5,85.2c-0.2-0.2-0.6-0.4-0.5-0.9c-0.3-1.2,0.8-2.5-0.4-3.5c-0.2-0.3-0.3-0.6-0.3-0.9
			c0-0.5,0.1-1,0.7-1.2c0.5-0.2,0.8,0.1,1.1,0.4c0.7,0.7,2.2,0.4,2.7-0.4c0.3-0.4-0.1-0.6-0.2-0.8c-1.1-1.7-0.9-2.5,1-3.1
			c0.7-0.2,0.8-1.2,1.6-1c0.8,0.1,1.4,1.2,2.4,0.4c1.2-0.1,2.1,0.5,2.9,1.3c0.9,1,2,1.9,1.1,3.5c-0.2,0.2-0.4,0.5-0.7,0.7
			c-0.4,0.8-0.5,1.6,0,2.5c0.4,0.8,0.1,1.6-0.5,2.2c-0.7,0.8-1.8-0.7-2.6,0.6c0.5-1.8-1-2.6-1.7-3.6c-0.5-0.7-1.6-0.7-2.1,0.5
			c-0.4,1-0.9,1.9-1.4,2.8c-0.1,0.2-0.4,0.7-0.8,0.4c-0.3-0.2-0.2-0.5,0.1-0.8c0.6-0.7,0.2-1.4,0-2.2C62.5,83.2,62.2,84.7,60.5,85.2
			z"/>
		<path fill="#A9A9A9" d="M72.7,78.8c0.2-1.4-0.4-2.4-1.3-3.3c0-0.2,0.1-0.4,0.2-0.3c1.6,0.4,1.4-0.5,1-1.4c-0.2-0.5-0.7-1-0.1-1.5
			c0.5-0.5,1-0.2,1.6,0c0.3,0.1,0.6,0.2,1,0.3c2.7,0.7,2.9,3.2,3.3,5.2c0.2,1,0.7,2.4-0.3,3.5c-0.8-0.5-1.7-0.9-2.8-0.8
			c-0.9,0.1-2-0.1-2-1.6C73.3,78.4,72.9,78.7,72.7,78.8z"/>
		<path fill="#C5C5C5" d="M71.5,84.3c0.1-1.1,0.7-2.1-0.4-3.1c-0.4-0.3,0.2-1.3,1-1.6c0.6,1.5,1.9,1.9,3.3,1.7
			c0.9-0.1,1.7,0,1.9,0.8c0.2,1,1,2.1,0.1,3.2c-1.4,1.7-2.2,1.8-4,0.4C72.7,85.2,72.1,84.7,71.5,84.3z"/>
		<path fill="#696969" d="M78,81.2c0.4-2.5-0.4-4.8-1.2-7.1c-0.2-0.7-1.1-1-1.9-1.2c-0.4-0.2-0.4-0.5-0.4-0.8
			c0.1-0.2,0.2-0.4,0.4-0.5c1.5-0.5,5.1,1.3,5.7,2.8c0,0.1,0.3-0.2,0.4-0.1c0,0.1,0.1,0.2,0.1,0.2c-1.4,1.3-1.8,3-1.9,4.8
			c-0.1,1.4-0.5,2.8-0.4,4.3c0,0.5,0.6,1.4-0.6,1.5C78.7,83.7,77.9,82.5,78,81.2z"/>
		<path fill="#525252" d="M56.4,78.3c-1.6-0.2-2.8,0.8-4,1.5c-0.4,0.2-0.7,0.8-1.3,0.5c0.1-2.3,3.1-2.1,3.5-4.2
			c-1.6-0.5-3,0.6-4.5,0.4c-1.5-0.5-3.3-0.7-3.6-2.7c0.5-0.4,1-0.1,1.5,0.2c1.3,0.7,2.7,0.7,4.1,0.7c0.8,0,2.2,0,1.3-1.6
			c-0.2-0.3,0-0.6,0.1-0.9c0.3,0.2,0.6,0.4,1,0.6c0,0.1,0,0.1,0,0.2c0.3,0.7,0.4,1.4,1.2,1.9C56.1,75.2,56.7,77.8,56.4,78.3z"/>
		<path fill="#515151" d="M65.6,59.2c-1.2,1.7-1.6,3.6-2.1,5.5c-1.1,0.3-1.6-0.5-2.2-1.1c-0.5-0.4-0.9-0.9-1.4-1.4
			c-1-1.7-2.7-2.8-3.9-4.4c-0.1-0.1-0.1-0.2-0.2-0.3c0.1-0.7,0.4-1.6,0.1-2.2c-0.8-1.6-0.1-2.2,1.4-2.7c1-0.3,2.1-0.5,2.9-1.5
			c0.6-0.6,1.7-0.2,1.8,1.1c0.6,0.6,0.9,1.3,0.7,2.2c0,0.5,0.3,1,0.7,1.2C64.5,56.7,64.7,58.2,65.6,59.2z"/>
		<path fill="#F8F8F8" d="M62.6,54.6c-0.2-0.7-0.5-1.5-0.7-2.2c0.4-2.3,0.5-4.6,0.1-6.9c-0.2-1.5-0.4-3-0.1-4.4
			c1.9,0.2,3,1.3,3.3,3.1c0.4,2.1-0.5,4.3,0.4,6.4c-1.3,1.5,0.4,3.8-1.4,5.2C63.8,55.3,63.2,55,62.6,54.6z"/>
		<path fill="#999999" d="M55.9,57.9c1.4,1.3,2.7,2.7,4.1,4c0.6,0.8,0.9,1.5,0.5,2.5c-0.5,1.3,0.2,2.7-0.2,4.2
			c0.7-0.8,2.5-0.8,3.5-0.1c-0.3,0.2-0.5,0.5-0.8,0.6c-0.3,0.2-0.6,0.4-0.4,0.8c0.2,0.4,0.6,0.1,0.8,0c1.6-0.5,2-0.3,1.8,1.1
			c0,0.2-0.1,0.3-0.3,0.3c-1.2-0.6-2.5,0.3-3.8-0.1c0-0.1,0-0.3,0.1-0.3c0.2,0,0.3-0.2,0.1-0.1c-1.5,0.6-3.4-0.5-4.7,1
			c-0.3,0.3-0.9,0.3-1-0.4c-0.3,0-0.6-0.1-0.9-0.1c0-1.6-0.7-2.6-2.3-3.1c-1.8-0.6-3.6-1.3-5.1-2.7c-2.5-2.4-4.8-4.8-7.3-7.2
			c-0.5-0.5-0.7-1-0.6-1.8c0.1-1.3,0.1-2.6,0.3-4c0.5,1.7,2.2,2.5,2.9,4c0.2,0.5,0.7,0.6,1.3,0.7c1.4,0.2,2.5,0.9,3.5,1.8
			c0.9,0.8,1.7,0.8,2.5,0c1.3,0.7,1.2,2.2,1.8,3.2c0.2,0.2,0.2-0.2,0-0.1c0,0.1-0.1,0-0.1-0.1c-0.1-0.2-0.2-0.4-0.2-0.6
			c-0.2-0.6-0.6-1.3,0.1-1.7c0.6-0.4,1.1,0.2,1.6,0.5c1.7,1.2,3.3,2.5,4.1,4.3c-0.1-1.3-1.8-1.8-2.1-3.2c0.7,0.3,1.3,0.6,2,0.8
			c0.5,0.1,1.2,0,1.5-0.6c0.3-0.5-0.3-0.7-0.6-1.1C57.5,59.6,56.3,59.1,55.9,57.9z"/>
		<path fill="#606060" d="M55.3,61.4c1,1.1,2.3,2,2.7,3.6c0.1,0.4,0.3,0.8-0.2,1c-0.5,0.1-0.5-0.3-0.6-0.6c-0.8-2.2-2.4-3.7-4.3-4.9
			c-0.3-0.2-0.6-0.7-1-0.4c-0.4,0.3-0.2,0.8-0.1,1.3c0.1,0.5,0.3,1,0.2,1.6c-0.6-1.3-1.2-2.6-1.8-3.8c0.9-0.8,1.7,0.5,2.5,0.3
			C53.5,60,54.4,60.7,55.3,61.4z"/>
		<path fill="#4D4D4D" d="M81.1,74.3c-0.9,1.1-0.6-1.2-1.4-0.5c-0.7-1.5-2.3-1.2-3.5-1.6c-0.5-0.2-1-0.9-1.6-0.1
			c-1.4,0.4-2.5-0.6-3.8-0.6c-0.3,0-0.4-0.5-0.4-0.9c2.1-0.5,4.3-1,6.4-1.5c1.7-0.4,2.9,0.4,4.1,1.4c0.5,0.4,0.8,0.9,0.6,1.6
			c-0.3,0.5-0.7,0.4-1.1,0c0,0.4,0.4,0.5,0.5,0.8c0,0.1,0.1,0.3,0,0.5C81.1,73.7,81.1,74,81.1,74.3z"/>
		<path fill="#ADADAD" d="M81.1,73.4c0-0.1-0.1-0.2-0.1-0.2c-0.2-0.5,0.4-0.6,0.4-1c-0.1-1.1-1.8-2.6-3.2-2.8
			c-0.4,0-0.9,0.2-1.2-0.3c2.3-1.3,6.2,0.1,7.5,2.8C83.3,72.2,82,72.4,81.1,73.4z"/>
		<path fill="#ADADAD" d="M84.5,71.9c0.2,0.1,0.4,0.2,0.6,0.2c0.7,0.4,0.8,1,0.4,2C85,73.3,83.9,73.1,84.5,71.9z"/>
		<path fill="#2A2A2A" d="M55.8,71.5c1.9-0.9,4-0.8,5.9-1.1c0.1,0,0.1,0,0.2,0c0,0.5-0.5,0.5-0.7,0.8c-0.2,0.2,0,0.4,0,0.6
			c0.6,0.7,1.3,1.4,2.3,1.5c0.6-0.1,1.2-0.4,1.8-0.2c0.4,0.1,0.7,0.2,1,0.6c0,0.1,0,0.2,0,0.2c-0.2,1-0.9,1.3-1.9,1.3
			c-0.5,0-0.9,0.3-0.9,0.8c0,0.6-0.1,1.4,0.7,1.7c1.2,0.4,0.5,1,0.1,1.4c-1.4,1.2-2.2,1.2-3.4,0c-0.4-0.4-1-0.4-1.1,0.3
			c-0.1,0.4,0.1,0.9,0.1,1.3c0.1,0.1,0,0.2,0,0.2C59.7,81,59.7,81,59.7,81c-1.3,0.1-2.2-0.5-3.1-1.2c0-0.5-0.1-1-0.1-1.5
			c0.2-0.2,0.2-0.7,0.1-0.7c-1.1-0.1-0.9-0.7-0.7-1.5c0.1-0.4,0-1-0.4-1c-1.8,0-0.8-1.4-1-2.1C56.3,73.9,55.1,71.9,55.8,71.5z"/>
		<path fill="#F7F7F7" d="M70.8,94.5c0.5,0.9,1.4,1.2,2.3,1.3c2.2,0.1,3.6,1.6,5,3c-0.1,0.1-0.3,0.2-0.4,0.3
			c-0.4-0.2-0.8-0.4-1.2-0.7c-0.9-0.7-2-0.5-3-0.7c-3.3-0.8-6.1-2.8-9.2-4c-1.4-0.5-2.9-0.7-4-1.9l0,0c0-0.4,0.3-0.5,0.7-0.5
			c0.6,0.1,1.2,0.3,1.8,0.4c0.2,0,0.4-0.1,0.2-0.1c0,0,0-0.1-0.1-0.1c-0.4-0.3-0.9-0.5-1.4-0.7c-0.9-0.3-1.9-0.6-2.4-1.6
			c-0.2-0.4-0.7-0.7-0.3-1.3c0.3-0.3,0.1-0.6,0-0.9c1.3-0.1,2.1,0.8,2.9,1.6c2.5,2.4,5.2,4.4,8.5,5.5C70.5,94,70.6,94.3,70.8,94.5z"
			/>
		<path fill="#636363" d="M59.1,89.1c0.9,0.3,1.6,1.1,2.6,1.2c0.2,0.6,0,0.8-0.6,0.8c-0.6,0.1-1.3,0.1-1.8,0.6
			c-1-0.1-1.2-0.8-0.7-1.5C58.9,89.8,59.1,89.5,59.1,89.1z"/>
		<path fill="#A7A7A7" d="M59.3,91.7c-0.1-0.8,0.7-0.5,1-0.7c0.4-0.2,1.2,0.1,1.3-0.7c0.6,0.3,1.3,0.5,1.7,1.2
			c-0.8,0.8-1.6-0.2-2.4,0c-0.3-0.1-0.6,0-0.8,0.3c-0.2,0.1-0.5,0.1-0.7,0.2C59.5,91.8,59.4,91.8,59.3,91.7z"/>
		<path fill="#AFAFAF" d="M59.7,81c0.1-0.1,0.1-0.2,0.1-0.3c1.7,1.1,0.6,2.4,0.2,3.6c-0.6-0.3-1,0.1-1.4,0.4
			c-0.2-0.6-0.3-1.3-0.5-1.9c-0.4-1.3-0.5-1.3,0.7-1.1C59.2,81.8,59.7,81.6,59.7,81z"/>
		<path fill="#767676" d="M63.9,68.6c-0.5-0.5-0.9,0.1-1.4,0.2c-0.3,0-0.9,0.7-0.8-0.4c0.1-0.5-0.5-0.2-0.7,0
			c-0.3,0.3-0.4,0.8-0.8,1.1c0.3-1.9-0.7-3.9,0.2-5.8c0.4-0.8-0.4-1.1-0.3-1.7c1.1,0.9,1.9,2.3,3.4,2.8c0.1,0.4,0,0.7-0.1,1.1
			c-0.1,0.4-1.4,1.4,0.5,1.2C64,67,64.3,68,63.9,68.6z"/>
		<path fill="#939393" d="M70.5,70.6c1.2,1,2.8,0.9,4.1,1.5c0.1,0.3,0.1,0.5,0.2,0.8c-0.3-0.1-0.5-0.1-0.8-0.2
			c-0.5-0.1-0.9-0.7-1.4-0.3c-0.6,0.5,0.6,0.9,0.3,1.4c-0.6,0.1-1-0.4-1.4-0.7c-1.4-0.9-2,0.4-2.9,1.1c-0.1,0.6-0.4,1-1.1,0.6
			c-0.5-0.3-0.9-0.7-1.3-1l0,0c0.9-0.6-0.4-1.5,0.3-2.1C67.9,71.4,69.1,70.7,70.5,70.6z"/>
		<path fill="#505050" d="M66.6,71.7c-0.3,0.8,0,1.2,1.1,1c-0.6,0.5-1,0.8-1.4,1c-0.3-0.2-0.6-0.4-1-0.5c-0.5-0.6-1.3-1.3-0.1-2
			c0-0.1,0.1-0.2,0.1-0.3C65.7,71.3,66,71.8,66.6,71.7z"/>
		<path fill="#D6D6D6" d="M68.7,74.2c0.2-0.6,0.2-1.2-0.1-1.5c1.6-0.3,3.3-0.6,4.5,1.1c0.4,0.4,0.3,0.9,0.2,1.4
			c-0.2,0.8-0.3,1.4-1.1,0.4c-0.2-0.2-0.5-0.2-0.7,0C70.5,75,69.6,74.5,68.7,74.2z"/>
		<path fill="#ACACAC" d="M65.7,75.5c0.7,2,3.2,1.7,3.9,3.5c0.2,0.4,0.7,0.9,0.3,1.3c-0.5,0.4-0.7-0.4-1-0.5c-0.7-0.4-1.4-0.7-2.1-1
			C65.2,78.1,65,77.2,65.7,75.5z"/>
		<path fill="#ADADAD" d="M65.2,71.3c-0.9,0.7,0.3,1.3,0.1,2c-0.6-0.2-1.1,0.3-1.7,0.3c-1.2-0.4-2.1-1.1-2.7-2.2
			c-0.1-0.3,0-0.4,0.3-0.3C62.5,70.7,63.9,70.2,65.2,71.3z"/>
		<path fill="#696969" d="M81.4,72.2c0.1,0.4-0.2,0.7-0.4,1c-0.5-0.5-1.4-0.8-0.8-1.8C80.9,71.1,80.6,72.5,81.4,72.2z"/>
		<path fill="#999999" d="M60.9,71.4c0.9,0.7,1.6,1.6,2.7,2.2c-1.5,0.1-2.2-1.1-3.1-1.9C60.6,71.6,60.8,71.5,60.9,71.4z"/>
		<path fill="#B0B0B0" d="M61,91.4c0.8-0.6,1.6,0.4,2.4,0c0.5,0,0.6,0.4,0.1,0.5C62.7,92.1,61.8,92,61,91.4z"/>
	</g>
</g>
</svg>
