<?xml version="1.0" encoding="utf-8"?>
<!-- Generator: Adobe Illustrator 17.0.0, SVG Export Plug-In . SVG Version: 6.00 Build 0)  -->
<!DOCTYPE svg PUBLIC "-//W3C//DTD SVG 1.1//EN" "http://www.w3.org/Graphics/SVG/1.1/DTD/svg11.dtd" [
	<!ENTITY ns_flows "http://ns.adobe.com/Flows/1.0/">
	<!ENTITY ns_extend "http://ns.adobe.com/Extensibility/1.0/">
	<!ENTITY ns_ai "http://ns.adobe.com/AdobeIllustrator/10.0/">
	<!ENTITY ns_graphs "http://ns.adobe.com/Graphs/1.0/">
]>
<svg version="1.1" id="Layer_1" xmlns:x="&ns_extend;" xmlns:i="&ns_ai;" xmlns:graph="&ns_graphs;"
	 xmlns="http://www.w3.org/2000/svg" xmlns:xlink="http://www.w3.org/1999/xlink" xmlns:a="http://ns.adobe.com/AdobeSVGViewerExtensions/3.0/"
	 x="0px" y="0px" width="90.5px" height="40px" viewBox="0 0 90.5 40" enable-background="new 0 0 90.5 40" xml:space="preserve">
<g>
	<g>
		<path fill="#FFFFFF" d="M46.1,33.4c0,0-0.1,0.2-0.3,0.4c-0.2,0.2-0.4,0.5-0.8,0.9c-0.3,0.3-0.7,0.7-1.2,1.1
			c-0.5,0.4-1.1,0.8-1.7,1.1c-0.7,0.3-1.4,0.6-2.2,0.8c-0.8,0.2-1.7,0.3-2.8,0.3c-1.6,0-3-0.2-4.4-0.6c-1.4-0.4-2.7-0.9-4-1.5
			c-1.3-0.6-2.5-1.3-3.7-2c-1.2-0.7-2.5-1.5-3.8-2.2c-0.8,1.3-1.7,2.4-2.7,3.2s-2.1,1.5-3.2,1.9c-1.1,0.5-2.2,0.8-3.3,0.9
			c-1.1,0.2-2.1,0.3-3,0.3c-0.9,0-1.8-0.1-2.7-0.3s-1.7-0.5-2.4-0.9s-1.3-1-1.8-1.7c-0.5-0.7-0.7-1.5-0.7-2.6c0-1,0.2-1.8,0.7-2.6
			c0.4-0.8,1-1.4,1.8-2s1.7-1,2.7-1.3c1.1-0.3,2.2-0.4,3.4-0.4c0.9,0,1.8,0.1,2.7,0.2c0.9,0.2,1.8,0.4,2.6,0.6
			c0.9,0.3,1.7,0.6,2.5,0.9c0.8,0.3,1.6,0.7,2.3,1c0.1-0.3,0.2-0.6,0.3-0.9c0.1-0.3,0.1-0.6,0.2-0.9c0.1-0.3,0.1-0.7,0.1-1.1
			c0-0.4,0-0.9,0-1.5c0-0.5,0-1,0-1.5c0-0.5,0-1-0.1-1.6s0-1.2-0.1-1.9c0-0.7,0-1.6,0-2.6c0-2.3,0.2-4.4,0.7-6.2
			c0.4-1.9,1.1-3.5,2-4.8c0.9-1.3,2-2.4,3.3-3.1s2.8-1.1,4.6-1.1c1.1,0,2.1,0.2,3,0.5c0.9,0.3,1.8,0.8,2.5,1.4
			c0.7,0.6,1.3,1.4,1.7,2.2C39,7,39.2,7.9,39.2,9c0,0.6-0.1,1.2-0.2,1.8c-0.2,0.6-0.4,1.2-0.7,1.7c-0.3,0.5-0.6,0.9-1,1.3
			s-0.7,0.5-1.1,0.5c-0.2,0-0.4-0.1-0.6-0.2c-0.2-0.1-0.3-0.3-0.3-0.6c0-0.2,0-0.4,0.1-0.5c0.1-0.1,0.2-0.3,0.3-0.4
			c0.5-0.4,0.8-0.9,1.1-1.5c0.3-0.6,0.4-1.3,0.4-2.1c0-0.8-0.2-1.5-0.5-2.2c-0.3-0.6-0.8-1.2-1.3-1.7s-1.2-0.8-1.9-1.1
			c-0.7-0.2-1.5-0.4-2.3-0.4c-1.5,0-2.8,0.3-3.9,1c-1.1,0.7-2,1.6-2.7,2.8s-1.3,2.6-1.6,4.3c-0.3,1.7-0.5,3.6-0.5,5.6
			c0,1,0,1.9,0,2.6c0,0.8,0,1.4,0.1,2.1s0,1.2,0.1,1.8c0,0.6,0,1.1,0,1.7c0,0.3,0,0.7,0,1.1c0,0.4-0.1,0.8-0.1,1.2
			c-0.1,0.4-0.1,0.8-0.3,1.2c-0.1,0.4-0.2,0.7-0.3,1.1c1.2,0.6,2.4,1.3,3.6,2s2.4,1.4,3.6,2c1.2,0.6,2.5,1.1,3.8,1.5
			c1.3,0.4,2.7,0.6,4.1,0.6c1.3,0,2.4-0.2,3.3-0.6c0.9-0.4,1.7-0.8,2.3-1.3c0.6-0.5,1.1-0.9,1.4-1.3c0.3-0.4,0.5-0.6,0.5-0.6
			c0.2-0.3,0.4-0.4,0.8-0.4c0.3,0,0.5,0.1,0.7,0.3c0.2,0.2,0.3,0.4,0.3,0.6C46.3,33.1,46.2,33.2,46.1,33.4z M19.7,30.9
			c-0.7-0.3-1.4-0.7-2.2-1S16,29.2,15.2,29s-1.6-0.5-2.5-0.6c-0.8-0.2-1.7-0.2-2.5-0.2c-0.9,0-1.8,0.1-2.7,0.3
			c-0.8,0.2-1.6,0.5-2.2,0.9c-0.6,0.4-1.1,0.8-1.5,1.4s-0.5,1.2-0.5,1.8c0,0.6,0.2,1.2,0.5,1.7s0.7,0.9,1.3,1.2s1.2,0.5,1.9,0.7
			c0.7,0.2,1.4,0.2,2.2,0.2c0.9,0,1.9-0.1,2.9-0.2c1-0.2,1.9-0.4,2.9-0.8c0.9-0.4,1.8-1,2.6-1.7C18.4,32.9,19.1,32,19.7,30.9z"/>
		<path fill="#FF9933" d="M90.4,33.4c0,0-0.1,0.2-0.3,0.4s-0.4,0.5-0.8,0.9c-0.3,0.3-0.7,0.7-1.2,1.1s-1.1,0.8-1.7,1.1
			c-0.7,0.3-1.4,0.6-2.2,0.8c-0.8,0.2-1.7,0.3-2.8,0.3c-1.6,0-3-0.2-4.4-0.6c-1.4-0.4-2.7-0.9-4-1.5c-1.3-0.6-2.5-1.3-3.7-2
			c-1.2-0.7-2.5-1.5-3.8-2.2c-0.8,1.3-1.7,2.4-2.7,3.2s-2.1,1.5-3.2,1.9c-1.1,0.5-2.2,0.8-3.3,0.9c-1.1,0.2-2.1,0.3-3,0.3
			c-0.9,0-1.8-0.1-2.7-0.3s-1.7-0.5-2.4-0.9s-1.3-1-1.8-1.7c-0.5-0.7-0.7-1.5-0.7-2.6c0-1,0.2-1.8,0.7-2.6c0.4-0.8,1-1.4,1.8-2
			s1.7-1,2.7-1.3c1.1-0.3,2.2-0.4,3.4-0.4c0.9,0,1.8,0.1,2.7,0.2c0.9,0.2,1.8,0.4,2.6,0.6c0.9,0.3,1.7,0.6,2.5,0.9
			c0.8,0.3,1.6,0.7,2.3,1c0.1-0.3,0.2-0.6,0.3-0.9c0.1-0.3,0.1-0.6,0.2-0.9c0.1-0.3,0.1-0.7,0.1-1.1c0-0.4,0-0.9,0-1.5
			c0-0.5,0-1,0-1.5c0-0.5,0-1-0.1-1.6s0-1.2-0.1-1.9c0-0.7,0-1.6,0-2.6c0-2.3,0.2-4.4,0.7-6.2c0.4-1.9,1.1-3.5,2-4.8
			c0.9-1.3,2-2.4,3.3-3.1s2.8-1.1,4.6-1.1c1.1,0,2.1,0.2,3,0.5s1.8,0.8,2.5,1.4s1.3,1.4,1.7,2.2C83.2,7,83.4,7.9,83.4,9
			c0,0.6-0.1,1.2-0.2,1.8c-0.2,0.6-0.4,1.2-0.7,1.7c-0.3,0.5-0.6,0.9-1,1.3s-0.7,0.5-1.1,0.5c-0.2,0-0.4-0.1-0.6-0.2
			c-0.2-0.1-0.3-0.3-0.3-0.6c0-0.2,0-0.4,0.1-0.5c0.1-0.1,0.2-0.3,0.3-0.4c0.5-0.4,0.8-0.9,1.1-1.5s0.4-1.3,0.4-2.1
			c0-0.8-0.2-1.5-0.5-2.2c-0.3-0.6-0.8-1.2-1.3-1.7c-0.6-0.5-1.2-0.8-1.9-1.1c-0.7-0.2-1.5-0.4-2.3-0.4c-1.5,0-2.8,0.3-3.9,1
			c-1.1,0.7-2,1.6-2.7,2.8s-1.3,2.6-1.6,4.3c-0.3,1.7-0.5,3.6-0.5,5.6c0,1,0,1.9,0,2.6c0,0.8,0,1.4,0.1,2.1s0,1.2,0.1,1.8
			c0,0.6,0,1.1,0,1.7c0,0.3,0,0.7,0,1.1c0,0.4-0.1,0.8-0.1,1.2c-0.1,0.4-0.1,0.8-0.3,1.2c-0.1,0.4-0.2,0.7-0.3,1.1
			c1.2,0.6,2.4,1.3,3.6,2s2.4,1.4,3.6,2s2.5,1.1,3.8,1.5c1.3,0.4,2.7,0.6,4.1,0.6c1.3,0,2.4-0.2,3.3-0.6c0.9-0.4,1.7-0.8,2.3-1.3
			c0.6-0.5,1.1-0.9,1.4-1.3c0.3-0.4,0.5-0.6,0.5-0.6c0.2-0.3,0.4-0.4,0.8-0.4c0.3,0,0.5,0.1,0.7,0.3c0.2,0.2,0.3,0.4,0.3,0.6
			C90.5,33.1,90.5,33.2,90.4,33.4z M63.9,30.9c-0.7-0.3-1.4-0.7-2.2-1s-1.5-0.6-2.3-0.9s-1.6-0.5-2.5-0.6c-0.8-0.2-1.7-0.2-2.5-0.2
			c-0.9,0-1.8,0.1-2.7,0.3c-0.8,0.2-1.6,0.5-2.2,0.9c-0.6,0.4-1.1,0.8-1.5,1.4s-0.5,1.2-0.5,1.8c0,0.6,0.2,1.2,0.5,1.7
			s0.7,0.9,1.3,1.2s1.2,0.5,1.9,0.7c0.7,0.2,1.4,0.2,2.2,0.2c0.9,0,1.9-0.1,2.9-0.2c1-0.2,1.9-0.4,2.9-0.8c0.9-0.4,1.8-1,2.6-1.7
			C62.6,32.9,63.3,32,63.9,30.9z"/>
	</g>
</g>
</svg>
