<?xml version="1.0" encoding="utf-8"?>
<!-- Generator: Adobe Illustrator 17.0.0, SVG Export Plug-In . SVG Version: 6.00 Build 0)  -->
<!DOCTYPE svg PUBLIC "-//W3C//DTD SVG 1.1//EN" "http://www.w3.org/Graphics/SVG/1.1/DTD/svg11.dtd">
<svg version="1.1" id="Layer_1" xmlns="http://www.w3.org/2000/svg" xmlns:xlink="http://www.w3.org/1999/xlink" x="0px" y="0px"
	 width="75px" height="31.25px" viewBox="7.5 4.25 75 31.25" enable-background="new 7.5 4.25 75 31.25" xml:space="preserve">
<g>
	<g>
		<path fill="#FFFFFF" d="M45.331,30.968c0,0-0.081,0.162-0.243,0.324s-0.324,0.405-0.648,0.728
			c-0.243,0.243-0.567,0.567-0.971,0.89c-0.405,0.324-0.89,0.648-1.376,0.89c-0.567,0.243-1.133,0.486-1.781,0.648
			c-0.648,0.162-1.376,0.243-2.266,0.243c-1.295,0-2.428-0.162-3.561-0.486c-1.133-0.324-2.185-0.728-3.238-1.214
			s-2.024-1.052-2.995-1.619c-0.971-0.567-2.024-1.214-3.076-1.781c-0.648,1.052-1.376,1.943-2.185,2.59
			c-0.809,0.648-1.7,1.214-2.59,1.538c-0.89,0.405-1.781,0.648-2.671,0.728c-0.89,0.162-1.7,0.243-2.428,0.243
			s-1.457-0.081-2.185-0.243c-0.728-0.162-1.376-0.405-1.943-0.728c-0.567-0.324-1.052-0.809-1.457-1.376
			c-0.405-0.567-0.567-1.214-0.567-2.104c0-0.809,0.162-1.457,0.567-2.104c0.324-0.648,0.809-1.133,1.457-1.619
			s1.376-0.809,2.185-1.052c0.89-0.243,1.781-0.324,2.752-0.324c0.728,0,1.457,0.081,2.185,0.162
			c0.728,0.162,1.457,0.324,2.104,0.486c0.728,0.243,1.376,0.486,2.024,0.728s1.295,0.567,1.862,0.809
			c0.081-0.243,0.162-0.486,0.243-0.728c0.081-0.243,0.081-0.486,0.162-0.728s0.081-0.567,0.081-0.89c0-0.324,0-0.728,0-1.214
			c0-0.405,0-0.809,0-1.214c0-0.405,0-0.809-0.081-1.295s0-0.971-0.081-1.538c0-0.567,0-1.295,0-2.104
			c0-1.862,0.162-3.561,0.567-5.018c0.324-1.538,0.89-2.833,1.619-3.885s1.619-1.943,2.671-2.509s2.266-0.89,3.723-0.89
			c0.89,0,1.7,0.162,2.428,0.405s1.457,0.648,2.024,1.133s1.052,1.133,1.376,1.781c0.567,0.971,0.728,1.7,0.728,2.59
			c0,0.486-0.081,0.971-0.162,1.457c-0.162,0.486-0.324,0.971-0.567,1.376c-0.243,0.405-0.486,0.728-0.809,1.052
			c-0.324,0.324-0.567,0.405-0.89,0.405c-0.162,0-0.324-0.081-0.486-0.162c-0.162-0.081-0.243-0.243-0.243-0.486
			c0-0.162,0-0.324,0.081-0.405s0.162-0.243,0.243-0.324c0.405-0.324,0.648-0.728,0.89-1.214c0.243-0.486,0.324-1.052,0.324-1.7
			s-0.162-1.214-0.405-1.781c-0.243-0.486-0.648-0.971-1.052-1.376c-0.405-0.405-0.971-0.648-1.538-0.89
			c-0.567-0.162-1.214-0.324-1.862-0.324c-1.214,0-2.266,0.243-3.157,0.809c-0.89,0.567-1.619,1.295-2.185,2.266
			s-1.052,2.104-1.295,3.48s-0.405,2.914-0.405,4.533c0,0.809,0,1.538,0,2.104c0,0.648,0,1.133,0.081,1.7
			c0.081,0.567,0,0.971,0.081,1.457c0,0.486,0,0.89,0,1.376c0,0.243,0,0.567,0,0.89s-0.081,0.648-0.081,0.971
			c-0.081,0.324-0.081,0.648-0.243,0.971c-0.081,0.324-0.162,0.567-0.243,0.89c0.971,0.486,1.943,1.052,2.914,1.619
			c0.971,0.567,1.943,1.133,2.914,1.619c0.971,0.486,2.024,0.89,3.076,1.214c1.052,0.324,2.185,0.486,3.319,0.486
			c1.052,0,1.943-0.162,2.671-0.486c0.728-0.324,1.376-0.648,1.862-1.052c0.486-0.405,0.89-0.728,1.133-1.052
			c0.243-0.324,0.405-0.486,0.405-0.486c0.162-0.243,0.324-0.324,0.648-0.324c0.243,0,0.405,0.081,0.567,0.243
			s0.243,0.324,0.243,0.486C45.493,30.725,45.412,30.806,45.331,30.968z M23.962,28.944c-0.567-0.243-1.133-0.567-1.781-0.809
			c-0.648-0.243-1.214-0.567-1.862-0.728s-1.295-0.405-2.024-0.486c-0.648-0.162-1.376-0.162-2.024-0.162
			c-0.728,0-1.457,0.081-2.185,0.243c-0.648,0.162-1.295,0.405-1.781,0.728c-0.486,0.324-0.89,0.648-1.214,1.133
			c-0.324,0.486-0.405,0.971-0.405,1.457c0,0.486,0.162,0.971,0.405,1.376c0.243,0.405,0.567,0.728,1.052,0.971
			c0.486,0.243,0.971,0.405,1.538,0.567c0.567,0.162,1.133,0.162,1.781,0.162c0.728,0,1.538-0.081,2.347-0.162
			c0.809-0.162,1.538-0.324,2.347-0.648c0.728-0.324,1.457-0.809,2.104-1.376C22.91,30.563,23.477,29.834,23.962,28.944z"/>
		<path fill="#FF9933" d="M81.188,30.968c0,0-0.081,0.162-0.243,0.324s-0.324,0.405-0.648,0.728
			c-0.243,0.243-0.567,0.567-0.971,0.89s-0.89,0.648-1.376,0.89c-0.567,0.243-1.133,0.486-1.781,0.648
			c-0.648,0.162-1.376,0.243-2.266,0.243c-1.295,0-2.428-0.162-3.561-0.486c-1.133-0.324-2.185-0.728-3.238-1.214
			c-1.052-0.486-2.024-1.052-2.995-1.619s-2.024-1.214-3.076-1.781c-0.648,1.052-1.376,1.943-2.185,2.59s-1.7,1.214-2.59,1.538
			c-0.89,0.405-1.781,0.648-2.671,0.728c-0.89,0.162-1.7,0.243-2.428,0.243c-0.728,0-1.457-0.081-2.185-0.243
			s-1.376-0.405-1.943-0.728c-0.567-0.324-1.052-0.809-1.457-1.376s-0.567-1.214-0.567-2.104c0-0.809,0.162-1.457,0.567-2.104
			c0.324-0.648,0.809-1.133,1.457-1.619c0.648-0.486,1.376-0.809,2.185-1.052c0.89-0.243,1.781-0.324,2.752-0.324
			c0.728,0,1.457,0.081,2.185,0.162c0.728,0.162,1.457,0.324,2.104,0.486c0.728,0.243,1.376,0.486,2.024,0.728
			s1.295,0.567,1.862,0.809c0.081-0.243,0.162-0.486,0.243-0.728c0.081-0.243,0.081-0.486,0.162-0.728
			c0.081-0.243,0.081-0.567,0.081-0.89c0-0.324,0-0.728,0-1.214c0-0.405,0-0.809,0-1.214c0-0.405,0-0.809-0.081-1.295
			c-0.081-0.486,0-0.971-0.081-1.538c0-0.567,0-1.295,0-2.104c0-1.862,0.162-3.561,0.567-5.018c0.324-1.538,0.89-2.833,1.619-3.885
			s1.619-1.943,2.671-2.509c1.052-0.567,2.266-0.89,3.723-0.89c0.89,0,1.7,0.162,2.428,0.405c0.728,0.243,1.457,0.648,2.024,1.133
			s1.052,1.133,1.376,1.781c0.486,0.971,0.648,1.7,0.648,2.59c0,0.486-0.081,0.971-0.162,1.457
			c-0.162,0.486-0.324,0.971-0.567,1.376c-0.243,0.405-0.486,0.728-0.809,1.052c-0.324,0.324-0.567,0.405-0.89,0.405
			c-0.162,0-0.324-0.081-0.486-0.162c-0.162-0.081-0.243-0.243-0.243-0.486c0-0.162,0-0.324,0.081-0.405s0.162-0.243,0.243-0.324
			c0.405-0.324,0.648-0.728,0.89-1.214c0.243-0.486,0.324-1.052,0.324-1.7s-0.162-1.214-0.405-1.781
			c-0.243-0.486-0.648-0.971-1.052-1.376c-0.486-0.405-0.971-0.648-1.538-0.89c-0.567-0.162-1.214-0.324-1.862-0.324
			c-1.214,0-2.266,0.243-3.157,0.809C65,8.223,64.271,8.951,63.705,9.923s-1.052,2.104-1.295,3.48
			c-0.243,1.376-0.405,2.914-0.405,4.533c0,0.809,0,1.538,0,2.104c0,0.648,0,1.133,0.081,1.7c0.081,0.567,0,0.971,0.081,1.457
			c0,0.486,0,0.89,0,1.376c0,0.243,0,0.567,0,0.89s-0.081,0.648-0.081,0.971c-0.081,0.324-0.081,0.648-0.243,0.971
			c-0.081,0.324-0.162,0.567-0.243,0.89c0.971,0.486,1.943,1.052,2.914,1.619c0.971,0.567,1.943,1.133,2.914,1.619
			s2.024,0.89,3.076,1.214c1.052,0.324,2.185,0.486,3.319,0.486c1.052,0,1.943-0.162,2.671-0.486
			c0.728-0.324,1.376-0.648,1.862-1.052c0.486-0.405,0.89-0.728,1.133-1.052c0.243-0.324,0.405-0.486,0.405-0.486
			c0.162-0.243,0.324-0.324,0.648-0.324c0.243,0,0.405,0.081,0.567,0.243s0.243,0.324,0.243,0.486
			C81.269,30.725,81.269,30.806,81.188,30.968z M59.739,28.944c-0.567-0.243-1.133-0.567-1.781-0.809s-1.214-0.486-1.862-0.728
			c-0.648-0.243-1.295-0.405-2.024-0.486c-0.648-0.162-1.376-0.162-2.024-0.162c-0.728,0-1.457,0.081-2.185,0.243
			c-0.648,0.162-1.295,0.405-1.781,0.728c-0.486,0.324-0.89,0.648-1.214,1.133c-0.324,0.486-0.405,0.971-0.405,1.457
			c0,0.486,0.162,0.971,0.405,1.376s0.567,0.728,1.052,0.971s0.971,0.405,1.538,0.567s1.133,0.162,1.781,0.162
			c0.728,0,1.538-0.081,2.347-0.162c0.809-0.162,1.538-0.324,2.347-0.648c0.728-0.324,1.457-0.809,2.104-1.376
			C58.686,30.563,59.253,29.834,59.739,28.944z"/>
	</g>
</g>
</svg>
