<?xml version="1.0" encoding="utf-8"?>
<!-- Generator: Adobe Illustrator 17.0.0, SVG Export Plug-In . SVG Version: 6.00 Build 0)  -->
<!DOCTYPE svg PUBLIC "-//W3C//DTD SVG 1.1//EN" "http://www.w3.org/Graphics/SVG/1.1/DTD/svg11.dtd" [
	<!ENTITY ns_flows "http://ns.adobe.com/Flows/1.0/">
	<!ENTITY ns_extend "http://ns.adobe.com/Extensibility/1.0/">
	<!ENTITY ns_ai "http://ns.adobe.com/AdobeIllustrator/10.0/">
	<!ENTITY ns_graphs "http://ns.adobe.com/Graphs/1.0/">
]>
<svg version="1.1" id="Layer_1" xmlns:x="&ns_extend;" xmlns:i="&ns_ai;" xmlns:graph="&ns_graphs;"
	 xmlns="http://www.w3.org/2000/svg" xmlns:xlink="http://www.w3.org/1999/xlink" xmlns:a="http://ns.adobe.com/AdobeSVGViewerExtensions/3.0/"
	 x="0px" y="0px" width="291px" height="50px" viewBox="0 0 291 50" enable-background="new 0 0 291 50" xml:space="preserve">
<g>
	<g>
		<path fill="#FFFFFF" d="M51.6,32.9c0,0-0.1,0.2-0.3,0.4c-0.2,0.2-0.4,0.5-0.8,0.9c-0.3,0.3-0.7,0.7-1.2,1.1
			c-0.5,0.4-1.1,0.8-1.7,1.1c-0.7,0.3-1.4,0.6-2.2,0.8c-0.8,0.2-1.7,0.3-2.8,0.3c-1.6,0-3-0.2-4.4-0.6c-1.4-0.4-2.7-0.9-4-1.5
			c-1.3-0.6-2.5-1.3-3.7-2c-1.2-0.7-2.5-1.5-3.8-2.2c-0.8,1.3-1.7,2.4-2.7,3.2s-2.1,1.5-3.2,1.9c-1.1,0.5-2.2,0.8-3.3,0.9
			c-1.1,0.2-2.1,0.3-3,0.3c-0.9,0-1.8-0.1-2.7-0.3s-1.7-0.5-2.4-0.9s-1.3-1-1.8-1.7c-0.5-0.7-0.7-1.5-0.7-2.6c0-1,0.2-1.8,0.7-2.6
			c0.4-0.8,1-1.4,1.8-2s1.7-1,2.7-1.3c1.1-0.3,2.2-0.4,3.4-0.4c0.9,0,1.8,0.1,2.7,0.2c0.9,0.2,1.8,0.4,2.6,0.6
			c0.9,0.3,1.7,0.6,2.5,0.9c0.8,0.3,1.6,0.7,2.3,1c0.1-0.3,0.2-0.6,0.3-0.9c0.1-0.3,0.1-0.6,0.2-0.9c0.1-0.3,0.1-0.7,0.1-1.1
			c0-0.4,0-0.9,0-1.5c0-0.5,0-1,0-1.5c0-0.5,0-1-0.1-1.6s0-1.2-0.1-1.9c0-0.7,0-1.6,0-2.6c0-2.3,0.2-4.4,0.7-6.2
			c0.4-1.9,1.1-3.5,2-4.8c0.9-1.3,2-2.4,3.3-3.1s2.8-1.1,4.6-1.1c1.1,0,2.1,0.2,3,0.5c0.9,0.3,1.8,0.8,2.5,1.4C43,4,43.6,4.7,44,5.6
			c0.4,0.9,0.6,1.8,0.6,2.9c0,0.6-0.1,1.2-0.2,1.8c-0.2,0.6-0.4,1.2-0.7,1.7c-0.3,0.5-0.6,0.9-1,1.3s-0.7,0.5-1.1,0.5
			c-0.2,0-0.4-0.1-0.6-0.2c-0.2-0.1-0.3-0.3-0.3-0.6c0-0.2,0-0.4,0.1-0.5c0.1-0.1,0.2-0.3,0.3-0.4c0.5-0.4,0.8-0.9,1.1-1.5
			c0.3-0.6,0.4-1.3,0.4-2.1c0-0.8-0.2-1.5-0.5-2.2C42,5.7,41.6,5.1,41,4.7s-1.2-0.8-1.9-1.1c-0.7-0.2-1.5-0.4-2.3-0.4
			c-1.5,0-2.8,0.3-3.9,1c-1.1,0.7-2,1.6-2.7,2.8s-1.3,2.6-1.6,4.3c-0.3,1.7-0.5,3.6-0.5,5.6c0,1,0,1.9,0,2.6c0,0.8,0,1.4,0.1,2.1
			s0,1.2,0.1,1.8c0,0.6,0,1.1,0,1.7c0,0.3,0,0.7,0,1.1c0,0.4-0.1,0.8-0.1,1.2c-0.1,0.4-0.1,0.8-0.3,1.2c-0.1,0.4-0.2,0.7-0.3,1.1
			c1.2,0.6,2.4,1.3,3.6,2s2.4,1.4,3.6,2c1.2,0.6,2.5,1.1,3.8,1.5c1.3,0.4,2.7,0.6,4.1,0.6c1.3,0,2.4-0.2,3.3-0.6
			c0.9-0.4,1.7-0.8,2.3-1.3c0.6-0.5,1.1-0.9,1.4-1.3c0.3-0.4,0.5-0.6,0.5-0.6c0.2-0.3,0.4-0.4,0.8-0.4c0.3,0,0.5,0.1,0.7,0.3
			c0.2,0.2,0.3,0.4,0.3,0.6C51.8,32.6,51.7,32.7,51.6,32.9z M25.2,30.4c-0.7-0.3-1.4-0.7-2.2-1s-1.5-0.6-2.3-0.9s-1.6-0.5-2.5-0.6
			c-0.8-0.2-1.7-0.2-2.5-0.2c-0.9,0-1.8,0.1-2.7,0.3c-0.8,0.2-1.6,0.5-2.2,0.9c-0.6,0.4-1.1,0.8-1.5,1.4s-0.5,1.2-0.5,1.8
			c0,0.6,0.2,1.2,0.5,1.7s0.7,0.9,1.3,1.2s1.2,0.5,1.9,0.7c0.7,0.2,1.4,0.2,2.2,0.2c0.9,0,1.9-0.1,2.9-0.2c1-0.2,1.9-0.4,2.9-0.8
			c0.9-0.4,1.8-1,2.6-1.7C23.9,32.4,24.6,31.5,25.2,30.4z"/>
		<path fill="#FFFFFF" d="M57.6,18c0,0.6-0.2,1.1-0.6,1.5c-0.4,0.4-0.9,0.6-1.5,0.6s-1.1-0.2-1.5-0.6c-0.4-0.4-0.6-0.9-0.6-1.5
			c0-0.3,0.1-0.6,0.2-0.9c0.1-0.3,0.3-0.5,0.5-0.7c0.2-0.2,0.4-0.4,0.7-0.5c0.3-0.1,0.5-0.2,0.9-0.2c0.3,0,0.6,0.1,0.9,0.2
			s0.5,0.3,0.7,0.5c0.2,0.2,0.4,0.4,0.5,0.7C57.5,17.4,57.6,17.7,57.6,18z M53.7,32c0-2.3,0.1-4.6,0.4-6.9c0-0.2,0.1-0.4,0.3-0.6
			c0.2-0.2,0.4-0.3,0.7-0.3c0.2,0,0.4,0.1,0.6,0.3s0.2,0.4,0.2,0.6c0,0.1,0,0.4-0.1,0.9c0,0.5-0.1,1.1-0.1,1.7
			c-0.1,0.7-0.1,1.4-0.1,2.1c0,0.7-0.1,1.4-0.1,2c0,0.8,0.1,1.5,0.3,2c0.2,0.5,0.4,0.9,0.6,1.2c0.3,0.3,0.5,0.5,0.8,0.6
			c0.3,0.1,0.6,0.1,0.9,0.1c0.4,0,0.9-0.2,1.4-0.5c0.5-0.3,1-0.8,1.5-1.3s1-1.3,1.5-2.1c0.5-0.8,1-1.7,1.5-2.7
			c0.1-0.2,0.2-0.3,0.3-0.4c0.1-0.1,0.3-0.1,0.5-0.1c0.3,0,0.5,0.1,0.6,0.3c0.2,0.2,0.3,0.4,0.3,0.6c0,0.2,0,0.3-0.1,0.4
			c-0.2,0.4-0.4,0.8-0.7,1.3c-0.3,0.5-0.6,1.1-1,1.6c-0.4,0.6-0.8,1.1-1.2,1.7c-0.4,0.6-0.9,1-1.4,1.5c-0.5,0.4-1,0.8-1.6,1.1
			s-1.1,0.4-1.7,0.4c-0.7,0-1.4-0.2-1.9-0.5c-0.5-0.3-1-0.7-1.4-1.2c-0.4-0.5-0.7-1.1-0.8-1.8C53.8,33.6,53.7,32.8,53.7,32z
			 M56.2,18c0-0.2-0.1-0.4-0.3-0.6c-0.2-0.2-0.4-0.3-0.6-0.3s-0.4,0.1-0.6,0.3c-0.2,0.2-0.2,0.4-0.2,0.6c0,0.2,0.1,0.4,0.2,0.6
			c0.2,0.2,0.4,0.2,0.6,0.2s0.4-0.1,0.6-0.2C56.1,18.4,56.2,18.2,56.2,18z"/>
		<path fill="#FFFFFF" d="M84.2,30.1c0,0.1-0.2,0.3-0.3,0.6c-0.2,0.3-0.4,0.6-0.6,1c-0.3,0.4-0.6,0.8-0.9,1.2
			c-0.4,0.4-0.7,0.8-1.1,1.2c-0.4,0.4-0.9,0.7-1.3,0.9s-1,0.4-1.5,0.4c-0.8,0-1.5-0.1-2.1-0.4c-0.6-0.3-1-0.6-1.4-1
			c-0.3,0.6-0.6,1.1-0.9,1.5c-0.4,0.5-0.8,0.9-1.2,1.2c-0.4,0.3-0.9,0.6-1.4,0.8s-1,0.3-1.5,0.3c-1,0-1.8-0.3-2.5-0.9
			s-1.3-1.3-1.7-2.3c-0.5-1-0.8-2.1-1.1-3.4c-0.3-1.3-0.5-2.6-0.6-4c-0.1-1.4-0.2-2.8-0.3-4.3c0-1.4,0-2.8,0-4.1
			c0-2.5,0.1-4.6,0.2-6.4c0.1-1.8,0.3-3.4,0.6-4.6c0.2-1.3,0.5-2.3,0.9-3.1c0.3-0.8,0.7-1.4,1-1.8c0.4-0.4,0.7-0.7,1.1-0.9
			c0.4-0.2,0.8-0.2,1.1-0.2c0.6,0,1.1,0.2,1.6,0.5c0.5,0.4,0.8,0.8,1.1,1.5s0.5,1.4,0.7,2.3s0.2,1.9,0.2,2.9c0,1.7-0.2,3.5-0.6,5.3
			c-0.4,1.8-0.8,3.6-1.4,5.5c-0.6,1.8-1.2,3.6-2,5.3c-0.7,1.7-1.4,3.4-2.1,5c0.1,0.8,0.2,1.5,0.4,2.2c0.2,0.7,0.4,1.3,0.7,1.9
			c0.3,0.6,0.7,1,1.1,1.3c0.4,0.3,0.9,0.5,1.4,0.5c0.5,0,1.1-0.2,1.5-0.5c0.5-0.3,0.9-0.7,1.2-1.2c0.4-0.5,0.6-1.1,0.8-1.7
			s0.3-1.3,0.3-2c0-0.4,0-0.9-0.1-1.4s-0.2-0.9-0.4-1.2s-0.4-0.7-0.7-0.9c-0.3-0.2-0.6-0.3-1-0.3c-0.3,0-0.5,0.1-0.7,0.2
			c-0.2,0.1-0.3,0.3-0.4,0.4s-0.1,0.3-0.1,0.4c0,0.1,0,0.2,0,0.3c0,0.2,0,0.4,0.1,0.7c0.1,0.2,0.3,0.4,0.6,0.6
			c0.3,0.2,0.4,0.5,0.4,0.8c0,0.3-0.1,0.5-0.3,0.6c-0.2,0.2-0.4,0.2-0.6,0.2c-0.3,0-0.6-0.1-0.9-0.3c-0.2-0.2-0.5-0.4-0.6-0.7
			c-0.2-0.3-0.3-0.6-0.4-0.9c-0.1-0.3-0.1-0.6-0.1-0.9c0-0.5,0.1-0.9,0.2-1.3c0.2-0.4,0.4-0.7,0.7-1c0.3-0.3,0.6-0.5,1-0.6
			c0.4-0.2,0.7-0.2,1.1-0.2c0.7,0,1.3,0.2,1.8,0.5c0.5,0.3,0.9,0.7,1.3,1.3c0.3,0.5,0.6,1.1,0.7,1.8c0.2,0.7,0.2,1.3,0.2,2
			c0,0.4,0,0.8-0.1,1.2c0.1,0.1,0.2,0.3,0.3,0.5c0.1,0.2,0.3,0.4,0.6,0.6c0.2,0.2,0.5,0.4,0.9,0.5s0.7,0.2,1.2,0.2
			c0.4,0,0.8-0.1,1.2-0.4c0.4-0.3,0.8-0.7,1.2-1.1c0.4-0.4,0.7-0.9,1-1.4s0.6-1,0.8-1.4c0.1-0.2,0.2-0.3,0.3-0.4
			c0.1-0.1,0.3-0.1,0.5-0.1c0.3,0,0.5,0.1,0.7,0.3c0.2,0.2,0.3,0.4,0.3,0.6C84.2,29.9,84.2,30,84.2,30.1z M65.6,27.1
			c0.5-1.3,1.1-2.8,1.7-4.2c0.6-1.5,1.1-3,1.5-4.5c0.4-1.5,0.8-3.1,1.1-4.6c0.3-1.6,0.4-3.1,0.4-4.6c0-0.6,0-1.2-0.1-1.8
			c-0.1-0.6-0.2-1.2-0.3-1.7c-0.1-0.5-0.3-1-0.6-1.3c-0.2-0.4-0.6-0.5-0.9-0.5c-0.1,0-0.3,0.1-0.5,0.3s-0.4,0.5-0.6,0.9
			c-0.2,0.4-0.4,1-0.7,1.8c-0.2,0.8-0.4,1.7-0.6,2.9c-0.2,1.2-0.3,2.6-0.5,4.2c-0.1,1.6-0.2,3.5-0.2,5.8c0,0.7,0,1.5,0,2.2
			s0,1.5,0.1,2.2c0,0.7,0.1,1.3,0.1,1.9C65.6,26.2,65.6,26.7,65.6,27.1z"/>
		<path fill="#FFFFFF" d="M85.4,34.1c0.3,0.5,0.8,0.8,1.3,1.1s1.2,0.4,1.9,0.4c0.8,0,1.5-0.2,2.1-0.6s1.2-0.9,1.7-1.5
			c0.5-0.6,1-1.3,1.4-2c0.4-0.8,0.8-1.5,1.1-2.3c0.1-0.2,0.2-0.3,0.3-0.4s0.3-0.1,0.5-0.1c0.3,0,0.5,0.1,0.7,0.3
			c0.2,0.2,0.3,0.4,0.3,0.6c0,0.1,0,0.1,0,0.2c0,0.1,0,0.1-0.1,0.2c-1.1,2.4-2.3,4.3-3.6,5.5c-1.3,1.2-2.8,1.9-4.4,1.9
			c-1.1,0-2-0.2-2.7-0.6S84.5,36,84,35.3c-0.5-0.6-0.9-1.4-1.1-2.2c-0.2-0.8-0.4-1.6-0.4-2.4s0.1-1.6,0.3-2.3s0.5-1.3,0.9-1.8
			c0.4-0.5,0.8-0.9,1.3-1.2s1.1-0.4,1.7-0.4c0.4,0,0.7,0.1,1.1,0.2s0.7,0.4,1,0.6c0.3,0.3,0.5,0.6,0.7,1c0.2,0.4,0.3,0.9,0.3,1.4
			c0,0.7-0.1,1.3-0.3,1.8c-0.2,0.6-0.5,1.1-0.9,1.6c-0.4,0.5-0.9,1-1.4,1.4C86.6,33.5,86,33.8,85.4,34.1z M84.7,32.6
			c0.5-0.2,0.9-0.5,1.4-0.8s0.8-0.7,1-1.1c0.3-0.4,0.5-0.8,0.7-1.2c0.2-0.4,0.2-0.9,0.2-1.3c0-0.5-0.1-0.8-0.4-1.1
			c-0.2-0.2-0.5-0.4-0.8-0.4c-0.4,0-0.8,0.1-1.1,0.4c-0.3,0.2-0.6,0.6-0.7,0.9c-0.2,0.4-0.3,0.8-0.4,1.3c-0.1,0.5-0.1,0.9-0.1,1.4
			c0,0.3,0,0.6,0.1,0.9C84.5,32,84.6,32.3,84.7,32.6z"/>
		<path fill="#FFFFFF" d="M97.6,26.9c-0.1,0.4-0.1,0.8-0.2,1.2s-0.2,0.7-0.3,1c-0.1,0.3-0.2,0.5-0.2,0.7s-0.1,0.3-0.1,0.3
			c-0.2,0.4-0.4,0.6-0.8,0.6c-0.2,0-0.4-0.1-0.6-0.3C95.1,30.2,95,30,95,29.8c0-0.1,0-0.2,0-0.2s0.1-0.1,0.1-0.3
			c0.1-0.1,0.1-0.4,0.2-0.7c0.1-0.3,0.2-0.9,0.4-1.6c-0.3,0-0.6,0-0.8,0c-0.3,0-0.6-0.1-0.8-0.2c-0.2-0.1-0.5-0.2-0.6-0.5
			c-0.2-0.2-0.2-0.5-0.2-0.9c0-0.3,0.1-0.6,0.2-1.1s0.4-0.9,0.6-1.4c0.3-0.4,0.5-0.8,0.9-1.2c0.3-0.3,0.6-0.5,1-0.5
			c0.4,0,0.7,0.1,0.9,0.4c0.2,0.3,0.4,0.6,0.5,1c0.1,0.4,0.2,0.8,0.3,1.2c0.1,0.4,0.1,0.8,0.1,1.1c0.3,0,0.5,0,0.8,0
			c0.3,0,0.5,0,0.8,0c0.9,0,1.6,0.2,2.1,0.6c0.5,0.4,0.7,1.1,0.7,2c0,0.4,0,0.8-0.1,1.1c0,0.4-0.1,0.8-0.2,1.2
			c-0.1,0.4-0.1,0.8-0.2,1.3s-0.1,0.8-0.1,1.2c0,0.6,0.1,1,0.2,1.4c0.2,0.4,0.4,0.7,0.6,0.9c0.2,0.2,0.5,0.4,0.8,0.5
			c0.3,0.1,0.5,0.1,0.7,0.1c0.7,0,1.3-0.2,1.9-0.7s1.2-1,1.7-1.6c0.5-0.6,1-1.3,1.4-2c0.4-0.7,0.7-1.3,1-1.8
			c0.1-0.1,0.2-0.3,0.3-0.3c0.1-0.1,0.3-0.1,0.5-0.1c0.3,0,0.5,0.1,0.7,0.3c0.2,0.2,0.2,0.4,0.2,0.6c0,0.2,0,0.3-0.1,0.4
			c-0.4,0.7-0.8,1.4-1.3,2.2c-0.5,0.8-1,1.6-1.7,2.3s-1.3,1.3-2.1,1.8c-0.8,0.5-1.6,0.7-2.6,0.7c-0.6,0-1.1-0.1-1.6-0.3
			c-0.5-0.2-1-0.5-1.3-0.9s-0.7-0.9-0.9-1.5s-0.3-1.3-0.3-2c0-0.8,0.1-1.6,0.2-2.4c0.2-0.8,0.2-1.5,0.2-2.3c0-0.3-0.1-0.5-0.2-0.7
			c-0.1-0.2-0.4-0.2-0.9-0.2c-0.2,0-0.5,0-0.7,0C98.2,26.9,97.9,26.9,97.6,26.9z M96,25.2c0-0.1,0-0.3,0-0.4c0-0.2,0-0.4,0-0.5
			c0-0.2-0.1-0.3-0.1-0.5c0-0.1-0.1-0.2-0.1-0.2s-0.1,0.1-0.2,0.2c-0.1,0.1-0.1,0.3-0.2,0.4c-0.1,0.2-0.2,0.3-0.2,0.5
			c-0.1,0.2-0.1,0.4-0.1,0.5H96z"/>
		<path fill="#FFFFFF" d="M128.4,30.1c-0.1,0.1-0.2,0.4-0.4,0.8c-0.2,0.4-0.5,0.9-0.8,1.4s-0.7,1.1-1.1,1.7
			c-0.4,0.6-0.9,1.1-1.4,1.6s-1.1,0.9-1.7,1.2c-0.6,0.3-1.2,0.5-1.9,0.5c-0.9,0-1.7-0.3-2.3-0.9c-0.6-0.6-1.1-1.3-1.4-2.2
			c-0.5,0.9-1.2,1.6-1.9,2.2c-0.8,0.5-1.5,0.8-2.3,0.8c-0.6,0-1.1-0.1-1.6-0.3c-0.5-0.2-0.9-0.5-1.2-0.9c-0.3-0.4-0.6-0.9-0.8-1.4
			c-0.2-0.5-0.3-1.1-0.3-1.7c0-1.2,0.2-2.3,0.6-3.3c0.4-1,1-1.7,1.6-2.4c0.7-0.6,1.4-1.1,2.2-1.4c0.8-0.3,1.6-0.5,2.3-0.5
			c0.5,0,1,0.1,1.4,0.2c0.4,0.1,0.8,0.3,1.1,0.4c0.3,0.2,0.5,0.3,0.7,0.4c0.2,0.1,0.2,0.2,0.3,0.2c0.2,0.2,0.3,0.4,0.3,0.6
			c0,0.2-0.1,0.5-0.3,0.6S119.2,28,119,28c-0.3,0-0.5-0.1-0.6-0.3c0,0-0.1-0.1-0.2-0.2c-0.1-0.1-0.3-0.2-0.5-0.3
			c-0.2-0.1-0.4-0.2-0.7-0.3c-0.3-0.1-0.6-0.1-0.9-0.1c-0.5,0-1,0.1-1.6,0.3s-1.1,0.6-1.5,1c-0.5,0.5-0.9,1.1-1.2,1.8
			c-0.3,0.7-0.5,1.6-0.5,2.5c0,0.3,0,0.6,0.1,0.9c0.1,0.3,0.2,0.6,0.3,0.9c0.2,0.3,0.4,0.5,0.6,0.6c0.3,0.2,0.6,0.2,1,0.2
			c0.3,0,0.6-0.1,1-0.3c0.4-0.2,0.7-0.5,1.1-0.9c0.3-0.4,0.7-0.9,0.9-1.5c0.3-0.6,0.5-1.3,0.6-2.2c0-0.2,0.1-0.4,0.3-0.6
			c0.2-0.2,0.4-0.2,0.6-0.2c0.2,0,0.4,0.1,0.6,0.3c0.2,0.2,0.3,0.4,0.3,0.6c0,0.3,0,0.7,0.1,1.3c0,0.6,0.2,1.1,0.3,1.6
			c0.2,0.5,0.4,1,0.8,1.4s0.8,0.6,1.4,0.6c0.4,0,0.8-0.1,1.1-0.3c0.4-0.2,0.7-0.5,1.1-0.8c0.4-0.3,0.7-0.7,1-1.2
			c0.3-0.4,0.6-0.9,0.9-1.3s0.5-0.9,0.7-1.3c0.2-0.4,0.4-0.8,0.5-1.1c0.1-0.2,0.2-0.3,0.3-0.4s0.3-0.1,0.5-0.1
			c0.3,0,0.5,0.1,0.7,0.3c0.2,0.2,0.3,0.4,0.3,0.6C128.5,29.9,128.5,30,128.4,30.1z"/>
		<path fill="#FFFFFF" d="M146.2,12.8c0,0.3-0.1,0.5-0.3,0.6c-0.2,0.2-0.4,0.2-0.6,0.2h-12.1v0.3c0,1-0.1,2-0.2,3.1
			c-0.1,1.1-0.3,2.2-0.6,3.3c-0.2,1.1-0.5,2.2-0.8,3.2c-0.3,1-0.6,2-1,2.9c-0.3,0.9-0.7,1.6-1,2.3c-0.3,0.6-0.6,1.1-0.9,1.5
			c0.2,0.7,0.5,1.4,0.7,2s0.6,1.2,1,1.7c0.4,0.5,0.7,0.8,1.2,1.1c0.4,0.3,0.9,0.4,1.3,0.4c0.6,0,1.1-0.2,1.7-0.7
			c0.6-0.5,1.1-1,1.5-1.7c0.5-0.6,0.9-1.3,1.2-2c0.4-0.7,0.6-1.2,0.8-1.6c0.2-0.4,0.4-0.6,0.8-0.6c0.3,0,0.5,0.1,0.7,0.3
			c0.2,0.2,0.3,0.4,0.3,0.6c0,0.1,0,0.2-0.1,0.3c0,0.1-0.2,0.4-0.3,0.8c-0.2,0.4-0.4,0.9-0.7,1.4c-0.3,0.5-0.6,1.1-1,1.7
			c-0.4,0.6-0.8,1.1-1.3,1.6s-1,0.9-1.6,1.2c-0.6,0.3-1.2,0.5-1.8,0.5c-1.1,0-2.1-0.4-3-1.1c-0.9-0.7-1.6-1.7-2.2-3
			c-0.6-1.3-1.1-2.8-1.4-4.6c-0.3-1.8-0.5-3.7-0.5-5.8c0-0.5,0-1.1,0-1.9c0-0.7,0-1.5,0.1-2.3c0-0.8,0.1-1.6,0.2-2.4
			c0.1-0.8,0.2-1.7,0.4-2.5h-8.6c-0.3,0-0.5-0.1-0.6-0.2c-0.2-0.2-0.3-0.4-0.3-0.6c0-0.3,0.1-0.5,0.3-0.6s0.4-0.2,0.6-0.2h9
			c0.2-0.6,0.3-1.1,0.6-1.6c0.2-0.5,0.5-0.9,0.7-1.2c0.3-0.4,0.6-0.6,0.9-0.8c0.3-0.2,0.7-0.3,1.1-0.3c0.4,0,0.7,0.1,1,0.3
			c0.3,0.2,0.5,0.5,0.8,0.8c0.2,0.4,0.4,0.8,0.5,1.2c0.1,0.5,0.2,1,0.3,1.6h12.2c0.3,0,0.5,0.1,0.6,0.2S146.2,12.5,146.2,12.8z
			 M128.2,27.7c0.5-1.1,0.9-2.2,1.3-3.4c0.4-1.2,0.7-2.5,1-3.7c0.3-1.2,0.5-2.5,0.6-3.7c0.2-1.2,0.2-2.3,0.2-3.3h-2.8
			c-0.2,1-0.4,2.2-0.5,3.7s-0.2,3.2-0.2,5.3c0,1.2,0,2.1,0.1,2.9C127.9,26.4,128,27.1,128.2,27.7z M130.4,9.8
			c-0.1,0-0.4,0.2-0.6,0.5c-0.3,0.3-0.5,0.9-0.8,1.7h2.3c-0.1-0.7-0.2-1.2-0.3-1.6S130.6,9.8,130.4,9.8z"/>
		<path fill="#FFFFFF" d="M141.1,34.1c0.3,0.5,0.8,0.8,1.3,1.1s1.2,0.4,1.9,0.4c0.8,0,1.5-0.2,2.1-0.6s1.2-0.9,1.7-1.5
			c0.5-0.6,1-1.3,1.4-2c0.4-0.8,0.8-1.5,1.1-2.3c0.1-0.2,0.2-0.3,0.3-0.4s0.3-0.1,0.5-0.1c0.3,0,0.5,0.1,0.7,0.3
			c0.2,0.2,0.3,0.4,0.3,0.6c0,0.1,0,0.1,0,0.2c0,0.1,0,0.1-0.1,0.2c-1.1,2.4-2.3,4.3-3.6,5.5c-1.3,1.2-2.8,1.9-4.4,1.9
			c-1.1,0-2-0.2-2.7-0.6s-1.4-0.9-1.9-1.6c-0.5-0.6-0.9-1.4-1.1-2.2c-0.2-0.8-0.4-1.6-0.4-2.4s0.1-1.6,0.3-2.3s0.5-1.3,0.9-1.8
			c0.4-0.5,0.8-0.9,1.3-1.2s1.1-0.4,1.7-0.4c0.4,0,0.7,0.1,1.1,0.2s0.7,0.4,1,0.6c0.3,0.3,0.5,0.6,0.7,1c0.2,0.4,0.3,0.9,0.3,1.4
			c0,0.7-0.1,1.3-0.3,1.8c-0.2,0.6-0.5,1.1-0.9,1.6c-0.4,0.5-0.9,1-1.4,1.4C142.3,33.5,141.7,33.8,141.1,34.1z M140.4,32.6
			c0.5-0.2,0.9-0.5,1.4-0.8s0.8-0.7,1-1.1c0.3-0.4,0.5-0.8,0.7-1.2c0.2-0.4,0.2-0.9,0.2-1.3c0-0.5-0.1-0.8-0.4-1.1
			c-0.2-0.2-0.5-0.4-0.8-0.4c-0.4,0-0.8,0.1-1.1,0.4c-0.3,0.2-0.6,0.6-0.7,0.9c-0.2,0.4-0.3,0.8-0.4,1.3c-0.1,0.5-0.1,0.9-0.1,1.4
			c0,0.3,0,0.6,0.1,0.9C140.3,32,140.3,32.3,140.4,32.6z"/>
		<path fill="#FFFFFF" d="M160.1,29.8c0.8,3.7,1.9,5.5,3.4,5.5c0.6,0,1.1-0.2,1.7-0.6c0.5-0.4,1-0.9,1.5-1.6c0.5-0.6,0.9-1.3,1.2-2
			s0.6-1.3,0.9-1.8c0.2-0.4,0.4-0.6,0.8-0.6c0.3,0,0.5,0.1,0.6,0.3s0.3,0.4,0.3,0.6c0,0.1,0,0.2-0.1,0.3c-0.1,0.3-0.3,0.6-0.5,1.1
			c-0.2,0.5-0.5,0.9-0.8,1.5c-0.3,0.5-0.7,1.1-1,1.6c-0.4,0.5-0.8,1-1.3,1.5c-0.5,0.4-1,0.8-1.5,1.1c-0.5,0.3-1.1,0.4-1.6,0.4
			c-1.1,0-2-0.4-2.8-1.1c-0.8-0.7-1.4-2-2-3.7c-0.8,1.6-1.5,2.8-2.3,3.5c-0.8,0.7-1.6,1.1-2.5,1.1c-0.5,0-0.9-0.1-1.4-0.2
			c-0.4-0.2-0.8-0.4-1.2-0.8c-0.3-0.4-0.6-0.8-0.8-1.4s-0.3-1.2-0.3-2c0-1.1,0.2-2.1,0.6-3c0.4-0.9,0.9-1.7,1.5-2.4
			c0.6-0.7,1.3-1.2,2-1.5c0.7-0.4,1.5-0.6,2.2-0.6c0.2,0,0.4,0.1,0.6,0.3c0.2,0.2,0.3,0.4,0.3,0.6c0,0.2-0.1,0.4-0.2,0.6
			c-0.1,0.2-0.3,0.3-0.6,0.3c-0.5,0.1-1,0.2-1.5,0.5c-0.5,0.2-1,0.6-1.5,1c-0.5,0.5-0.8,1-1.1,1.7c-0.3,0.7-0.4,1.5-0.4,2.5
			c0,0.8,0.2,1.4,0.5,1.9c0.3,0.4,0.8,0.7,1.4,0.7c0.3,0,0.5-0.1,0.8-0.2s0.6-0.4,0.9-0.8c0.3-0.4,0.7-1,1.1-1.7
			c0.4-0.7,0.8-1.7,1.3-2.9c-0.3-1.4-0.5-3-0.7-4.9c-0.2-1.8-0.3-3.9-0.3-6.2c0-1,0-2,0.1-3.1c0.1-1.1,0.2-2.1,0.3-3.2
			s0.3-2,0.6-2.9c0.2-0.9,0.5-1.7,0.9-2.4c0.3-0.7,0.7-1.3,1.2-1.7c0.5-0.4,1-0.6,1.6-0.6c0.5,0,1,0.1,1.3,0.4s0.7,0.7,0.9,1.2
			c0.2,0.5,0.4,1.1,0.5,1.8c0.1,0.7,0.2,1.5,0.2,2.4c0,1.9-0.2,3.7-0.5,5.6c-0.3,1.9-0.7,3.6-1.2,5.3c-0.5,1.7-1,3.3-1.5,4.7
			C161,27.5,160.5,28.8,160.1,29.8z M162.9,10.5c0-0.4,0-0.8,0-1.3c0-0.5-0.1-0.9-0.2-1.3c-0.1-0.4-0.2-0.7-0.3-1s-0.3-0.4-0.6-0.4
			c-0.4,0-0.8,0.4-1.1,1.1c-0.3,0.7-0.6,1.6-0.9,2.8c-0.3,1.1-0.5,2.4-0.6,3.9c-0.2,1.4-0.2,2.9-0.2,4.4c0,1.4,0.1,2.8,0.2,4.2
			c0.1,1.4,0.2,2.7,0.4,3.8c0.5-1.2,0.9-2.5,1.3-3.8s0.8-2.6,1.1-4c0.3-1.4,0.6-2.7,0.7-4.1S162.9,11.9,162.9,10.5z"/>
	</g>
</g>
<g>
	<g>
		<path fill="#FF9933" stroke="#FF9933" stroke-width="1.5" stroke-miterlimit="10" d="M182.3,35h14.3l0,1.8h-16l0-29.3h1.8V35z"/>
		<path fill="#FF9933" stroke="#FF9933" stroke-width="1.5" stroke-miterlimit="10" d="M202.4,9.3c0-0.3,0.1-0.6,0.4-0.8
			c0.2-0.2,0.5-0.3,0.9-0.3c0.3,0,0.6,0.1,0.8,0.3c0.3,0.2,0.4,0.5,0.4,0.8c0,0.3-0.1,0.6-0.4,0.8c-0.3,0.2-0.5,0.3-0.8,0.3
			c-0.3,0-0.6-0.1-0.9-0.3C202.5,9.8,202.4,9.6,202.4,9.3z M202.8,15.6h1.7l0,21.2h-1.7L202.8,15.6z"/>
		<path fill="#FF9933" stroke="#FF9933" stroke-width="1.5" stroke-miterlimit="10" d="M210.7,15.6h1.9l7.6,18.7l7.5-18.7h2
			l-8.6,21.2h-1.9L210.7,15.6z"/>
		<path fill="#FF9933" stroke="#FF9933" stroke-width="1.5" stroke-miterlimit="10" d="M235.4,9.3c0-0.3,0.1-0.6,0.4-0.8
			c0.2-0.2,0.5-0.3,0.9-0.3c0.3,0,0.6,0.1,0.8,0.3c0.3,0.2,0.4,0.5,0.4,0.8c0,0.3-0.1,0.6-0.4,0.8c-0.3,0.2-0.5,0.3-0.8,0.3
			c-0.3,0-0.6-0.1-0.9-0.3C235.5,9.8,235.4,9.6,235.4,9.3z M235.8,15.6h1.7l0,21.2h-1.7L235.8,15.6z"/>
		<path fill="#FF9933" stroke="#FF9933" stroke-width="1.5" stroke-miterlimit="10" d="M246.1,17.5v1.1c0.7-1.1,1.5-1.9,2.5-2.5
			c1-0.6,2.1-0.9,3.3-0.9c1,0,1.9,0.2,2.8,0.6c0.9,0.4,1.6,1,2.2,1.7c0.6,0.7,1.1,1.5,1.5,2.5c0.4,0.9,0.6,2,0.6,3l0.1,13.8h-1.8
			l0-13.8c0-0.8-0.2-1.6-0.5-2.4c-0.3-0.7-0.7-1.3-1.2-1.9c-0.5-0.5-1.1-1-1.8-1.3c-0.7-0.3-1.4-0.5-2.2-0.5c-0.7,0-1.4,0.1-2,0.4
			c-0.6,0.3-1.2,0.6-1.7,1.1c-0.5,0.5-0.9,1-1.3,1.7c-0.3,0.6-0.6,1.4-0.7,2.1l0,14.4h-1.8l0-19.2c0-0.5,0-0.9-0.1-1.2
			c0-0.3-0.1-0.5-0.1-0.6h2V17.5z"/>
		<path fill="#FF9933" stroke="#FF9933" stroke-width="1.5" stroke-miterlimit="10" d="M272.1,31.9c0.1-0.1,0.3-0.1,0.5-0.1
			c0.2,0,0.3,0,0.5,0c1.2,0,2.3,0.2,3.3,0.5c1,0.4,1.9,0.8,2.7,1.4c0.8,0.6,1.4,1.3,1.8,2.1c0.4,0.8,0.7,1.7,0.7,2.6
			s-0.2,1.8-0.7,2.6c-0.4,0.8-1,1.5-1.8,2.1c-0.8,0.6-1.7,1.1-2.7,1.5c-1,0.4-2.1,0.6-3.3,0.6c-1.2,0-2.3-0.2-3.3-0.6
			c-1-0.4-1.9-0.9-2.7-1.5c-0.8-0.6-1.4-1.3-1.8-2.1c-0.5-0.8-0.7-1.7-0.7-2.6c0-1.3,0.4-2.4,1.2-3.5c0.8-1,1.9-1.8,3.2-2.4
			c-0.3-0.5-0.5-1.2-0.5-2c0-0.5,0.1-0.9,0.3-1.3c0.2-0.4,0.4-0.7,0.6-1c-1-0.7-1.8-1.5-2.3-2.5c-0.6-1-0.8-2-0.8-3.2
			c0-1,0.2-2,0.7-2.9c0.4-0.9,1-1.7,1.8-2.3c0.8-0.7,1.7-1.2,2.7-1.6c1-0.4,2.1-0.6,3.3-0.6c0.6,0,1.2,0,1.7,0.1
			c0.5,0.1,1,0.2,1.5,0.3h7.3l-1.7,1.8h-2.7c0.7,0.6,1.3,1.4,1.7,2.2c0.4,0.8,0.6,1.8,0.6,2.8c0,1-0.2,2-0.7,2.8
			c-0.4,0.9-1,1.6-1.8,2.3c-0.8,0.6-1.7,1.2-2.7,1.5c-1,0.4-2.1,0.6-3.3,0.6c-0.7,0-1.3-0.1-1.9-0.3s-1.1-0.3-1.6-0.3
			c-0.3,0-0.6,0.1-0.9,0.2c-0.3,0.2-0.5,0.5-0.5,0.9c0,0.6,0.2,1,0.5,1.1c0.3,0.2,0.7,0.2,1,0.2c0.1,0,0.3,0,0.4,0
			C271.9,31.9,272,31.9,272.1,31.9z M266.3,38.5c0,0.7,0.2,1.3,0.5,1.9s0.9,1.2,1.5,1.6c0.6,0.5,1.3,0.8,2.2,1.1
			c0.8,0.3,1.7,0.4,2.6,0.4c1,0,1.9-0.1,2.7-0.4c0.8-0.3,1.6-0.6,2.2-1.1c0.6-0.5,1.1-1,1.5-1.6c0.4-0.6,0.5-1.3,0.5-1.9
			s-0.2-1.3-0.5-1.9c-0.4-0.6-0.8-1.1-1.5-1.6c-0.6-0.5-1.3-0.8-2.2-1.1c-0.8-0.3-1.7-0.4-2.7-0.4c-0.9,0-1.8,0.1-2.6,0.4
			c-0.8,0.3-1.5,0.7-2.2,1.1c-0.6,0.5-1.1,1-1.5,1.6C266.5,37.2,266.3,37.8,266.3,38.5z M268,22.7c0,0.8,0.2,1.5,0.5,2.2
			c0.4,0.7,0.8,1.3,1.4,1.8c0.6,0.5,1.3,0.9,2.1,1.2s1.7,0.4,2.6,0.4c1,0,1.8-0.1,2.7-0.4c0.8-0.3,1.5-0.7,2.1-1.2
			c0.6-0.5,1.1-1.1,1.4-1.8c0.4-0.7,0.5-1.4,0.5-2.2c0-0.8-0.2-1.5-0.5-2.2c-0.4-0.7-0.8-1.3-1.4-1.8s-1.3-0.9-2.1-1.2
			c-0.8-0.3-1.7-0.4-2.7-0.4c-0.9,0-1.8,0.1-2.6,0.4s-1.5,0.7-2.1,1.2c-0.6,0.5-1.1,1.1-1.4,1.8C268.2,21.1,268,21.9,268,22.7z"/>
	</g>
</g>
</svg>
