<?xml version="1.0" encoding="utf-8"?>
<!-- Generator: Adobe Illustrator 17.0.0, SVG Export Plug-In . SVG Version: 6.00 Build 0)  -->
<!DOCTYPE svg PUBLIC "-//W3C//DTD SVG 1.1//EN" "http://www.w3.org/Graphics/SVG/1.1/DTD/svg11.dtd" [
	<!ENTITY ns_flows "http://ns.adobe.com/Flows/1.0/">
	<!ENTITY ns_extend "http://ns.adobe.com/Extensibility/1.0/">
	<!ENTITY ns_ai "http://ns.adobe.com/AdobeIllustrator/10.0/">
	<!ENTITY ns_graphs "http://ns.adobe.com/Graphs/1.0/">
]>
<svg version="1.1" id="Layer_1" xmlns:x="&ns_extend;" xmlns:i="&ns_ai;" xmlns:graph="&ns_graphs;"
	 xmlns="http://www.w3.org/2000/svg" xmlns:xlink="http://www.w3.org/1999/xlink" xmlns:a="http://ns.adobe.com/AdobeSVGViewerExtensions/3.0/"
	 x="0px" y="0px" width="143.2px" height="146.9px" viewBox="0 0 143.2 146.9" enable-background="new 0 0 143.2 146.9"
	 xml:space="preserve">
<g>
	<g>
		<path fill="#060606" d="M136.9,101c-0.6,1.6-1.8,2.9-2.1,4.7c-0.1,0.5-0.1,1-0.7,1.1c-1.2,1-1.4,2.6-2.4,3.6
			c-2.4,3.1-4.1,6.7-6.9,9.5c-2.7,2.8-5.5,5.7-8.1,8.5c-1.1,1.2-2.5,2.1-3.9,3c-5.7,4-11.7,7.7-18.4,9.8c-0.8,0.2-1.3,0.9-2.2,0.9
			c-1.2,0.1-2.2,0.7-3.2,1.2c-0.6,0.3-1.1,0.4-1.7,0.5c-3.6,0.9-7.3,1.4-11.1,1.9c-2,0.3-4.1-0.1-6.1,0.3c-3.9,0.7-7.7,0-11.5-0.3
			c-7.4-0.7-14.3-3.4-20.9-6.9c-4.5-2.4-8.8-5.2-12.4-8.7c-4.8-4.6-9.3-9.5-12.6-15.3c-1-1.8-2.1-3.6-3.2-5.4
			c-1.3-1.2-1.2-3.2-2.6-4.5c-1.2-3.2-2.5-6.3-3.4-9.5C1.5,89.2,0.2,83,0,76.6c-0.3-11,1.7-21.5,6.6-31.4
			c3.3-6.7,7.2-12.9,12.2-18.5c2.5-2.8,5-5.5,7.9-7.9c0.5-0.2,0.9,0.7,1.5-0.1c1.2-1.6,3-2.6,4.5-3.8c1.1-0.7,2-1.9,3.4-2.2
			c1-0.2,0.2-1.2,0.8-1.6c0.1-0.3,0.4-0.4,0.7-0.4c0.7-0.2,1.8,0.2,1.7-1.1C45.8,5.5,53,3.2,60.5,1.3c7.4-1.9,14.8-1.4,22.2-0.6
			c4,0.4,7.9,2,10.5,5.7c-1,0.8-2,0.5-3,0.3C86,5.6,81.7,4.8,77.3,4.9c-4.2,0-8.4-0.7-12.7-0.1C56,6.1,48,8.9,40.6,13.5
			c-6.5,4-12.2,8.9-17.3,14.7c-3.8,4.3-7.1,9-9.9,14c-1.6,2.8-3.2,5.7-4.3,8.7c-1.5,4.2-2.9,8.5-3.3,13c-0.2,2.8-0.8,5.6-0.8,8.5
			c0.1,11.1,2.7,21.5,7.9,31.4c2.5,4.8,5.5,9.1,8.7,13.4c2,2.7,4.8,4.6,7.3,6.8c0.2,0.2,0.3,0.4,0.4,0.6c4.6,4.4,10.2,7.1,16.1,9.4
			c3.4,1.3,7,2.4,10.6,3c4.5,0.8,9,1,13.6,0.7c3.8-0.2,7.6-0.7,11.4-1.3c3.4-0.5,6.8-1.6,10.1-2.7c5.7-2,11-4.9,16.2-8
			c0.5-0.3,1-0.6,1.4-1.1l0,0c3-1.4,5.2-4,7.8-6c2.2-2,4.2-4.3,6.6-6.1c0.5-0.4,0.4-1,0.7-1.4l0,0c0.7-0.3,1.3-0.8,1.9-1.4
			c0.8-0.7,1.5-1.7,2.8-1c0.3,0.1,0.5-0.1,0.9-1.1c0.8-1.9,2-3.5,3.4-5c1-0.1,1.3-0.4,0.6-1.3c-0.7-1.3,1-1.9,0.9-3
			c0-0.2,0-0.3,0-0.5c0.1-0.8,0.8-1.1,1.1-1.7c1-0.8,0.6-2.1,1-3.1c0.1-0.4,0.2-0.7,0.5-1c0.3-0.1,0.5-0.2,0.8-0.1
			c0.9,0.5,1.1,1.3,0.7,2.2c-0.4,0.9-0.4,1.8-0.3,2.8l0,0c-0.4,0.5-0.5,1.2-1,1.6C136.2,99.4,136.2,100.1,136.9,101z"/>
		<path fill="#2C2C2A" d="M108.6,124.7c-0.9,2.2-3.1,2.5-4.8,3.6c-5.1,3.2-10.6,5.5-16.3,7.2c-4.3,1.3-8.6,2.1-13.1,2.4
			c-3.5,0.2-7,0.7-10.5,0.4c-4.2-0.3-8.3-0.7-12.4-1.9c-4.7-1.4-9.4-2.8-13.6-5.3c-3-1.8-6.6-3-8.5-6.4c3.5,2.5,7.1,4.8,11,6.8
			c4.4,2.2,9.1,3.6,13.8,4.8c4.7,1.2,9.5,1.5,14.3,1.2c9.5-0.5,18.8-2.3,27.6-6.2C100.4,129.3,104.3,126.6,108.6,124.7z"/>
		<path fill="#5B5C5A" d="M140.1,70.4c0-1.6,0.1-3.2,0.1-4.8c1.4,0,1.7-2.2,3.3-1.9c0.2,0.1,0.3,0.2,0.4,0.3c0,2.9,0.4,5.8-0.2,8.7
			c-1.7,0.9-1.2-0.9-1.7-1.5C141.5,70.6,140.8,70.5,140.1,70.4z"/>
		<path fill="#494947" d="M132.8,102.9c-1.5,2.4-3,4.8-4.6,7.2c-0.6-0.4,0.1-0.9-0.3-1.2c-0.3,0.8-1.2,0.5-1.8,1
			c-0.7,0.6-1,2.2-2.5,1.4c0.9-1.8,2.5-3.1,3.5-4.8c1.4-0.3,1.6-1.8,2.6-2.5c0.6-0.3,0.8-1,1.3-1.4c0.6-0.7,1.3-1,2.2-0.5
			C133.5,102.5,133.2,102.7,132.8,102.9z"/>
		<path fill="#474745" d="M142.1,71.2c0.4-0.2,0.5-1.1,1.1-0.6c0.1,0.1,0.1,0.9-0.1,1c-1.3,1.2,0.4,0.8,0.6,1.1
			c0.7,1.6-0.4,3.2-0.2,4.8c-0.6,0.8-1.5,1.2-2,1.9c-0.1,0.1-0.3,0.2-0.5,0.2c-0.6-0.3-1.3-0.5-1.8-0.9c-0.1-0.4-0.1-0.8,0.1-1.2
			c-0.2-0.8,0.8-1.2,0.6-1.9l0,0c-0.2-0.6,0.3-0.8,0.7-0.9c1-0.2,0.8-0.8,0.6-1.5C141,72.3,141.1,71.6,142.1,71.2z"/>
		<path fill="#E4E4E0" d="M130.9,35.1c-1.7-0.3-1.4-2.1-2.3-3.1c-0.8-0.9-1.3-2.2-1.9-3.4c-0.2-0.4-0.3-0.9,0.1-1.3
			c0.3-0.2,0.7-0.2,0.9,0.1c2,2.6,4.7,4.5,5.9,7.7c0,0.1,0,0.3,0,0.4c-0.6,0.2-0.9-0.3-1.3-0.6c-0.5-0.3-0.9-0.4-1.3,0.1
			C131.1,35,131,35,130.9,35.1z"/>
		<path fill="#7A7B77" d="M138.1,52.1c-1-1.6-0.6-3.6-1.7-5.1c-0.3-1-0.8-2,0.3-2.9c0.4-0.3,0.9-0.6,1.4-0.7
			c0.7,1.1,0.7,2.6,1.6,3.6c-0.9,1.8,0.1,3.1,1.4,4.2c0.6-0.2,0.6,0.2,0.5,0.6c-0.1,0.4-0.4,0.6-0.8,0.7
			C139.9,51.8,139,52.1,138.1,52.1z"/>
		<path fill="#4C4D4A" d="M137.7,92.2c-0.2,0-0.5,0-0.7,0c-0.4,0.5-0.9,1-1.6,0.4c-0.1-0.2-0.2-0.4-0.2-0.6c0.8-2.1,1.5-4.2,1.9-6.4
			c0-0.1,0.3-0.2,0.5-0.2c0.3-0.2,0.4,0,0.6,0.2c0.3,0.3,0.9,0.2,1.2,0.7c0.2,0.5,0,1.1-0.1,1.6c-0.1,0.5-0.3,1-0.6,1.5
			C138,90.2,138.8,91.6,137.7,92.2z"/>
		<path fill="#575754" d="M142.6,58.9c0.1,0.3,0.7,0.2,0.7,0.6c-0.1,1.4-0.2,2.8-0.8,4.2c-0.2,0.1-0.3,0.1-0.5,0.1
			c-1.2,0-2.3-0.3-2.4-1.8c-0.2-0.9-0.6-1.8-0.3-2.7c0.6-0.4,1.1-0.8,1.8-1C141.7,58.3,142.3,58.4,142.6,58.9z"/>
		<path fill="#4C4D4A" d="M142.4,84.6c-0.1,0-0.2,0.1-0.3,0.1c-1.2,0.8-2.3,0-3.4-0.4c-0.4-0.2-0.8-0.4-0.5-1
			c0.5-0.8,0.5-1.8,0.9-2.6c0.7-0.4,1.5-0.6,2.1-1.2l0,0c1.1-0.6,1.3-0.5,1.6,1.2C142.7,82,142.5,83.3,142.4,84.6z"/>
		<path fill="#E4E4E0" d="M136.8,44.2c-1,0.8,0.2,1.9-0.4,2.7c-1.7-2.4-2.4-5.2-3.9-7.6c-0.8-1.3-1.8-2.6-1.7-4.3l0,0
			c1.1-0.5,1.4,0.4,1.6,1.1c0.2,0.6,0.1,1.3,0.8,1.7c0.2,0.2,0.4,0.4,0.6,0.6c0.3,0.7,0.9,1.3,1.2,2.1c0.1,0.9,0.3,1.7,0.8,2.5
			C136.2,43.5,136.6,43.7,136.8,44.2z"/>
		<path fill="#6A6A68" d="M135.3,92.6c0.5-0.1,1-0.3,1.6-0.4c-0.1,0.4-0.1,0.8-0.2,1.1c-0.2,0.4-1.1,0.3-0.8,0.9
			c0.5,0.9-0.4,1.5-0.3,2.3c0.1,0.8-1.3,0.7-1.1,1.5c-0.8,0.5-1.6,0.7-2.4,0.1c0.8-1.6,1.5-3.3,2.3-4.9
			C134.6,92.8,135,92.7,135.3,92.6z"/>
		<path fill="#4A4A49" d="M142.6,58.9c-0.6,0-1.2-0.1-1.7-0.5c-0.3-1-1.6-0.8-2-1.6c-0.1-0.9-0.3-1.8-0.4-2.8c1-1.5,1.2,0,1.7,0.5
			c0.3,0,0.6-0.2,1-0.2c0.3,0.3,0.7-0.1,0.9,0.1C142.5,56,142.7,57.4,142.6,58.9z"/>
		<path fill="#222221" d="M32.9,15.2c-1.8,1.7-4,2.8-5.3,4.9c-0.7-0.2-0.2-1.2-0.9-1.3c1.7-1.6,3.4-3.2,5.4-4.4
			C32.7,14.2,33,14.6,32.9,15.2z"/>
		<path fill="#6B6B69" d="M142.1,71.2c-0.3,0.7-1.3,1.5,0.2,2.1c-1,0.1,0.4,2.1-1.3,1.6c-0.3-0.1-0.6,0.4-1,0.6
			c-0.8-1.8,0.4-3.5,0.1-5.2C141.1,69.8,141.9,69.8,142.1,71.2z"/>
		<path fill="#4E4F4C" d="M132.2,98.2c0.8,0.1,1.6-0.4,2.4-0.1l0,0c0.2,1.2-1.2,1.5-1.5,2.5c-1.5,0.7,0.8,1,0.2,1.5
			c-1-0.1-1.7,0.2-2.1,1.2c-0.2,0.4-0.2,1.1-1,1c-0.7-1.1,0.2-2,0.4-3C131.1,100.3,131.6,99.2,132.2,98.2z"/>
		<path fill="#2C2C2A" d="M116.6,118.9c-2.1,2.2-4.7,3.9-7,5.9c-0.4,0.3-0.7,0.1-1.1-0.1c1.9-1.6,3.8-3.2,5.7-4.8
			c0.6-0.5,1.2-1,1.8-1.5C116.6,118.3,116.8,118.4,116.6,118.9z"/>
		<path fill="#494947" d="M116.6,118.9c-0.2-0.2-0.3-0.4-0.5-0.6c2.5-2.4,5-4.8,7.6-7.1c0.4,0.9,0.7,1.5-0.8,2
			c-1.7,0.5-2.6,2.3-3.9,3.4C118.2,117.3,117.4,118.1,116.6,118.9z"/>
		<path fill="#D2D3CF" d="M133.2,38.2c-0.9-0.1-1.1-0.7-1.1-1.5c0-0.9-0.1-1.6-1.2-1.7c0.2-0.4,0.2-0.9,0-1.5c1.2,0.5,2.1,1,2.8,1.9
			c0.8,0.6,1.3,1.4,1.6,2.4c-0.1,0-0.2,0.1-0.2,0.1C134.4,37.3,133.8,38,133.2,38.2z"/>
		<path fill="#20201F" d="M32.9,15.2c-0.2-0.4-0.4-0.7-0.8-0.8c1.4-1.4,3.1-2.3,4.8-3.2c0.1,0.5,0.2,1,0.2,1.5c0,0.2,0.2,0.7,0,0.7
			C34.9,12.5,34.4,14.9,32.9,15.2z"/>
		<path fill="#787976" d="M130.5,101.3c0.2,1-0.2,2-0.4,3c-0.9,0.3-0.8,1.3-1.5,1.9c-0.5,0.4-0.8,0.7-1.4,0.2
			C128,104.5,129.4,103,130.5,101.3z"/>
		<path fill="#4D4E4B" d="M141,51.2c-1.8-0.1-2.1-1.6-2.4-2.9c-0.1-0.6,0.7-0.8,1-1.3C140.3,48.3,140.8,49.7,141,51.2z"/>
		<path fill="#929390" d="M139.3,80.7c0.5,1.1-0.3,1.9-0.7,2.8c-0.2,0.5,0.2,0.2,0.3,0.4c0,0.7,0.3,1.6-0.7,1.9
			c-0.1-0.1-0.3-0.2-0.4-0.3c-0.7-2,0.5-3.5,1.2-5.2C139.1,80.3,139.2,80.5,139.3,80.7z"/>
		<path fill="#979894" d="M135.6,43.4c-0.6-0.8-1.3-1.7-0.7-2.8c-0.2-0.4-0.3-0.8-0.4-1.3c-0.1-0.4,0.6-0.6,0.6-0.4
			c0.2,0.8,1.2,0.3,1.4,0.9c-0.4,0.8,1.2,1.1,0.5,2C136.1,42,136.5,43.3,135.6,43.4z"/>
		<path fill="#7E7E7B" d="M138.9,56.9c0.7,0.5,2.6-0.6,2,1.6c-0.2,0.8-0.7,1.3-1.6,0.9C138.9,58.6,138.9,57.7,138.9,56.9z"/>
		<path fill="#81817F" d="M142.4,63.6c-0.1-1.4,0.2-2.8,0.9-4.1c0.4,1.5,0.6,3,0.6,4.5c-0.1,0-0.2,0-0.3,0
			C143.3,63.6,142.7,64,142.4,63.6z"/>
		<path fill="#5B5C58" d="M135.6,43.4c0.1-0.3,0.4-0.6,0.3-0.8c-0.5-1.5,0.3-1.1,1-0.7c0.4,0.5,0.7,1,1.1,1.5
			c-0.2,0.6-0.7,0.8-1.3,0.9C136.2,44.2,135.9,43.9,135.6,43.4z"/>
		<path fill="#72726F" d="M139.3,80.7c-0.1-0.1-0.3-0.3-0.4-0.4c-0.2-0.6,0.4-1,0.4-1.5c0.9-0.4,1.5,0.1,2,0.8
			C141.1,80.9,140.3,81,139.3,80.7z"/>
		<path fill="#757573" d="M140.2,55.3c-0.6,0-0.9-0.2-0.8-0.9c0.1-1.3-0.6-0.2-0.9-0.2c-0.5-0.5-0.3-1.1-0.3-1.6
			c1-0.5,1.9-0.8,2.5,0.5c0.1,0.2,0.1,0.3,0.1,0.5C140.7,54.2,140.2,54.7,140.2,55.3z"/>
		<path fill="#72726F" d="M142.8,80.7c-0.7-0.2-0.1-2-1.6-1.2c0.2-1.3,1.2-1.7,2.3-2C143.5,78.6,143.4,79.7,142.8,80.7z"/>
		<path fill="#81817F" d="M139.7,62c0.3,1.4,1.7,1,2.5,1.6c-0.3,1.1-0.8,1.7-2,1.6C139.9,64.2,139.8,63.1,139.7,62z"/>
		<path fill="#D2D3CF" d="M136.5,39.8c-0.3-0.5-1.2,0.6-1.3-0.5c0-0.2-0.4-0.3-0.4-0.1c0,0.4,0.1,0.9,0.1,1.3
			c-0.5-0.6-1.3-1-1.2-1.9c0.3-0.6,1-0.5,1.5-0.8c0,0,0.1-0.1,0.1-0.1C135.7,38.5,136.1,39.2,136.5,39.8z"/>
		<path fill="#757573" d="M142,54.5c-0.3,0.1-0.6,0.5-0.9,0c-0.6-0.2-0.4-0.8-0.7-1.1l0-0.1c-0.2-0.5,0.1-0.8,0.3-1.1
			c0.3-0.1,0.5-0.3,0.8-0.4C141.9,52.6,142.3,53.5,142,54.5z"/>
		<path fill="#4D4E4B" d="M140.7,52.2c-0.1,0.4-0.2,0.8-0.3,1.1c-0.5-0.9-1.4-1-2.3-0.8c0-0.1,0-0.3,0-0.4
			C139.4,50.9,139.4,50.9,140.7,52.2z"/>
		<path fill="#343433" d="M140.1,65.2c0.7-0.5,1.6-0.8,2-1.6c0.1,0,0.2,0,0.3,0c0.4,0.1,1-0.2,1.2,0.4c-0.6,0.1-1.2,0-1.4,0.9
			c-0.2,0.7-1.1,1.2-2,0.7C140.1,65.5,140,65.4,140.1,65.2z"/>
		<path fill="#20201F" d="M39.2,9.7c-0.3,0.5,0.9,0.7,0.3,1.2c-0.7,0.6-1.3,0-2-0.1C38.1,10.4,38.7,10,39.2,9.7z"/>
		<path fill="#6B6B69" d="M140,75.6c0.4,0.2,0.8,0.4,1.2,0.5c-1.1-0.1-1.4,0.7-1.8,1.4C139.2,76.8,139.4,76.1,140,75.6z"/>
		<path fill="#272725" d="M9.3,109.3c1.5,1.4,2.5,3.3,3.5,5.1c2.4,4.1,5.2,7.8,8.4,11.3c6.2,6.7,13.4,11.8,21.8,15.2
			c6.9,2.8,13.9,4.5,21.5,4.6c6.5,0.1,12.9-0.5,19.3-1.3c1.2-0.1,2.1-1.2,3.4-0.8c0.1,1.6-1.5,0.5-2,1.3c-9.4,2.2-18.9,2.9-28.4,1.4
			c-9.4-1.6-18.1-5.3-26-10.8c-4.3-3-7.8-6.7-11.5-10.4c-2.2-2.2-4.2-4.9-5.7-7.7c-0.7-1.4-1.7-2.6-2.6-3.9
			c-0.6-0.4-1.1-0.8-0.8-1.6C9.9,110.9,9.6,110.1,9.3,109.3z"/>
		<path fill="#2F2F2D" d="M85.3,144.7c0.4-0.8,1.7-0.2,2-1.3c0.5-0.1,1.1-0.3,1.6-0.4c1.1-0.3,2.1-0.7,3.2-1.2c4.5-1.8,9-3.5,13.2-6
			c5.8-3.4,11.3-7.4,15.6-12.7c1.1-1.3,2.4-2.4,3.6-3.6c0.2,0.1,0.3,0.2,0.3,0.4c-0.1,1.2-0.8,1.9-1.9,2.3c-0.4,0.4-0.8,0.8-1.2,1.3
			c-0.5,1.9-1.9,2.8-3.5,3.7c-0.6,0.1-0.8,0.5-0.8,1c-0.8,1.7-2.4,2.4-3.9,3.3c-3.9,2.5-7.7,5.4-11.9,7.5c-3.5,1.8-7.4,2.9-11.2,4.3
			C88.7,144,87.1,144.6,85.3,144.7z"/>
		<path fill="#484846" d="M137.7,92.2c0.7-0.8-0.5-2.2,0.8-2.8c0.7-0.4,1.1-0.8,0.4-1.6c0.1-0.5,0.3-1.1,0.4-1.6
			c0.6-1.1,1.5-1.4,2.7-0.8c-0.9,3.8-1.9,7.6-3.4,11.3c-0.1,0.1-0.3,0.1-0.5,0.2c-0.4-0.7-1.8-1.1-0.2-2.2
			C138.3,94.4,138.2,93.1,137.7,92.2z"/>
		<path fill="#565656" d="M128.9,115.5c-1,1-2,2-2.7,3.2c-0.3,0.3-0.5,0.6-0.8,0.9c-0.2,0.3-0.4,0.6-0.8,0.4c0-0.2-0.1-0.3-0.1-0.5
			c2-2.5,4.3-4.7,5.4-7.8c0.2-0.6,1.2-0.9,1.8-1.3C131.1,112.4,129.5,113.6,128.9,115.5z"/>
		<path fill="#484846" d="M136.9,101c-1.5,0.1-2-0.9-0.9-1.7c0.9-0.7,0.4-2.5,2.1-2.3C138.6,98.6,137.1,99.6,136.9,101z"/>
		<path fill="#2D2E2B" d="M142,85.5c-1.1-0.3-1.8,0.6-2.7,0.8c-0.3-0.3-1,0.3-1.1-0.5c0.7-0.5-0.3-1.6,0.7-1.9
			c1.1,0.2,2,1.2,3.3,0.8C142.1,84.9,142,85.2,142,85.5z"/>
		<path fill="#FBFCF7" d="M118.2,127.2c1.2-1.2,2.3-2.4,3.5-3.7c0.7,0.3,1.3,1.1,0.6,1.5C121,125.8,119.8,127,118.2,127.2z"/>
		<path fill="#FBFCF7" d="M113.5,131.5c1.3-1.1,2.6-2.2,3.9-3.3C116.9,130.2,115.1,131.8,113.5,131.5z"/>
		<path fill="#FBFCF7" d="M124.6,120c0.3-0.1,0.5-0.3,0.8-0.4c0.3,1.7-1.1,3.2-2.4,2.7C123.5,121.5,124,120.8,124.6,120z"/>
		<path fill="#FBFCF7" d="M135.5,112c-1.5,0.1-1.4-1-1.6-1.7c-0.2-0.5,0.1-1.2,0.8-1.1c0.6,0,0.7,0.6,0.4,1.1
			C134.7,110.8,135.3,111.3,135.5,112z"/>
		<path fill="#FBFCF7" d="M10.2,111.7c0.3,0.5,0.6,1.1,0.8,1.6c-0.5,0-1.1,0-1.4-0.5C9.4,112.2,9.8,111.9,10.2,111.7z"/>
		<path fill="#141412" d="M133.2,102.1c-0.4-0.7-1.1-0.2-1.6-0.5c0.3-0.4,0.4-1.1,1.2-1c0.4,0,0.6,0.3,0.8,0.6c-0.3,1,1.6,0,1,1.1
			c-0.3,0.5-1,1.2-1.8,0.6C133,102.6,133.1,102.4,133.2,102.1z"/>
		<path fill="#484848" d="M72.2,2.3c-2,0.2-4,0.3-6,0C68.2,2,70.2,2,72.2,2.3z"/>
		<path fill="#484846" d="M135.7,96.6c0.7-1-1.3-2.9,1.1-3.2C136.3,94.4,136.7,95.8,135.7,96.6z"/>
		<path fill="#6A6A68" d="M133.6,101.2c-0.3-0.2-0.7-0.2-0.8-0.6c0.4-0.9,1-1.8,1.7-2.5c0.9,0.8,0,1.3-0.4,1.7
			C133.6,100.3,133.5,100.7,133.6,101.2z"/>
		<path fill="#272725" d="M92,141.8c-0.8,1.1-2,1.1-3.2,1.2C89.8,142.5,90.7,141.6,92,141.8z"/>
		<path fill="#4E4E4F" d="M128.3,110.3c-0.9,1.1-1,2.2-2.5,2.6C126.6,111.9,126.7,110.8,128.3,110.3z"/>
		<path fill="#2C2C2C" d="M123.3,114.6c0.8-0.5,1.7-0.3,1.9-1.3C125.1,114.9,125,115,123.3,114.6z"/>
		<path fill="#21211F" d="M138.9,87.9c1.2,0.1,0.9,1.1,0.8,1.6c-0.1,0.5-0.8-0.2-1.2-0.1C138.6,88.9,138.7,88.4,138.9,87.9z"/>
		<path fill="#2D2E2B" d="M141.7,83.8c-0.8,0.1-1.8,0.3-1.9-0.7c-0.1-0.8,0.5-0.7,0.9-0.2C141,83.2,141.3,83.5,141.7,83.8z"/>
		<path fill="#AFB0AC" d="M135.2,37.9c-0.1,1.2-1,0.6-1.5,0.8c-0.1-0.1-0.3-0.3-0.4-0.4c1-0.5-0.8-1.4,0.2-1.7
			C134.4,36.2,134.4,37.7,135.2,37.9z"/>
		<path fill="#3B3C3A" d="M140.5,53.4c0.2,0.4,0.5,0.8,0.7,1.1c-0.3,0.3-0.5,0.8-1,0.8C139.2,54.5,140.6,54,140.5,53.4z"/>
	</g>
	<g>
		<path fill="#040605" d="M81,114.1c-0.6,0.8-1.2,1.6-1.8,2.3c-2.7,2-4.5,5-7.2,7c-1.1,1.4-3.1,1.3-4.2,1.3
			c-7.5,0.5-15.4,2.9-22.3-2.5c-0.1-0.1-0.2-0.3-0.3-0.5c-2.1-4.1-4-8.4-7-11.9c-3.2-3.8-5.4-8.2-8.4-12.1c-2.5-3.3-2.9-7.5-4-11.3
			c-0.8-2-1-4.2-1.5-6.3c-1.1-8.3-0.2-16.3,4.2-23.7c0.5-0.9,0.7-1.8,0.6-2.8c0-0.3,0-0.5,0-0.8c0.4-2.5,0.6-5.2,3-6.8
			c2.1-1.8,2.8-4.4,4.2-6.7c1.1-2,2.9-3,4.9-3.9c0.7,0,1.4,0.1,2.1,0.2c1.6,0.2,2.9,0.6,2,3.2c2.4-2.1,4.8-2.7,7-3.8
			c0.9-0.5,1.9-0.5,2.8,0.2c0.9,0.7,0.3,1.6,0.2,2.4c-0.4,3.4-1.7,6.6-2.1,10.1c-0.2,2.5-2.3,4.6-1.6,7.3c-1.5,5.2,0.9,9.7,2.9,14.1
			c1.2,2.8,4.3,4,6.6,5.7c4.4,3.3,9,6.3,13.2,9.9c3,2.7,5.2,6.1,7.1,9.6c0.6,1.1,0.6,2.5,0.3,3.8c-0.6,2.9-0.3,5.6,0.6,8.4
			c0.2,0.7,0.5,1.5,0,2C80.7,110.2,81.3,112.3,81,114.1z"/>
		<path fill="#0F1313" d="M50.8,54.9c-0.5-3.8,1.8-7,2.5-10.6c0.5-2.5-0.2-5.4,1.8-7.6c0.3-0.3,0.1-0.8-0.3-1
			c-0.9-0.5-1.6-0.2-2.5,0.2c-2.7,1.4-5.4,2.7-8.5,4.3c0.2-0.8,0.1-1.1,0.3-1.3c1.4-1.5,1.8-2.4-0.9-2.4c-0.6,0-1.3-0.4-1.9-0.6
			c0.3-2.8,2.7-3.6,4.5-5c1.7-0.8,2.8-2.3,4.5-3.2c0.2-0.1,0.4-0.1,0.5,0c0.3,0.1,0.6,0.2,0.8,0.2c1.4-0.1,2.7-0.4,3.4,1.3
			c0.7,1.9-0.5,2.6-2.4,3.7c1.4-0.5,2.2-0.4,3-0.6c2.1-0.6,3.9-2.2,6.2-2.3c0.3,0,0.5,0.1,0.8,0.2c1.3,1.1,2.3,2.6,4.4,2.1
			c0.5-0.1,1.2,0.6,1.2,1.4c0,0.3-0.1,0.5-0.2,0.8c-0.9,1.2-2.7,1.7-2.9,3.5c-0.8,0.9-1.9,1.5-3,1.8c-6.6,1.8-8.3,6.7-8.5,12.7
			c0,0.3-0.1,0.6-0.2,0.8c-0.4,0.9-0.9,1.8-2,2C51.2,55.2,51,55.1,50.8,54.9z"/>
		<path fill="#1F2828" d="M83.2,66.3c-4.7,0-8.3-3.2-8.3-7.3c0-5.4,5.5-11.4,10.4-11.2c4,0.1,8.6,5,8.5,9.2
			C93.7,61.8,88.9,65.9,83.2,66.3z"/>
		<path fill="#181E1E" d="M111.2,32.3c1.2,1.4,3.4,1.8,3.5,4.1c1,1.5,0.5,2.7-0.8,3.7c-1.8,0.5-2.6-1-3.6-2c-1-0.9-1.9-1.6-3.2-0.8
			c-2.7-2.5-6.1-3.8-9.1-5.7c-1.1-0.7-2.5-1-3.5-2.1c-0.1-0.3-0.1-0.5,0-0.8c0-0.3,0.9-0.3,0.5-0.5c-1-0.5-2.1-0.9-3,0.3
			c-1.5,0.4-2.8,0-3.8-1.2c0.5-1.5-1.7-1-1.6-2.2c0.1-3.5,2.7-2.1,4.5-2.3c3.9-0.3,7.1,1.2,10.4,3.1c1.7,0.9,3.1,2.4,5,2.9
			c0.6,1.6,1,3.4,3.4,2.7C110.4,31.3,110.8,31.9,111.2,32.3z"/>
		<path fill="#131919" d="M50.8,54.9c0.2,0,0.4,0,0.6,0c0.8,0.3,1.4,0.9,1.9,1.5c0.2,0.2,0.2,0.5,0.3,0.8c-0.5,1.8-0.7,3.4,1.2,4.6
			c0.9,0.6,0.8,1.9,1.5,2.8c0.1,0.2,0.3,0.5,0.3,0.7c0.4,2,2,3.4,2.4,5.5c0.3,1.4,2.7,1.7,4.2,2.2c0.4,0.1,0.8,0.2,1.2,0.4
			c0.5,0.3,0.8,0.7,1.2,1.1c0.7,1.1,2.1,1.1,2.9,1.9c0.2,0.2,0.3,0.5,0.3,0.7c-0.3,1.1,0.3,1.5,1.1,2.1c5.3,3.3,9.4,7.8,11.9,13.5
			c1.1,2.7,2.9,5.7,0.9,8.9c-0.4,0.7-0.3,1.5,0.1,2.3c1,1.9,1,3.9,0.5,6l0,0c-0.9,0.8-1,2.1-1.8,3c0,0.5,0.1,1-0.6,1.2
			c-0.6-2-1.7-4.1,0.7-5.7c0.2-0.1,0.3-0.8,0.2-1c-1.7-3.2-1.5-6.6-0.8-10c0.6-3-1.8-5.1-3.3-7.2c-3.3-4.6-7.8-8.1-12.6-11.2
			c-3.6-2.4-6.9-5.2-10.3-7.7c-2-1.5-2.1-3.9-3-5.9C50.6,62,49.7,58.5,50.8,54.9z"/>
		<path fill="#202827" d="M26.5,86.2c1.4,4.4,2.1,9.2,5.1,12.9c3.2,4,5.7,8.5,8.8,12.5c2.1,2.7,3.6,6,5.3,9c0.3,0.6,0,0.9-0.5,1.2
			c-1.2-0.7-1.3-2.7-3.4-2.7c-0.8,0-1.3-1.5-1.3-2.4c0-1.3-0.8-1.7-1.6-2.1c-2.9-1.5-3.9-4.5-5.5-7c-0.4-0.4-0.7-0.8-1.1-1.2
			c-0.6-0.5-1.3-1-1.3-1.9c0-0.5,0.4-0.9-0.2-1.3c-2.8-1.8-3.6-4.7-4.5-7.6c-0.3-1-2-0.8-1.9-2.2c-0.3-0.7-0.2-1.4-0.2-2.1
			c0.8-1,1.5-2.1,0.4-3.3c-0.2-0.5-0.4-1.1-0.2-1.7C25.1,85.7,25.8,85.7,26.5,86.2z"/>
		<path fill="#1F2727" d="M55.5,32.9c-1.1-0.2-2.5,1.5-3,0.6c-0.8-1.4,1.1-1.8,2-2.5c0.7-0.6-0.1-1.3-0.2-1.9
			c-0.1-0.7-0.7-0.9-1.3-0.6c-1,0.5-1.7,0.2-2.1-0.7c0.5-0.5,1-0.9,1.6-1.4c2.1-0.6,4.4-0.7,6.1-2.3c2.6-0.6,4.7-3.2,7.7-2.4
			c1.5,0.4,2,1.9,3.1,2.7c0,0.3-0.2,0.5-0.3,0.7c-0.9,0.7-1.9,1.3-2.6,2.2c-0.3,0.9-1.7,1.2-1.2,2.5c-0.6,1-1.5,1-2.5,0.8
			c-0.2,0-0.5-0.1-0.7-0.1C59.3,29.9,57.5,31.7,55.5,32.9z"/>
		<path fill="#1F2626" d="M62.6,30.6c0.8-0.4,1.6-0.7,2.4-1.1c0.6-0.9,1.7-1.1,2.7-1.3c0.3,0,0.6,0,0.8,0c1.6,0.3,2.9-0.5,4.5-1.4
			c-0.9-0.6-1.7-0.5-2.4-0.8c-0.5-0.2-1-0.5-1.1-1.2c0-1.1,1.1-1.6,1.5-2.5c3-1.9,6.2-2,9.5-1.2c0.9,0.8,2.6,1.4,0.8,3
			c-0.1,0.4-0.4,0.6-0.7,0.8c-0.8,0.3-0.5,1.6-1.5,1.8c-0.4-0.1,0.1,0-0.3,0c-0.3,0-0.5-0.5-0.8-0.2c-0.1,0.1,0,0.5-0.2,0.7
			c-0.1,0.1,0,0.1,0.2,0.3c0.9,0.6,2.9,0.5,2.2,2c-0.5,1.2-2.2,1.8-3.8,1.1c-0.3-0.1-0.7,0.3-1,0.5c-1.3,0.4-2.6,0.2-3.9-0.2
			c-0.8,0.1-1.6-0.8-2.4-0.2c-1.2,0.3-2.4,0.5-3.6,0.9c1.2-0.4,2.5-0.5,3.7-0.9c2,0.2,0.6,1.7,1,2.5c-0.5,0.9-0.5,2.8-2.1,1
			c0-1-1.1-1.7-1.5-1.5C63.5,34.9,63.8,31.5,62.6,30.6z"/>
		<path fill="#F3F6F6" d="M126,95.1c0,1.1-0.6,1.7-1.6,1.8c-0.4-0.3-0.9-0.2-1.4-0.2c-1.1-0.2-1.8,1-2.9,0.7c0-1.9-0.5-3.2-3-2.2
			c0.8-2.9,1.8-5.6-1.1-7.7c0.2-1.6,2-1,2.7-1.9c0.2-0.2,0.5-0.2,0.7-0.2c1.1,0.4,1.2-0.4,1.4-1.2c0.3-1,0.4-2,0.6-3
			c0.2-0.8,0.4-1.7,0.4-2.5c0.2-1.2-0.2-2.6,1.6-2.9c0.7,0.1,1,0.7,1.2,1.2c0.6,2,0,4,0.1,6c0.1,1.4,0.6-0.4,0.9,0
			c1.7,0.7,0.6,2.2,1,3.2c0,0.4-0.1,0.8-0.3,1.2c-1.9,0.8-4,1.4-3.9,4c2-1.3,3.9-1,5.5,0.7c-0.2,0.4-0.4,0.7-0.6,1.1
			C125.8,93.2,126.1,94.3,126,95.1z"/>
		<path fill="#313939" d="M75.7,30.6c0.1-0.5,0.5-1.3,0.7-1c1.4,1.7,2.4-0.3,3.7,0.1c-0.3-1.5-2-0.8-2-1.5c0-1-2.3,0.7-1.1-1.1
			c0.7-1,0.7-1.1,2.2-0.6c0.5,0.2,0.8,0.5,1.3,0.7c0.2,0.1,0.4,0.2,0.7,0.3c2.3,0.9,4.6-0.7,6.9-0.1c1.7,1.1,2.9,3.1,5.4,2.5
			c0.7,0.4,1.3,1,1.6,1.8c0.2,1.4,1.3,2.8,0.5,4.3c-0.6,0.7-1.2,1.1-2.2,0.3c-1.9-1.5-4.1-2.7-6.4-3.4c-2.7-0.7-5.5,0.1-8.3,0
			c1.5,0.9,3.8,0.9,3.4,3.5c0,0.3-0.2,0.5-0.3,0.7c-1.6-0.4-3.2-0.9-4.6-1.7c-0.1-0.1-0.2-0.1-0.4-0.2
			C75.9,33.8,75.9,32.1,75.7,30.6z"/>
		<path fill="#242C2B" d="M83.4,110c-1-2.1,0.1-4.7-1.7-6.6c-0.2-0.2-0.1-0.8,0-1.1c2.7-7.4-1.9-12.3-6.3-17.1
			c-2.2-2.4-4.2-5-7.7-5.9c-1-0.3,0.6-1.5,0.8-2.4c0.6-0.7,1.7-0.8,2.1-0.3c1.8,3,5.6,3.5,7.3,6.5c0.3,2.6,3.5,2.8,4.2,5
			c0.9,0.4,1.4,1.2,1.4,2.1c0.1,2,0.6,3.8,1.8,5.5c0.3,0.5,0.4,1.2,0.2,1.7c-1.3,2.7-0.9,5.5-0.5,8.3c0.2,1.5-0.8,2.6-1,3.9
			C84,109.8,83.8,110,83.4,110z"/>
		<path fill="#202727" d="M29.5,53.1c0.9,1.5,0.5,2.8-0.4,4.1c-2.7,3.8-3.3,8.1-3.9,12.6c-0.4,3.5-0.6,7-0.4,10.5
			c-2.2,0.8-1.8-2.2-3.4-2.4c1.1-5.1,0.5-10.2,1-15.4c-0.3-0.5,0-0.8,0.3-1.1c1.3-1.2,2.3-2.6,2.2-4.5c-0.2-1.5,0.7-2.3,1.9-2.9
			C27.8,54.1,28.4,52.9,29.5,53.1z"/>
		<path fill="#2D3635" d="M67.9,34.1c1.3,0.8,1.4-0.5,1.8-1.2c0.2-0.6,0.7-0.9,1.3-0.8c0.8,0.1,1.7,0.4,1.9,1.1
			c0.5,2.1,2.2,1.8,3.7,2c0.1,0.1,0.2,0.1,0.3,0.2c-0.5,2.3-3.1,1.4-3.5,1.3c-3.9-1.3-6.5,1.4-9.4,2.8c-1.5,0.7-3.1,1.7-4.5,2.6
			c-3.4,2.1-3.6,5.4-4.5,8.6c0,1.3-0.1,2.5-1.9,2.4c-1.2-6.1,2.1-11.9,8.1-13.8c1.3-0.4,2.5-1.1,3.7-1.6c0.3-0.2,0.5-0.6,0.9-0.8
			C67.4,35.9,67.8,35.4,67.9,34.1L67.9,34.1z"/>
		<path fill="#B2BEBF" d="M114.7,64.9c-0.9-1.4-1.5-3-1.8-4.6c0.5-0.5,1.3-0.4,1.6,0c1.3,1.7,2,0.2,3-0.3c0.7-0.1,1.4,0.2,1.8,0.8
			c1,1.9,2.2,1,3.3,0.2c0.6-0.1,1.2,0,1.7,0.2c0.8,0.5,1.4,1.2,1.7,2.1c0.1,0.5,0.2,0.9,0.3,1.4c0.6,3.3,0.4,3.5-3,4.1
			c-0.8-0.5-0.5-1.4-0.6-2.1c-0.1-0.3,0-0.9-0.6-0.5c-0.2,0.1-0.3,0.5-0.4,0.8c-0.5,1.3-1.1,2.4-2.8,1.8c-0.9-0.4-2.5-0.4-2-1.8
			C117.6,64.4,115.7,65.1,114.7,64.9z"/>
		<path fill="#323B3B" d="M113.5,40.1c0.8-1.1,1.5-2.3,1.2-3.7c0.8,0.2,1.5,0.3,1.8,1.2c-0.3,1.4,0.6,2,1.7,2.4c1,2.5,3.5,4,4.6,6.5
			c-1.2,0.6-2.6,0.7-3.4,1.9c-2.1-1.2-4.4-2-5.7-4.2C112.9,42.9,111.7,41.6,113.5,40.1z"/>
		<path fill="#232C2B" d="M130,69.1c1.4,5.6,1,11.1-1.1,16.5c-0.1,1.6,0.2,3.4-2.3,3.2c0.7-4-0.9-8.3,1-12.2
			c1.1-1.7,1.6-3.5,0.7-5.4c-0.4-1.1-0.7-2.3,0.4-3.2C129.9,67.4,129.7,68.5,130,69.1z"/>
		<path fill="#5C6968" d="M84,109.4c0.7-3.2-0.6-6.4,0.1-9.5c0.5-2.4,1-4.6-0.7-6.7c-0.5-0.6-0.6-1.4-0.4-2.2
			c0.4-1.2-0.1-2.1-1.4-2.4c-0.4-0.9-0.8-1.9,0-2.8c2.6,2.5,4,6,4.3,9.2C86.3,99.7,87.4,104.9,84,109.4z"/>
		<path fill="#1D2524" d="M119.5,48.3c-0.2-3.1,2.1-1.6,3.4-1.8c1.2,2.3,3.1,4.4,1.5,7.3c-0.4,0.7,1.5,1,0.9,2.1
			c-0.6,0.6-0.9,1.9-2.2,1.1c-0.2-0.2-0.4-0.4-0.5-0.6c-0.6-1.3-1.3-2.6-1.8-4C120.3,51.1,119,50,119.5,48.3z"/>
		<path fill="#CFD6D6" d="M126.7,88.5c1.4-0.5,1.7-1.7,2.1-3c1.7,2.6,0,4.6-1.1,6.7c-1.1-0.2-2.3-0.5-3.4-0.7
			c-0.7-0.1-1.3-0.6-1.1,0.8c0.3,1.3-0.7,0.7-1.3,0.5c-0.8-0.2-1.6-0.4-0.8-1.5c0.6-0.9,1.1-1.8,1.3-2.9c0.2-1.3,0.8-2,2.1-0.7
			c0.4,0.4,0.9-0.1,1.3-0.4C126.4,87.5,126.1,88.4,126.7,88.5z"/>
		<path fill="#313939" d="M117.6,60.1c-2,0.2,0.1,2.5-1.4,2.8c-1.6,0.3-0.5-2.8-2.5-2.3c-0.2,0-0.5-0.2-0.8-0.4
			c-0.2-0.6-0.4-1.2-0.6-1.7c-0.1-2.5,1.9-2.5,3.6-2.9c0.4-0.1,0.8-0.2,1.2-0.2c0.3,0,0.6,0,0.9,0c0.6,0,1.2,0.1,1.7,0.3
			c0.4,0.2,0.7,0.6,0.9,1c0.3,1.2,0.3,2.3-0.5,3.3C119.3,61,118.4,59.6,117.6,60.1z"/>
		<path fill="#596463" d="M77.5,83.3c-0.5-1.4-2.1-1.7-3.1-2.6c-1.2-1.1-3.4-1.1-3.7-3.5c-0.1-0.6-1.4-0.3-2.2-0.4l0,0
			c-0.4-0.4-0.9-0.9-0.8-1.6c0.3-1.2-1.1-0.4-1.3-1c-0.4-0.3-0.9-0.6-1.2-1c-0.3-0.8-0.7-1.5-0.2-2.3c3.3,0.9,5.6,3.2,7.4,5.8
			c0.9,1.4,1.8,2.4,3.3,3.1c2.1,1,3.3,3,4.6,4.8C78.8,85.2,78.3,83.9,77.5,83.3z"/>
		<path fill="#2E3736" d="M81,24c-0.2-0.2-0.4-0.4-0.6-0.6c1.7-0.8,0.1-1.6,0-2.4c2.5,1.1,5.2-0.5,7.8,0.5c1,0.4,2.1,0.4,2.9,1.3
			c-0.3,0.6-0.9,0.8-1.5,0.6c-1.8-0.6-2.3,0.5-2.7,1.8c-0.9,0.2-1.4,0.8-2,1.4c-0.4,0.1-0.8,0.1-1.2-0.1C83.1,25.4,81,25.8,81,24z"
			/>
		<path fill="#414A48" d="M81.6,37.1c0-0.2,0-0.4,0-0.6c0.5-1.1,1.3-0.9,2.3-0.6c2.8,0.9,5.7,1.6,8.5,2.4c3.8,1.1,6.7,3.8,9.7,6.1
			c0.6,0.5,0.8,1.1,0,1.7c-0.7-0.2-1.5-0.4-2.1-0.7c-2.2-0.7-3.1-3-5.4-3.8c-2.6-1-5-2.2-7.8-2.7C84.9,38.6,83.1,38.1,81.6,37.1z"/>
		<path fill="#2B3433" d="M21.4,77.9c1-0.7,1.7-0.4,1.8,0.7c0.1,1.1,0.8,1.4,1.6,1.7c1.4,1.7,0.7,4.1,1.7,5.9
			c-0.6,0-1.3-0.1-1.7,0.6c-1.5,0.4-2.1-0.5-2.3-1.8c-0.5-0.4-0.7-1.1-0.4-1.5C23.3,81.4,22,79.7,21.4,77.9z"/>
		<path fill="#4E5A57" d="M53.1,53.1c1.1-0.4,1.3-1.6,1.9-2.4c0.8,2.1-0.7,4.1,0.1,6.4c1.1,3.1,2.3,6.1,4,8.9
			c0.2,0.4,0.3,0.8,0.1,1.3c-1.9,0.4-2.5-1-3.1-2.3l0,0c-0.8-1.7-1.2-3.6-2.6-5c-0.9-0.9,0.3-2.2-0.4-3.2l0,0
			C52.5,55.5,52.7,54.3,53.1,53.1L53.1,53.1z"/>
		<path fill="#4C5555" d="M99.9,45.4c0.7,0,1.4-0.1,1.9,0.6c1.7,0,3.5,0.8,5.1-0.6c1.8-1,3.4-0.3,5.1,0.5c0.3,0.1,0.5,0.3,0.7,0.5
			c0.4,0.5,0.7,0.9,0.3,1.5c-0.7,0.5-1.5,0.7-2.4,0.7c-0.7-0.2-1.2-0.7-1.8-0.9c-0.6-0.2-1.2-0.2-1.6,0.3c-0.5,0.5-0.2,1.1,0,1.6
			c0.4,0.9,1.5,1.6,1.1,2.8c-0.7,0.2-1.8,0.2-1.9-0.4c-0.5-2.9-2.9-3.6-5-4.7C100.7,47.1,100.3,46.1,99.9,45.4z"/>
		<path fill="#192120" d="M108.2,52.5c-0.5-0.7-0.9-1.5-1.5-2.2c-0.7-1-1.9-1.7-0.2-3c1.5-1.2,2.4-0.8,3.4,0.4
			c0.2,0.2,0.4,0.4,0.6,0.6c1.9,2.3,1.4,3.5-1.9,4.2l-0.2,0L108.2,52.5z"/>
		<path fill="#6B7A78" d="M23,61.9c-0.2,0.2-0.4,0.4-0.6,0.7c-1.3-2,0-3.7,0.9-5.1c2.1-3.3,2.8-7.2,4.9-10.4
			c1.1,2.6-0.1,4.9-1.1,7.2c-0.5,1.1-2.1,1.4-1.7,3C24.6,58.8,24.1,60.5,23,61.9z"/>
		<path fill="#495354" d="M46.1,31.2c-1.7,1.5-3.6,2.7-4.8,4.7c-1.5,1.2-3.1,2.4-4.6,3.7c-0.2,0.2-0.4,0.1-0.6-0.1
			c-0.1-1.8,0.8-2.8,2.3-3.7c2.5-1.5,4.3-4,7-5.2C46,30.3,46.2,30.6,46.1,31.2z"/>
		<path fill="#566061" d="M123,56.6c1,0.9,1.4-0.9,2.3-0.6c0.2,2.2,2.1,3.6,2.7,5.6c0.5,1.5,1.6,2.8,1.5,4.5c-0.6,0.3-1,0-1.5-0.2
			c-1-0.8-1.6-2-2.7-2.7c-0.4-0.5-0.9-1.1-1.3-1.6c0.1-0.1,0.1-0.2,0.1-0.3c1.1-1.6-0.4-2-1.3-2.7C122.5,57.8,122.4,57.2,123,56.6z"
			/>
		<path fill="#4D5757" d="M114.7,64.9c1.1,0.1,1.6-1.9,2.8-0.8c0.8,0.7,0.3,1.7,0,2.7c-0.5,1.3,1.2,0.6,1.4,1.3
			c-1,1.6-1.2,3.5-1.7,5.3c-0.8,0.3-1.4-0.2-1.8-0.8c0.2-1.7-0.7-3.4,0.7-5.1c0.6-0.8-0.5-1.8-1.6-2.2c0,0,0-0.2,0-0.2
			C114.5,65,114.6,64.9,114.7,64.9z"/>
		<path fill="#596462" d="M26.5,95.7c1.3-0.5,1.2,0.4,1.2,1.2c0.1,1.7-0.5,3.7,2.5,3.9c1.1,0.1,1.6,2.1,1.5,3.2
			c-0.1,1,0.6,1.6,0.7,2.4c-2.5-1.9-4.5-4.2-5.3-7.3C26.8,98,26.7,96.8,26.5,95.7z"/>
		<path fill="#5B6766" d="M27.1,54.2c-0.3-2.5,1.2-4.7,1.1-7.2c0.2-0.3,0.5-0.7,0.7-1c0.5-0.4,1-0.4,1.6-0.2c0.3,0.3,0.6,0.7,0.3,1
			c-1.5,1.9-1.2,4.2-1.4,6.3c0,0,0,0,0,0C28.7,53.4,28.5,55.2,27.1,54.2z"/>
		<path fill="#5D6867" d="M72.1,123.5c0.5-1.9,2.3-2.8,3.6-4c1-0.9-0.2-3,1.9-3c0.5,0,1.1-0.3,1.7,0
			C78.3,120.3,74.9,121.6,72.1,123.5z"/>
		<path fill="#323A3A" d="M108.6,52.6c1.1-1.2,3.7-1.7,1.9-4.2c0.7-0.5,1.5-0.7,2.4-0.6c0.5,0.3,0.8,0.7,0.7,1.3
			c-0.7,0.9-1.5,1.7-0.7,2.9c0.3,0.7,0.5,1.3,0.1,2c-0.6,0.6-1.2,0.9-2,0.4C110.5,53.4,108.6,54.3,108.6,52.6z"/>
		<path fill="#6C7676" d="M111.1,54.3c0.7-0.2,1.3-0.4,2-0.7c2-0.5,2.7,0.7,2.9,2.4c-1.4,0.5-3.1,0.7-3.6,2.4
			C111.4,57.3,110.8,55.9,111.1,54.3z"/>
		<path fill="#576261" d="M59.1,67.3c0-0.5,0.1-0.9,0.1-1.4c1.9,1.7,3,4.4,5.9,4.8c0.2,0.8,0.4,1.6,0.6,2.4
			c-1.1,0.4-1.7-0.6-2.5-0.9c-1.7-0.9-3.6-1.3-4.4-3.3C58.4,68.2,58.2,67.7,59.1,67.3z"/>
		<path fill="#576260" d="M33.5,107.6c1.1,1.5,3.2,2.4,3.4,4.7c0,0.6,0.8,0.9,1.6,0.8c1.6-0.1,0.7,0.8,0.5,1.4
			C36.1,113.8,33.8,110.9,33.5,107.6z"/>
		<path fill="#242D2C" d="M36,39.5c0.2,0,0.4,0,0.6,0.1c-0.7,2.8-1.9,5.2-4.2,7c-0.5-0.5-0.6-1-0.6-1.7c0.4-1.9,1.5-3.5,2.8-5
			C35.1,39.8,35.6,39.6,36,39.5z"/>
		<path fill="#EAEFEE" d="M114.7,82.7c-0.4-2,0.8-3.5,1.2-5.3c0.3-0.2,0.5-0.2,0.8,0c0.6,1,1.9,1.6,1.7,3.1c-1,0.8-1.2,1.9-1.5,3.1
			c-0.5,1.1-0.4,2.6-1.8,3.3l-0.2,0l-0.2,0C113.6,85.4,115.3,84,114.7,82.7z"/>
		<path fill="#3A4343" d="M22.5,85.1c0.6,0.7,1.3,1.5,2.3,1.8c0.5,0.3,0.6,0.7,0.6,1.2c-0.3,1,0,2.1-0.4,3c-0.1,0.8-0.2,1.6-0.2,2.5
			c-0.4-2-0.9-3.9-2.1-5.5C21.8,87,21.9,86,22.5,85.1z"/>
		<path fill="#D3DADB" d="M120,97.4c0.9-0.7,1.5-2,3-1.2c1.5,1.8-0.9,2.1-1.1,3.3c-0.2,0.7-0.4,1.4-0.6,2.1
			c-0.2,0.6-0.3,1.4-1.2,1.1c-0.5-0.2-0.4-0.7-0.1-1.2C120.8,100.2,119.6,98.8,120,97.4z"/>
		<path fill="#6D7A78" d="M34.7,39.9c-0.3,1.8-1.6,3.2-2.3,4.8c-1-0.1-0.7,1.4-1.7,1.3c-0.6,0-1.2,0-1.8,0c1.1-1.9,3.3-3,3.8-5.4
			C32.9,39.7,34,40,34.7,39.9z"/>
		<path fill="#343C3B" d="M111.2,32.3c-0.7-0.2-1.3-0.5-2-0.4c-2.6,0.3-3.1-0.2-2.8-3.1C108.7,29,109.9,30.8,111.2,32.3z"/>
		<path fill="#798080" d="M115.1,86.8c0.4-1.2,0.5-2.5,1.4-3.6c0.5-0.6,0.8-2.2,1.7-0.4c0.4,0.8,0.6,1.8,0.7,2.7
			c0.4,2.7-2.5,0.5-3,2C115.6,87.4,115.4,87.1,115.1,86.8z"/>
		<path fill="#4A5656" d="M77.5,83.3c0.9,0.4,1.8,0.8,2.8,1.2c0.4,0.4,0.9,0.8,1.3,1.3c0,0.9,0,1.9,0,2.8
			C81,86.2,77.4,86.2,77.5,83.3z"/>
		<path fill="#424C4C" d="M70.9,22.3c0.2,1.1-0.8,1.6-1.2,2.5c-0.3,0.1-0.4,0-0.6-0.2c-1.4-0.5-1.6-2.2-2.9-2.9
			c1.1,0.2,2.8-1.8,3.3,1C69.6,23.3,70.3,22,70.9,22.3z"/>
		<path fill="#D6DEDE" d="M116.5,77.4c-0.2,0-0.4,0-0.5,0c-0.9-1.5-0.7-3.2-0.5-4.8c0.6,0.3,1.1,0.5,1.7,0.8
			c0.3,0.2,0.5,0.5,0.6,0.8C117.7,75.3,118.5,76.8,116.5,77.4z"/>
		<path fill="#424A4B" d="M58.5,24c-1,3.4-3.9,1.9-6.1,2.3C54.2,25.1,56.4,24.7,58.5,24z"/>
		<path fill="#68716F" d="M46.1,31.2c-0.2-0.2-0.5-0.4-0.7-0.7c1.5-1.1,2.7-2.8,4.9-2.8C49.4,29.5,47.9,30.6,46.1,31.2z"/>
		<path fill="#9BA2A1" d="M121.9,99.6c-0.3-1.3,1.7-1.9,1.1-3.3c0.4-0.1,0.9-0.3,1.3-0.4c0,0.3,0,0.7,0,1
			C124.9,99.1,124.1,100,121.9,99.6z"/>
		<path fill="#DCDFE1" d="M120,101.5c0.3,1.9,0.9-0.1,1.3,0.1c0.8,1.2-0.1,1.9-0.8,2.6c-0.3,0.3-0.7,0.1-1-0.3
			C118.7,103,119,102.2,120,101.5z"/>
		<path fill="#646C6D" d="M118.2,40.1c-0.9,0.2-1.9,0.5-2.6-0.4c-0.8-1.1,0.5-1.4,0.9-2C117.4,38.3,117.9,39.1,118.2,40.1z"/>
		<path fill="#969A9A" d="M114.7,82.7c1.2,1.4-0.5,2.8,0,4.2c-0.3,0.3-0.6,0.7-1.2,1.3C113.4,86,114.2,84.3,114.7,82.7z"/>
		<path fill="#CFD6D6" d="M126,95.1c-0.3-0.7-1.6-0.9-1-1.9c0.6-0.9,1.5-0.7,2.2,0.1C126.8,93.9,126.4,94.5,126,95.1z"/>
		<path fill="#343D3D" d="M128.4,65.6c0.4,0.2,0.8,0.3,1.1,0.5c1,0.9,0.3,2,0.4,3c-0.3-0.4-0.6-0.8-1-1.2
			C127.2,67.5,127.2,66.7,128.4,65.6z"/>
		<path fill="#242C2B" d="M81.6,113c0-1.3,0-2.7,1.8-3C83.2,111.2,83.4,112.7,81.6,113z"/>
		<path fill="#91A1A1" d="M57.8,89.7c1.3-1.4,2.7-0.5,4,0c3.4,1.4,5.3,4.4,5.1,8c-0.1,2.6-3,5.9-5.7,6.9c-2.7,0.9-5.4,1.9-8.1,0.1
			c-0.9-1.5,0.5-2.6,0.6-4c0.4-0.8,1.1-1.6,2-1.6c1.6-0.1-0.3-1.1,0.4-1.3c0.4-0.6,1-0.9,1.7-0.9c1.4,0.6,2.8,0.5,4.2,0.3
			c1.6-0.2,2.3-0.9,1.5-2.5c-0.7-1.1-3.4-0.7-2.5-3.1C59.9,91,58.5,90.9,57.8,89.7z"/>
		<path fill="#ADBBBC" d="M57.8,89.7c1.2,0.6,2.9,0.4,3.7,1.8c-0.8,1.7-1.8,1.5-3,0.4c0,0-0.1-0.4-0.1-0.4c-0.1,2.9-1.9,3.8-4.7,3.2
			c1.7,0.5,4.6-0.8,4.3,2.8c-0.6,0.2-1.2,0.4-1.7,0.6c-1.8,2.3-3,0.6-4.2-0.7c-0.6-0.8-2.1-0.9-1.9-2.3
			C51.7,91.8,54.3,90.2,57.8,89.7z"/>
		<path fill="#7B8888" d="M53.7,101.1c0.2,1.3-0.5,2.5-0.7,3.7c-2.2-0.6-2.6-2.6-3.4-4.3c0.9-0.6,2-0.6,3-0.5
			C53.2,100.2,53.6,100.5,53.7,101.1z"/>
		<path fill="#272F30" d="M30.8,46c0.7-0.3,0.2-2,1.7-1.3c0,0.6,0,1.2,0,1.8c-2.3,1.6-1.6,4.5-2.9,6.5C28.6,50.5,28.9,48.1,30.8,46z
			"/>
		<path fill="#8F9D9C" d="M52.6,100.4c-1-0.1-2,0.7-3,0.1c-0.4-1.9-0.3-3.7,0.5-5.4c0.8,0.6,1.6,1.2,2.4,1.8
			C50.7,98.1,52.6,99.2,52.6,100.4z"/>
		<path fill="#737F7E" d="M55.5,32.9c0.1-2.2,2.4-1.5,3.2-2.4c1.3-1.6,2.1-1,3.1,0C59.8,31.3,57.7,32.1,55.5,32.9z"/>
		<path fill="#1F2626" d="M67.9,34.1c1.3,3.1-1.3,2.9-3,3.5C64.4,35.2,66.7,35.1,67.9,34.1z"/>
		<path fill="#2D3635" d="M53.1,53.1c0,1.2,0.5,2.4,0,3.6c-1.1-0.1-1.3-1.1-1.7-1.8C52,54.3,52.6,53.7,53.1,53.1z"/>
		<path fill="#151C1C" d="M75.9,59.3c0-4,1.5-6.8,4.8-8.8c2.3-1.4,4.3-1.1,6.4-0.1c1.6,0.7,2,2.9,4.2,3.1c0.7,0.1,0.4,1.6,0.3,2.4
			c-0.1,0.8-0.6,1.4-0.3,2.3c0.3,0.6,0.7,1.4-0.2,1.8c-1,0.4-1.1-0.5-1.3-1.1c-0.1-0.2-0.2-0.3-0.3-0.5c-1.3-1.9-2.9,2-4.4-0.3
			c-1.8-2.7-2.6-0.5-3.5,1.1c-0.7,1.2-1.5,2.3-2.7,0.3C78,58.2,76.9,58.5,75.9,59.3z"/>
		<path fill="#70797A" d="M94.6,31.8c-0.3-0.7-1.5-0.7-1.2-1.8c0.3-0.6,0.6-1,1.3-0.7c4.4,1.2,7.7,4.9,12.7,6c0.1,0.3-1.2,1-0.4,1.8
			c-0.1,0.1-0.2,0.2-0.3,0.3c-1.9,1.5-3.5,1.2-5-0.7c-1.3-1.6-3.7-1.4-5.2-2.9C95.9,33.2,94.9,32.8,94.6,31.8z"/>
		<path fill="#5E6868" d="M113.5,40.1c-1,1.5,0.3,2.7,0.6,4.1c-0.1,0.1-0.1,0.2-0.2,0.3c-0.5,0.3-0.6,0.9-0.6,1.5
			c-0.1,0.4-0.3,0.7-0.8,0.6l-0.1,0c-2-1.2-1.8-3.8-3.5-5.1c-0.4-1.4-0.5-2.9-2-3.7c-0.1-0.3-0.1-0.5,0.1-0.7c0,0,0,0,0,0
			c1.5-1.2,2.6-0.8,3.8,0.5C111.6,38.6,112.6,39.3,113.5,40.1z"/>
		<path fill="#687170" d="M94.7,29.3c-0.4,0.2-0.9,0.4-1.3,0.7c-3.2,2-4-0.9-5.4-2.6c0-0.1-0.1-0.2-0.1-0.3c0.1-0.1,0.2-0.2,0.2-0.3
			c1.2,0.8,2.5,1.4,4,1.4c1-0.7,1.7-0.2,2.2,0.6C94.5,29,94.6,29.2,94.7,29.3z"/>
		<path fill="#444B4B" d="M94.4,28.8c-0.7-0.2-1.5-0.4-2.2-0.6c-0.1-0.7-1.3-1.9,0.8-1.4c1.2,0.3,2.4,0.8,3.4,1.6
			C95.9,29.1,95.1,28.6,94.4,28.8z"/>
		<path fill="#313939" d="M85.1,26.5c-0.1-0.5-0.8-1.1-0.1-1.6c0.7-0.5,1.3,0.1,1.9,0.4c-0.4,1.2,2.8-0.5,1.3,1.6
			C88.1,27,88,27.1,88,27.3C87.1,26.9,85.9,27.3,85.1,26.5z"/>
		<path fill="#1E2726" d="M59.1,67.3c-0.2,1.9,0.7,3,2.5,3.5c0.7,0.2,1.6,0,1.7,1.1c0.4,0.6,0.5,1.2,0,1.9c-1.5-0.6-3.1-1.2-4.6-1.8
			c-0.5-0.2-1.1-0.4-0.9-0.9c0.6-1.9,0-3-1.7-4c-0.9-0.5,0.2-1.4,0.1-2.1C57.1,65.7,58.1,66.5,59.1,67.3z"/>
		<path fill="#2D3635" d="M53.1,56.7c0.4,3,3.4,5,3,8.2C52.4,61.7,51.8,60.2,53.1,56.7z"/>
		<path fill="#1E2726" d="M66.8,73.8c0.3,0.5,1.5,0.1,1.2,1.2c-1,1.7-2,0.5-2.9,0c-0.2-0.4-0.4-0.8-0.6-1.2
			C65.2,73.3,66,73.4,66.8,73.8z"/>
		<path fill="#242C2B" d="M66.8,73.8c-0.8,0-1.6,0-2.4,0c-0.4,0-0.8,0-1.2,0c0-0.6,0-1.2,0-1.9c1.1-0.2,1.7,0.6,2.3,1.2
			C66,73.4,66.4,73.6,66.8,73.8z"/>
		<path fill="#242C2B" d="M65,75c1,0.1,2,0.8,2.9,0c0.2,0.6,0.4,1.2,0.6,1.8C67.3,76.4,65.8,76.4,65,75z"/>
		<path fill="#2B3433" d="M24.9,91c-0.7-1.1-0.4-2.1,0.4-3c1.1,0.8,0.7,2,1,3.1C25.8,91.1,25.4,91,24.9,91z"/>
		<path fill="#95A2A1" d="M69.1,24.5c0.2,0.1,0.4,0.1,0.6,0.2c0.2,0.5,0.6,0.6,1.1,0.6c1.4,2.5-1.1,2.5-2.2,3.5
			c-0.2,0-0.4-0.1-0.6-0.1c-0.2-0.2-0.4-0.4-0.5-0.7c-0.3-1.4,1.1-2.1,1.1-3.3C68.8,24.7,69,24.6,69.1,24.5z"/>
		<path fill="#404B4B" d="M68.7,24.7c0.9,1.4-1,2.1-0.8,3.3c-1.3,0.9-2,0.6-1.7-1.1C66.4,25.6,67.7,25.3,68.7,24.7z"/>
		<path fill="#8C9796" d="M66.2,27c0.4,0.7,0.6,1.5,1.7,1.1c0,0.2,0.1,0.5,0.1,0.7c-1,0.3-2,0.5-3,0.8c-0.3-0.1-0.6-0.2-1-0.4
			C65.3,29,65,27.2,66.2,27z"/>
		<path fill="#171C1C" d="M76.7,35.2c-1.8,0.8-3.7,1.9-4.2-1.5c-0.1-0.5-1.1-0.9-1.7-1.4c-0.6-0.9,0-1.6,0.6-2.2
			c1.4,0.6,2.8,0.6,4.3,0.5C76.3,32.1,77.2,33.5,76.7,35.2z"/>
		<path fill="#404949" d="M68.6,28.8c0.2-1.5,2.8-1.5,2.2-3.5c1.1,0.3,2.2,0.5,3.5,0.8C72.9,28.4,71,29.1,68.6,28.8z"/>
		<path fill="#313939" d="M81,24c0.8,1.1,3.1,0.3,3,2.4c-1,0.8-2.2,1.4-3.6,1.2l-0.1-0.1c-0.8-1-0.1-2,0-2.9
			C80.6,24.4,80.8,24.2,81,24z"/>
		<path fill="#525A59" d="M71.4,30c-0.2,0.8-0.4,1.5-0.6,2.3c-0.4,0.2-0.7,0.4-1.1,0.6c-1.1-0.5,0.5-1.8-0.6-2.3l0,0
			C69.7,29.7,70.6,30.1,71.4,30z"/>
		<path fill="#2E3736" d="M80.4,24.6c0.7,1-0.1,2,0,2.9c-0.8,0.1-1.1-0.4-1.1-1.1C80.3,26.3,77.5,23.6,80.4,24.6z"/>
		<path fill="#565D5C" d="M69.2,30.6c-1.2,0.9-2.6,1.2-4.2,1.1C66.3,30.5,67.7,30.5,69.2,30.6L69.2,30.6z"/>
		<path fill="#D6DEDE" d="M118.9,85.6c-1.3-0.4-1-1.3-1.1-2.3c-0.2-2-0.9-0.2-1.3-0.1c0.1-1.3-0.6-3.1,1.8-3
			c-0.4-1.8-0.9-3.6-0.1-5.5c0.6-1.4,1.6-2.1,2.7-1.2c1.1,0.9,3.7-0.1,3.4,2.6c-0.2,0.2-0.5,0.2-0.7,0c-1.9,0.4-0.9,2-1.2,3
			c-0.9,1.1-1.4,2.2-0.9,3.7C121.2,84.3,120.2,85.1,118.9,85.6L118.9,85.6z"/>
		<path fill="#9DACAD" d="M126.7,88.5c-0.8,0-0.7-0.6-0.9-1.1c0-0.3,0-0.7,0-1c0.6-2,0.3-3.9-0.2-5.9c0-0.6,0-1.1,0.1-1.7
			c0.1-0.7,0.1-1.4,0.1-2.1c0.1-0.9,0.2-1.8,1.1-2.3c1-0.3,1.2,0.5,1.5,1.2c0.1,0.4,0.2,0.9-0.2,1.2c-0.7,0.6-1.1,1.5-1,2.3
			C127.9,82.3,127.3,85.4,126.7,88.5z"/>
		<path fill="#BECACB" d="M126.5,79.2c-0.2,0.4-0.3,0.8-0.5,1.1c-0.4,0.9-0.4,1.9-0.6,2.9c-0.3,0.7-0.6,1.4-1.1,2.5
			c-0.9-3.1-0.3-5.7-0.2-8.3C126,76.5,125.9,78.4,126.5,79.2z"/>
		<path fill="#969E9F" d="M118.9,85.7c0-1.6,2.3-1.4,2.3-3c-0.2-0.7-0.4-1.3,0.7-1.2c-0.2,1.3-0.4,2.6-0.6,3.9
			c-0.1,0.8-0.2,1.7-1.1,1.8C119,87.4,119.7,85.8,118.9,85.7z"/>
		<path fill="#A8B5B5" d="M125.4,83.2c-0.8-1.2-1.2-2.3,0.6-2.9c1.3,2,0.9,4-0.1,6C124.7,85.5,127.1,84,125.4,83.2z"/>
		<path fill="#A8B5B5" d="M126.5,79.2c-1-0.4-1-1.9-2.4-1.8c-0.2-0.4-0.4-0.8-0.6-1.2c0.2,0,0.4,0,0.6,0c1-0.8,1.7,0,2.4,0.6
			C126.5,77.5,126.5,78.4,126.5,79.2z"/>
		<path fill="#B9C2C1" d="M121.9,81.5c-0.6,0.2-0.6,0.8-0.7,1.2c-0.8-1.6-0.7-2.9,1.2-3.5C122.6,80,122.3,80.8,121.9,81.5z"/>
		<path fill="#171D1D" d="M107,46c-1.7,2.2-3.5,1-5.2,0.1c0.9-1.6-0.8-1.1-1.2-1.6c-4.1-4.8-9.8-6.1-15.6-7.3
			c-1.1-0.2-2-1.8-3.4-0.7c-0.6-1-0.1-3.8-2.7-1.5c-0.6,0.5-1.2-0.7-1.2-1.2c0-0.7-0.4-2,1-2c2.5,0,5,0.9,7.6-0.3
			c0.4-0.2,2.6,1.2,3.9,1.9c1.1,0.6,1.6,2.2,3.4,1.3c0.6-0.3,0.3,0.6,0.4,1.1c0.1,1.6,0.9,0.1,1.3,0.2c2.3-0.8,5,0.6,5.5,2.8
			c0.7,2.6,1.1,2.7,3.4,1.8c1.3-0.5,2.9-0.8,3.7,1.1C106.8,42.9,108.2,44.7,107,46z"/>
		<path fill="#181E1E" d="M107.6,41.8c-1.5-0.8-3-2.4-4,0.6c-0.1,0.3-0.8,0.7-0.9,0.3c-0.5-1.5-3.4-1.1-2.9-3c0.6-2.2-0.4-2.9-2-2.8
			c-1.2,0-1.4-1.9-2.7-1c0.8-1.5-1.2-2.6-0.6-4.1c2.3,0.9,3.9,3.3,6.7,3.2c0.2,0,0.4,0.2,0.5,0.3c1,2.8,3,2.6,5.3,1.7
			c0,0.2,0,0.4,0,0.6c0.3,1.4,1.9,2.2,1.9,3.8C108.7,42.1,108.2,42.2,107.6,41.8z"/>
		<path fill="#A4B2B0" d="M80.4,27.6c1.1-0.7,2.1-1.6,3.6-1.2c0.4,0,0.8,0,1.2,0c1.1,0,2.1,0,2.9,0.8c0,0,0,0.1,0,0.1
			c-2.1,0.1-3.9,2-6.3,1.1C81.1,28.3,80.7,28.2,80.4,27.6z"/>
		<path fill="#606C6C" d="M23,61.9c0.3-1.8,1-3.4,2.4-4.7C25.8,59.4,24.7,60.8,23,61.9z"/>
		<path fill="#677474" d="M128.3,75.6c-0.4-0.4-0.7-0.8-1.1-1.2c-0.1-0.1-0.2-0.2-0.3-0.3c-0.7-1.2-1.6-2.1-3-2.3
			c-0.4,0-0.8-0.1-1.1-0.4c-0.6-0.9-1-1.8-0.5-2.8c0.2-0.2,0.5-0.2,0.8-0.1c4.3-0.2,2.3-3.2,2.4-5.3c2.1-0.5,2,1.7,3,2.4
			c-0.5,0.9-0.2,1.7,0.6,2.3c-0.9,0.9-0.8,1.9-0.1,2.9C129.2,72.5,129.2,74.1,128.3,75.6z"/>
		<path fill="#424C4C" d="M122.4,68.6c-0.2,1.1,0.6,2,0.8,3c0.4,1.3-0.4,2.1-1.4,2c-1.6-0.3-3.1,0.5-4.6,0.3c0-0.2,0-0.4,0-0.5
			c0-0.6,0.2-1.3-0.1-1.7c-1-2.1,0.7-2.7,1.9-3.5c1.6,1.1,1.7-0.5,2.3-1.2C122.2,67,122.4,67.7,122.4,68.6z"/>
		<path fill="#92A09F" d="M117.6,60.1c0.6-1.7,1.2,0.1,1.8,0c1.1-0.6,2.1-0.4,3,0.4c0.2,0.3,0.2,0.6-0.1,0.8c-1.2,0.1-0.4,1.6-1.3,2
			C119.6,62.7,119.2,60.8,117.6,60.1z"/>
		<path fill="#CDDADA" d="M122.4,68.6c-0.4-0.6-0.8-1.2-1.2-1.8c0.3-0.8-0.5-2.3,1-2.2c1.2,0.1,1.5,1.3,1.2,2.5
			c-0.1,0.5-0.3,0.9-0.4,1.4C122.8,68.5,122.6,68.6,122.4,68.6z"/>
		<path fill="#4B5555" d="M122.4,61.4c0-0.2,0-0.4,0-0.6c-0.9-1.3-1.6-2.6-0.7-4.2c0.5-0.3,0.9-0.4,1.4,0c0,0,0,0,0,0
			c0,0.7-0.1,1.4,0.6,1.8c0.9,0.8,1.4,1.7,0.6,2.9l-0.1,0.2C123.5,61.5,123,61.4,122.4,61.4z"/>
		<path fill="#687474" d="M112.5,46.6c0.1-0.2,0.3-0.4,0.4-0.6c1-0.2,0.6-1.3,1.2-1.8c0,0,0,0,0,0c1.4,1.9,4.2,2,5.3,4.1
			c0.6,1.4,1.2,2.8,1.8,4.2c-0.5,1.4,0.9,2.9,0,4.4c-0.4,0.1-0.8,0.1-1.1-0.2c-0.2-0.2-0.4-0.4-0.6-0.6c-1.2-1.4-1.8-3-1.9-4.9
			c-0.1-2.5-1-3.1-3.3-2.2c-0.3,0.1-0.5,0.1-0.7-0.1c-0.2-0.4-0.4-0.8-0.6-1.2C112.8,47.3,112.7,46.9,112.5,46.6z"/>
		<path fill="#343D3D" d="M128.3,75.6c0.2-1.6,0.4-3.2,0.6-4.8c1.2,2.1,0.3,4-0.6,5.9C128.3,76.4,128.3,76,128.3,75.6z"/>
		<path fill="#626E6D" d="M121.3,56.6c0.1-1.4-2.1-2.7,0-4.1c0.6,1.4,1.9,2.5,1.8,4.1c-0.4,0-0.8,0-1.2,0
			C121.6,56.8,121.4,56.8,121.3,56.6z"/>
		<path fill="#A4AEAE" d="M115.9,56.1c-1.2-0.5-1.3-2.4-2.9-2.4c-0.2-0.6-0.5-1.2-0.7-1.8c-0.5-1.1-0.1-1.5,1-1.1
			c0.7,0.3,1.2,1.2,2.2,1c1,1.2,2.1,2.3,1.4,4.1C116.6,56,116.3,56,115.9,56.1z"/>
		<path fill="#677372" d="M121.3,56.6c0.2,0,0.4,0,0.6,0c0.2,1.4,0.4,2.8,0.5,4.2c-1-0.2-2-0.5-3-0.7c0.9-1,0.5-2.3,0.7-3.5
			C120.5,56.6,120.9,56.6,121.3,56.6z"/>
		<path fill="#ADB9B9" d="M118.2,50.7c-0.3,1.9,1.4,3.4,1.2,5.3c-0.5,0-1.1-0.1-1.6-0.1c-1-0.7-0.2-2-1-2.8c-0.1-0.5,0-1.1,0.2-1.6
			C117.3,51.1,117.5,50.5,118.2,50.7z"/>
		<path fill="#505C5C" d="M117.2,53c1.5,0.7,0.5,1.9,0.7,2.9c-0.3,0-0.6,0-0.9,0c-0.5-1.3-1.1-2.7-1.6-4
			C116.4,51.5,116.7,52.4,117.2,53z"/>
		<path fill="#293132" d="M107.6,41.8c0.5,0,1-0.1,1.2-0.7c0.2-0.2,0.4-0.1,0.6,0.1c2.1,1.2,2,3.5,3,5.3c-1.8,0.2-3.4-2-5.4-0.6
			C107.5,44.6,105.3,42.9,107.6,41.8z"/>
		<path fill="#2F3839" d="M124.2,61.3c-0.2-1-0.4-1.9-0.6-2.9c2.2-0.1,1.4,2,2,3C125.8,61.6,124.8,61.3,124.2,61.3z"/>
		<path fill="#657271" d="M117.2,53c-0.6-0.4-1.3-0.8-1.9-1.1c-0.5,0.4-0.9,1.3-1.6,0c-0.2-0.3-0.8-1.9-1.3-0.1
			c-1-1.6-0.7-2.6,1.2-3c0.3,0,0.5-0.1,0.8-0.1c2.2-0.1,2.3,2,3.3,3.2C117.5,52.4,117.3,52.7,117.2,53z"/>
		<path fill="#BECACB" d="M117.1,73.8c1-0.8,2.3-0.5,3.4-0.5c1.4,0,2.3-0.3,2.6-1.7c0.3,0,0.7,0.1,1,0.1c0.1,1.9,1.8,2,3,2.7l0,0
			c-0.2,0.8-0.4,1.6-0.6,2.3c-0.8-0.2-1.6-0.4-2.4-0.6c-1.1-1.5-3.1-2-4.4-2c-1.4,0-1.5,2.4-1.3,3.9c0.1,0.9,0.6,1.6-0.2,2.3
			c-0.4-1.1-2.3-1.3-1.8-2.9C117.6,76.3,116.9,75,117.1,73.8z"/>
		<path fill="#C5D2D3" d="M57.9,97.5c-0.8-1.1-0.9-3.3-3.3-1.6c-0.9,0.6-1.9-0.8-3-1.2c0.6-1.1,1.6-0.9,2.2-0.7
			c2.1,0.6,3.7,0.7,3.9-2.2c0.1-0.8,0.3-0.6,1.4,0.1c0.7,0.5,1.7,0.4,2.4-0.4c2,0.6,0,0.9-0.1,1.4c0.3,1.4,2.9-0.9,2.5,1.6
			C63.2,95.7,62.9,97,62,98C60.7,97.8,59.1,99.2,57.9,97.5z"/>
		<path fill="#A2B2B3" d="M52.6,100.4c-0.2-0.2-0.4-0.4-0.6-0.7c-0.5-0.6-1.8-0.2-1.7-1.3c0.1-1.2,1.3-1.3,2.2-1.5
			c0.9,1.4,1.8,2.5,3.6,1.2c0.3,0.8,1.9,0.8,1.4,1.8c-0.5,1.1-1.3-0.3-1.8-0.2c-0.8,0.1-1.4,0.9-2.1,1.3
			C53.4,100.8,53,100.6,52.6,100.4z"/>
		<path fill="#B4C1C2" d="M62,98c-0.1-1.5,0.2-2.8,1.9-3.5C65.1,97,64.7,97.8,62,98z"/>
		<path fill="#7B8C8B" d="M57.8,101.8c1.5-1.3,3.5-1.1,4.8-2.7C62.3,101.6,62.3,101.6,57.8,101.8z"/>
		<path fill="#8C9A98" d="M109.4,41.3c-0.2-0.1-0.4-0.1-0.6-0.1c-0.2-1.3-3.7-1-1.8-3.4C110,37.5,108.7,40,109.4,41.3z"/>
		<path fill="#2C3737" d="M114.2,44.2c0,0.9,1.4,2.7-1.2,1.8C112.3,44.7,111.8,43.5,114.2,44.2z"/>
		<path fill="#9DACAD" d="M127.2,74.4c-1.8,0-4.3,0.7-3-2.7C126.1,71.4,127.4,72.1,127.2,74.4z"/>
		<path fill="#9DABAA" d="M117.6,52c-1.8-0.4-1.7-2.6-3.3-3.2c0-0.6-0.5-1.4,0.7-1.5c1.5-0.2,3.3,1.7,3.2,3.5
			C117.7,51,117.7,51.5,117.6,52z"/>
	</g>
</g>
</svg>
