<?xml version="1.0" encoding="utf-8"?>
<!-- Generator: Adobe Illustrator 17.0.0, SVG Export Plug-In . SVG Version: 6.00 Build 0)  -->
<!DOCTYPE svg PUBLIC "-//W3C//DTD SVG 1.1//EN" "http://www.w3.org/Graphics/SVG/1.1/DTD/svg11.dtd" [
	<!ENTITY ns_flows "http://ns.adobe.com/Flows/1.0/">
	<!ENTITY ns_extend "http://ns.adobe.com/Extensibility/1.0/">
	<!ENTITY ns_ai "http://ns.adobe.com/AdobeIllustrator/10.0/">
	<!ENTITY ns_graphs "http://ns.adobe.com/Graphs/1.0/">
]>
<svg version="1.1" id="Layer_1" xmlns:x="&ns_extend;" xmlns:i="&ns_ai;" xmlns:graph="&ns_graphs;"
	 xmlns="http://www.w3.org/2000/svg" xmlns:xlink="http://www.w3.org/1999/xlink" xmlns:a="http://ns.adobe.com/AdobeSVGViewerExtensions/3.0/"
	 x="0px" y="0px" width="143.2px" height="146.9px" viewBox="0 0 143.2 146.9" enable-background="new 0 0 143.2 146.9"
	 xml:space="preserve">
<g>
	<path d="M108.5,130.3c-4.6,3.9-9.8,7-15.2,9.7c-1.9,0.9-3.9,1.6-5.9,2.4c-0.6,0.2-1.3,0.4-1.7-0.1c-0.3-0.3,0.4-0.5,0.5-0.8
		c2.9-1.4,6-2.4,8.8-4c-3.1,1.3-6,3.1-9.4,3.9c-4.4,0.9-8.8,2.2-13.3,2.7c-4.5,0.5-9.1,0.4-13.6,0c-2.5-0.2-5-0.9-7.5-1.4
		c-1.2-0.2-2.4-1-3.6,0c-0.2,0.1-0.6,0-0.6-0.2c0.1-1.1-1-0.9-1.5-0.9c-3,0-5.5-1.5-8.1-2.6c-4.1-1.7-7.8-4.1-11.5-6.6
		c-1.8-1.2-3-2.9-4.4-4.5c-0.2-0.3,0-0.5,0.3-0.6c1.5,0.1,1.9,1.4,3.3,1.9c-4.7-3.5-7.8-8.1-11.6-12c-0.1-0.1-0.2-0.3-0.3-0.4
		c-0.8-1.7-2.2-3-3-4.7c-0.2-0.3,0-0.9-0.8-0.7C4.7,100.6,0.9,89.6,1,77.8c0-2.4-0.1-4.9,0.6-7.2c0.6-1.9,1.4-3.9,1.9-5.8
		c0.5-2,1.4-4,1.9-6c0.3-1.2,1.4-2.1,1.6-3.4c0.1-1,0.2-1.6-0.5-2.5c-2.4-3-2.8-6.3-1.4-9.8c1.5-3.7,2.9-7.4,5.3-10.7
		c2.5-3.4,5.4-6.6,8.4-9.8c3.6-3.9,7.5-7.7,12.4-10.3c5-2.7,10.1-5.4,15.7-6.8c4-1,7.9-2.1,12-2.7c0.4-0.1,0.8-0.1,1.1-0.1
		c1.3,0.2,2.6-0.2,3.8-0.5c0.5-0.1,1.1-0.4,1.7-0.1c3.3-0.2,6.6-0.4,10-0.3c12.3,0.3,23.7,3.2,34.1,9.2c4.4,2.6,8.4,5.7,11.9,9.4
		c2.9,3.2,6.1,6.1,9.2,9.2c4.3,4.5,6.3,10,8.2,15.6c1,2.8,1.8,5.6,2.8,8.4c1.1,3.1,1.1,6.3,1.1,9.5c0,8-1.2,15.9-3.3,23.7
		c-1.6,6-4.3,11.7-6.9,17.4c-1.1,2.3-1.8,4.7-3.1,6.9c-2.1,3.6-4.5,7-7.4,10.1c-0.4,0.4-0.8,0.9-1.2,1.4c-0.2,0.8-0.9,1.2-1.5,1.7
		c-7.1,7.9-15.3,14.4-25.5,18.6c-3.2,1.3-6.3,2.6-9.7,3.5c-0.8,0.2-1.6,0.4-2.4,0.3c-0.1-0.2-0.1-0.3,0.1-0.4
		c3.8-1.6,7.5-3.4,11.3-5.1c5.1-2.3,10-5,14.5-8.4c3.8-2.9,6.8-6.4,10-9.8c0.3-0.3,0.7-0.7,0.4-1.4c-1.8,1.1-2.8,2.7-4.2,3.9
		c-0.5,0.4-0.8,1.3-1.8,0.8c-0.1,0-0.4,0.2-0.4,0.2c1,2.1-1.2,1.2-1.9,1.6c-0.2,0.7-0.7,1.3-1.3,1.5
		C107.8,129.7,108.5,130,108.5,130.3z"/>
	<path fill="#F5F5F5" d="M13.4,117.1c2,1.4,3.4,3.3,4.9,5.2c2,2.7,4.8,4.7,7.1,7.1c0.2,0.2,0.2,0.4,0.1,0.8
		c-1.6-0.4-2.5-1.8-3.8-2.5c-1.7-0.6-2.3-2.3-3.8-3.2l0,0c-0.8-0.9-1.6-1.9-2.3-2.8l0,0c-0.7-0.9-1.5-1.8-1.9-2.9
		c-0.3-0.4-0.5-0.7-0.8-1.1C12.8,117.3,12.8,117,13.4,117.1z"/>
	<path fill="#E3E3E3" d="M85.5,141.4c3.5-1.6,7.1-3.3,10.7-5c-0.3,1.7-4.6,3.7-10.1,5.1C86,141.5,85.8,141.4,85.5,141.4z"/>
	<path fill="#2D2D2D" d="M65.5,1.9c-0.4,0.3-0.9,0.5-1.5,0.4c-1.3,0-2.4,0.8-3.7,0.3c-0.5,0-0.9-0.1-1.4-0.1c2.1-0.5,4.2-1,6.3-1.5
		C65.5,1,66,0.9,66.1,1.4C66.1,1.5,65.7,1.7,65.5,1.9z"/>
	<path fill="#474747" d="M66.3,146c-2.1,0.4-6.2,0.4-7.7-0.4c1.5,0,3.1,0,4.6,0C64.2,145.9,65.4,145.5,66.3,146z"/>
	<path fill="#303030" d="M13.4,117.1c-0.1,0.2-0.3,0.4-0.4,0.6c-2-1.7-2.8-4-3.7-6.2c0.8-0.8,0.9-0.1,1.1,0.4c0.4,1.9,1.7,3.4,3,4.8
		C13.3,116.8,13.3,116.9,13.4,117.1z"/>
	<path fill="#282828" d="M17.9,124.4c1.8,0.5,2.5,2.1,3.8,3.2c-0.1,0.1-0.3,0.3-0.4,0.4C19.9,127,18.7,125.8,17.9,124.4z"/>
	<path fill="#363636" d="M67.8,145.6c1.9-0.6,3.9-0.3,5.9-0.2c-1.9,0.4-3.9,0.8-5.9,0.5c-0.1-0.1-0.2-0.1-0.1-0.2
		C67.7,145.6,67.7,145.6,67.8,145.6z"/>
	<path fill="#ABABAB" d="M108.5,130.3c-0.3-0.4-1-0.7-0.2-1.2c0.6-0.4,1.1-0.9,1.7-1.3C110.3,129.1,109.1,129.6,108.5,130.3z"/>
	<path fill="#A2A2A2" d="M53.7,3c-1,1-2.4,0.8-3.6,1.3C51.1,3.5,52.2,2.8,53.7,3L53.7,3z"/>
	<path fill="#262626" d="M67.8,145.6c0,0.1,0,0.2,0,0.3c-0.5,0-0.9,0.1-1.4,0.1c-1-0.3-2.2,0.3-3.1-0.4
		C64.7,145.1,66.2,145.7,67.8,145.6z"/>
	<path fill="#494949" d="M15.6,121.6c1.1,0.7,2,1.6,2.3,2.8C16.8,123.7,15.9,122.9,15.6,121.6z"/>
	<path fill="#494949" d="M13.7,118.7c0.8,0.9,1.5,1.8,1.9,2.9C14.8,120.8,13.5,120.2,13.7,118.7z"/>
	<path fill="#4C4C4C" d="M82.6,143.7c0.9-0.3,1.9-0.7,3-1.1C84.7,143.6,84.7,143.6,82.6,143.7z"/>
	<path fill="#A2A2A2" d="M53.7,3c0.8-0.9,2-0.6,3-0.9C55.8,2.7,54.9,3.1,53.7,3L53.7,3z"/>
	<path fill="#969696" d="M119.5,124c0.3-0.7,0.8-1.3,1.5-1.7C121.2,123.4,120.5,123.9,119.5,124z"/>
	<path fill="#424242" d="M79.4,144.7c-1.3,0.3-2.1,0.9-3.3,0.5C77,144.5,78,144.5,79.4,144.7z"/>
	<path fill="#3F3F3F" d="M55,145.8c0.8-0.3,1.6-0.2,2.9,0C56.6,146.4,55.8,145.8,55,145.8z"/>
	<path fill="#FEFEFE" d="M127.5,82.6c-0.1,0.6-0.8,1-0.7,1.7c0,0.4-0.2,0.7-0.8,0.4c-0.3-0.1-0.6,0-0.7,0.3
		c-0.1,0.3,0.1,0.5,0.4,0.5c1.2,0.1,0.6,0.8,0.5,1.2c-0.4,1-1,1.9-1.6,2.8c0.4,0.5-0.1,0.8-0.4,1.2c0.6,1.1-0.2,0.8-0.8,0.8
		c-0.4,0-0.9-0.3-1.2,0.1c-0.5,0.6,0.2,0.9,0.5,1.1c1.5,1.2,1.1,2-0.7,2.4c0.2,0.6,1,0.1,1.2,0.6c-0.8,0.4-1.6-0.1-2.4,0
		c-0.5,0-1.2,0-1.1,0.6c0,0.9,0.7,0.1,1.1,0.3c0.3,0.1,0.7,0.2,1.1,0.3c-0.4,0.5-2,0.2-1,1.5c0.1,0.1-0.9,0.4-1.1,0
		c-0.3-0.5-0.6-0.6-1-0.3c-0.3,0.3,0,0.5,0.3,0.8c0.9,0.7,0.2,0.9-0.5,1.1c-0.3,0.4-0.6,0.9-1,1.3c-0.5,0.6-0.9,1.2-1.4,1.9
		c-1.1,1.1-1.8,2.5-2.5,3.7c-1.5,2.7-3.7,4.9-5.4,7.4c0.3,1-0.7,0.7-1.2,1.1c-0.2,0.2-0.5,0.4-0.4,0.7c0.2,0.7-0.5,0.5-0.8,0.7
		c-1.7,0.9-2.5,2.8-4.5,3.5c0.5,0.4,1.1,0.1,1.3,0.6c-1.1,0.3-2,0.1-3.2,0.9c-2.7,2.1-6,3.6-9.1,5.2c-1.6,0.9-3.3,1.8-5.2,2.3
		c-1.8,0.5-3.5,1.3-5.2,2c-1.1,0.4-2.6,0-3.6,1.1c-0.3,0.3-1.5,0.4-2.3,0c-0.3-0.1-0.5-0.5-0.8-0.2c-1.9,2.2-4.4,0-6.5,0.7
		c-1.6,0.5-3.3-0.8-4.8,0.3c-0.2,0.1-0.5,0.1-0.7,0.1c-6.1-1.3-12-2.9-17.8-5.2c-4.1-1.7-7.4-4.3-11.3-6.3c-1.2-0.6-1.7-2-2.9-2.5
		c-1-0.5-1.8-1-2.1-2c-1.2-4.3-5.7-6.3-8.4-9.6c-5.5-6.7-9.6-13.9-10.7-22.4c-0.6-4.2-0.4-8.5-0.4-12.8c0.1-5.7,1.6-11.1,3.1-16.5
		c0.1-0.6,0.3-0.9,1-1c1.7-0.3,2.9-1.2,4.1-2.6c0.3,1.4-0.9,2.1-0.9,3.3c1.8-1.3,2.8-2.8,3.1-4.7c0.1-0.7,0.5-1.3,1-1.8
		c1.5-1.1,1.7-2.5,1.7-4.2c0-1.3-0.1-2.7-0.8-3.8c-1.9-3.2,0.4-5.6,1.6-8.2c2.8-6.1,7.1-11.3,13.1-14.9c4.6-2.8,9.6-5,14.8-6.7
		C56.2,9,63,7.4,69.8,5.7c2.3-0.6,4.7-0.1,6.9,0.1c8.9,0.8,17.2,3,25.2,6.9c6.6,3.2,11.8,7.7,16,13.1c2.1,2.7,4.5,5.4,6.5,8.2
		c1.6,2.2,2.4,4.6,3.3,7c0,0.1,0,0.1,0,0.2c0.9,3.6,1.9,7.2,2.7,10.8c0.5,2.2,0.4,4.4,1.3,6.5c0.2,0.5-0.9,1.7-0.8,2.8
		c0,0.4,0.1,1.5,0.7,1.5c0.8,0.1,0.3,0.5,0.1,0.6c-1.1,0.5-1,1.3-0.7,2.2c0.3,0.8-1.4,0.1-1.1,1.1c0.1,0.6,0.9,1.4-0.3,1.8
		c-0.1,2.4,0.4,3.2,2.6,3.4c-1.8,0.9-3.8,1.4-3.8,3.6c-0.4,0.5-0.4,1.1-0.3,1.8c-0.2,0.4-1.3,0.4-0.4,1.1c0.7,1,0.8,1.7-0.7,2.1
		c-0.1,0.3,1.2,0.4,0.3,0.9C127.1,81.7,126.9,82.2,127.5,82.6z"/>
	<path fill="#F6F6F6" d="M96.7,133.1c2.3-1.3,4.1-3.2,6.4-4.5c1.2-0.7,1.7-1.7,2.6-2.5c0.3-0.3,0.6-0.3,0.9-0.3
		c0.2-0.7,0.7-1.2,1.5-1.4c1.4-1.5,2.8-3,4.1-4.6c2-2.4,3.9-4.8,5.8-7.2c0.8,0,0.8,0.5,0.7,1.1c-0.5,1.6-1.4,3-2.9,4.2
		c-1.9,1.5-3.6,3.3-4.4,5.6c0,0.1-0.1,0.2-0.2,0.3c-1.7,1.5-3.4,3.1-5.3,4.4c-2.4,1.6-4.9,3-7.1,4.8c-0.4,0.3-1.1,0.4-1.7,0.6
		C96.7,133.6,96.6,133.4,96.7,133.1z"/>
	<path fill="#E3E3E3" d="M133.2,82.8c-0.9,4.4-2.4,8.5-4.6,12.5c-0.2-0.1-0.3-0.2-0.4-0.4c0.1-0.3,0.2-0.7,0.1-0.8
		c-0.7-0.4-0.5,0.8-1.2,0.4c-0.2-0.4,0.3-0.9,0.5-0.9c2-0.2,2.2-2.3,1.9-2.7c-1.5-2.7,1.5-3.8,2.2-5.6c0.4-1-0.4-2.3,1-3
		C133.2,82.3,133.4,82.3,133.2,82.8z"/>
	<path fill="#E3E3E3" d="M128.3,94.8c0.1,0.1,0.3,0.3,0.4,0.4c-0.9,2-1.8,3.9-2.7,5.9c-0.7,0-0.5-0.5-0.5-0.8c0-0.3,0.1-0.7-0.5-0.7
		c-0.2,0-0.5-0.1-0.6-0.3c-0.3,0.1-0.7-1.1-0.9,0.1c0,0.4-0.5,0.8-1,0.9c-0.6,0.1-0.8-0.5-1-0.9c-0.2-0.4-0.1-1,0.5-1.1
		c1-0.2-0.1-1.8,1.4-1.7c0.2,0,0.5-0.4,0.8-0.2c0.4,0.2,0.1,1.4,1.1,0.8c0.8-0.5,1.9-0.9,2.3-1.9C127.8,95.2,128.1,95.1,128.3,94.8z
		"/>
	<path fill="#D2D2D2" d="M135.6,59.2c-0.8,0.5-1.9,0.5-1.7,1.8c0.1,0.8,0.4,1.1,1.3,1.2c-0.8,0.3-1.6,0.5-1.2,1.4
		c0.1,0.2-0.1,0.4,0.3,0.5c1.1,0.3,1.1,0.5,0.1,1.4c-0.3,0.2-0.2,0.7-1,0.8c0-2.7,0-5.4,0-8.1C133.7,59.4,134.8,59,135.6,59.2z"/>
	<path fill="#DFDFDF" d="M118.8,113.6c-0.2-0.4-0.5-0.7-0.7-1.1c0.1-0.8,0.8-1.3,1.2-1.9c0.5-0.6,0.9-1.2,0.9-2
		c0.3-0.2,0.5-0.5,1-0.3c0.9,1.6-1.1,2.5-1.3,3.8C119.7,112.8,119.1,113.2,118.8,113.6z"/>
	<path fill="#E1E1E1" d="M124.4,99.4c0.2,0,0.5,0,0.7,0c0.7,0.9,0.4,1.7-0.4,2.4c0.2,1.1,0.5,2.2-1.4,2.2c-0.3,0,0.4,0.5-0.1,0.6
		c-0.4,0.1-0.6,0-0.4-0.4C122.9,102.4,124.2,101.1,124.4,99.4z"/>
	<path fill="#F2F2F2" d="M108.1,124.4c-0.5,0.5-1,0.9-1.5,1.4c0.1-0.7-0.3-1-1.1-1.1c-0.9-0.1-0.4,0.4-0.4,0.7
		c-0.2,0.8-0.9,0.6-1.5,0.6c-0.1,0-0.6,0.3-0.2-0.2c0.5-0.6,0.6-1.8,1.8-1.6C106.1,124.3,107.1,124.4,108.1,124.4z"/>
	<path fill="#D0D0D0" d="M122.9,104.2c0.1,0.1,0.3,0.3,0.4,0.4c0.3,1.1-0.1,1.8-1.3,2c-0.6,0.1-0.3-0.6-0.7-0.6
		c-0.5-0.2-1.2,0.5-1.8-0.3C121.1,105.8,122.1,105.2,122.9,104.2z"/>
	<path fill="#CECECE" d="M13.3,116.7c-1.4-0.6-3.1-3.2-3-4.8C11.3,113.5,12.3,115.1,13.3,116.7z"/>
	<path fill="#C9C9C9" d="M133.2,82.8c-0.1-0.1-0.3-0.3-0.4-0.4c-0.1-0.6-1.3-0.6-1-1.4c0.1-0.2,0.5-0.2,0.8-0.3c1.1-0.3,1.4,0,1,1
		C133.5,82,133.4,82.4,133.2,82.8z"/>
	<path fill="#565656" d="M124.8,101.8c0.1-0.8,0.2-1.6,0.4-2.4c0.5-0.3,1-1,0.9,0.3c0,0.5-0.6,1-0.1,1.4
		C125.6,101.4,126.1,103,124.8,101.8z"/>
	<path fill="#D1D1D1" d="M117.2,101.1c0.3-0.4,0.3-1.2,1.2-1.1c0.8,1.3,0.8,2.3-1.2,2.4C116.7,102,117.1,101.6,117.2,101.1z"/>
	<path fill="#C0C0C0" d="M127.2,80.3c1.2-0.5,0.5-1.4,0.7-2.1c0.9-0.2,1,0.9,1.7,0.9C129,79.9,128.3,80.4,127.2,80.3z"/>
	<path fill="#BDBDBD" d="M128.3,77.1c-0.8-0.7-0.6-1.4,0.3-1.8c0.3,0.5,0.9,0.2,1.5,0.6C129.3,76.3,129.4,77.3,128.3,77.1z"/>
	<path fill="#E1E1E1" d="M107.6,117.1c-0.4,0.4-0.7,0.9-1.2,1.2c-0.3,0.3-0.8,0.8-1.2,0.4c-0.4-0.4,0.2-0.6,0.4-0.9
		c0.2-0.2,0.3-0.4,0.5-0.7C106.6,116.6,107.2,116.2,107.6,117.1z"/>
	<path fill="#BCBCBC" d="M121.3,106c0.2,0.2,0.5,0.4,0.7,0.6c0.6,1-0.6,1.2-0.9,1.8c-0.3,0.1-0.6,0.2-1,0.3
		C120.1,107.6,121.9,107.3,121.3,106z"/>
	<path fill="#D1D1D1" d="M96.7,133.1c0.2,0.1,0.3,0.3,0.5,0.4c-1.1,0.6-2.2,1.1-3.2,1.7C94.4,134,95.7,133.7,96.7,133.1z"/>
	<path fill="#5A5A5A" d="M129.8,68.4c1.2-0.4-0.4-1.3,0.3-1.8c0.3,0.5,1.4,0.5,1.2,1.3C131.1,68.8,130.3,68.3,129.8,68.4z"/>
	<path fill="#C7C7C7" d="M106.9,115.3c0.3-0.4,1-0.5,1.2-1.1c0.5,0,1.1,0,1.1,0.6c0,0.7-0.7,0.4-1.1,0.4
		C107.7,115.4,107.3,115.3,106.9,115.3z"/>
	<path fill="#8D8D8D" d="M60.3,2.7c1.3,0.1,2.4-0.9,3.7-0.3C62.8,2.7,61.7,3.5,60.3,2.7z"/>
	<path fill="#DCDCDC" d="M107.6,119.3c1.1,0.1,2.2-0.5,3.5,0.4C109.6,119.9,108.5,119.6,107.6,119.3z"/>
	<path fill="#ADADAD" d="M107.6,117.1c-0.5-0.4-1-0.2-1.5-0.1c-0.1-0.1-0.2-0.2-0.3-0.3c0.3-0.2,0.5-0.5,0.8-0.7
		c0.5,0,1.2-0.1,1.5,0.3C108.4,116.8,107.6,116.8,107.6,117.1z"/>
	<path fill="#797979" d="M127.5,82.6c-0.4-0.1-1.1,0.3-1.1-0.5c0-0.7,0.4-0.9,1-0.9C127.6,81.7,128.1,82.2,127.5,82.6z"/>
	<path fill="#3D3D3D" d="M117.2,101.1c0.6,0.4-0.1,0.9,0,1.3c-0.4,0.2-0.8,0.5-1.2,0.7C116.2,102.4,116,101.5,117.2,101.1z"/>
	<path fill="#C7C7C7" d="M124.1,90.7c0.1-0.4,0.3-0.8,0.4-1.2c0.2,0.1,0.5,0.4,0.6,0.3c0.6-0.3,0.8,0,0.9,0.5c0,0.4-0.4,0.3-0.7,0.3
		C124.9,90.7,124.5,90.7,124.1,90.7z"/>
	<path fill="#9E9E9E" d="M127.8,41.2c-0.1-0.1-0.1-0.1,0-0.2c2.4-1.2,1,1,1.6,1.4C128.7,42.2,128.8,41.2,127.8,41.2z"/>
	<path fill="#AEAEAE" d="M110.9,107.3c-0.4,0.7-0.8,1.4-1.1,2.1C109.5,108.4,110.2,107.8,110.9,107.3z"/>
</g>
<g>
	<path fill="#232323" d="M114.3,43.1c-1.2,1.3-1.3,3-1.5,4.6c-0.2,1.4-0.1,2.8-0.1,4.3c-0.1,1.7,0,3.4-0.2,5
		c-0.5,4.5-0.9,4.8-5.4,4.1c-4.5-0.7-9-1.4-13.5-1.2c-1.4,0.1-3-0.1-2.8,2.3c0.1,1.3-1.2,1.5-2.3,1.8c-1.1,0.3-1.5-0.3-1.9-1.2
		c-1.2-2.6-1.7-5.3-2-8.1c-0.4-4.1-0.3-8.2-1.4-12.2c-0.1-0.5-0.2-0.9,0.5-0.9c6.4,0.1,12.3-2.1,18.4-3.3c4.8-1,8.9-0.2,12.2,3.7
		C114.3,42.3,114.3,42.7,114.3,43.1z"/>
	<path fill="#232323" d="M88.2,106.4c-5.5,1.1-10.6-0.6-15.8-0.9c-1-0.1-2.1-0.1-3.2-0.1c-1.7,0-3.1,0.2-3.7,2.3
		c-0.4,1.5-1.7,2.7-2.7,4.2c-2-3.3-2.7-6.7-3.2-10.2c-0.9-6.1-0.9-12.2-1.4-18.3c-0.2-2.7-0.5-5.4-1.1-8.1c-0.1-0.6-0.5-1.2,0.6-1.4
		c7.3-1.2,14.1-4.1,21.3-5.8c3.1-0.7,6.2-1.1,9.4-0.5c2.3,0.4,4.3,1.4,6,2.9c1.7,1.5,2.9,2.8,1.8,5.6c-1.6,4.2-0.9,8.8-0.6,13.3
		c0.3,5.3,1.1,10.6,0.9,16c-0.1,2.4-0.3,4.7-1,7c-0.6,1.8-1.7,2.6-3.6,2.7c-0.2,0-0.5,0-0.7,0c-2.9,0.2-3.2-0.2-3.1-3.1
		c0-0.9,0.2-1.8,0.2-2.8C88.3,108.2,88.2,107.3,88.2,106.4z"/>
	<path fill="#222222" d="M76.9,49.5c-4.9,2.2-10,3.1-15.2,3.9c-1.1,0.2-1.7,0.7-2.2,1.6C54,66.5,46.1,75.8,35.4,82.8
		c-2.5,1.6-5.1,3-7.8,4.3c-0.6,0.3-1.1,0.6-1.9,0.3c2.2-2.4,4.6-4.5,7.1-6.4C41.6,74.2,48,65.4,53,55.6c0.2-0.4,0.4-0.8,0.7-1.3
		c-1.3,0-2.5-0.1-3.6,0c-6.4,0.4-12.8,0.6-19.1,0.1c-0.6,0-1.2-0.1-1.8-0.2c-1.1-0.1-1.3-0.5-0.9-1.6c0.6-1.8,1.7-3.2,3.2-4.2
		c0.8-0.5,1.8-1.7,2.2,0.4c0.1,0.5,0.7,0.4,1.1,0.5c6.8,1.2,13.6,0.7,20.4-0.2c0.8-0.1,1-0.6,1.2-1.2c0.8-1.8,1-3.7,0.7-5.6
		c-0.1-0.8,0.1-2-0.9-2.2c-1.1-0.2-2.4-0.4-3.4,0.7c-3.2,3.2-6.9,5.6-11.2,7.1c-0.3,0.1-0.5,0.3-1,0.1c0.9-2.2,2.4-4,3.8-5.8
		c2.1-2.7,4.4-5.2,6.5-7.9c3-3.8,5-8,5.7-12.8c0.2-1.2,0.5-1.4,1.6-1c2.3,0.9,4.3,2.2,5.7,4.3c0.7,1.1,0.8,1.8-0.1,2.9
		c-2.3,2.8-4.5,5.7-7,9.1c3.7-1.1,7.2-1,10.5-1.8c1-0.2,2.3-0.4,2.1-2.1c-0.1-0.7,0.4-1,1.2-0.7c2,0.7,3.6,1.8,4.7,3.7
		c0.5,1,0.3,1.4-0.7,1.7c-3.1,1-6.4,1.5-9.6,1.9c-0.6,0.1-1.4-0.1-2.1,0.4c3.9,2.8-0.1,5.5,0,8.4c1.7,0.3,3.4-0.3,5.1-0.5
		c2.2-0.3,4.4-0.7,6.6,0.1C75.4,48.2,76.3,48.6,76.9,49.5z"/>
	<path fill="#242424" d="M63.3,57.4c3.4,0.4,6.2,1.7,8.1,4.3c1.1,1.4,1.5,3,0.6,4.7c-1.1,2-2,2.2-3.8,0.9c-1.2-0.9-2.4-1.7-3.5-2.7
		c-1.8-1.6-2.5-3.6-2.5-6C62.2,57.6,62.5,57.2,63.3,57.4z"/>
	<path fill="#FDFDFD" d="M107,57c-5.2-1.7-10.2-1.1-15.3-0.6c-1.2,0.1-1.6-0.1-1.6-1.4c-0.1-2.5-0.4-4.9-0.7-7.4
		c-0.1-1.2,0-1.9,1.5-2c2.5-0.2,4.7-1.4,7-2.3c1.9-0.7,3.8-1.4,5.9-1.3c1.6,0.1,2.6,0.7,2.9,2.5c0.5,2.7,0.4,5.3,0.2,8
		C106.9,53.9,107,55.4,107,57z"/>
	<path fill="#FDFDFD" d="M88.6,102c-6.1-2-12-0.8-17.9-0.4c-0.9,0.1-1.8,0.2-2.8,0.3c-2.6,0.2-2.6,0.2-2.6-2.5c0-2.9,0.1-5.7,0-8.6
		c0-1.3,0.4-1.6,1.6-1.6c4,0,7.9,0.5,11.9,0c1.6-0.2,3-0.6,4.4-1.4c1-0.6,1.2-1.1,0.2-1.9c-1.4-1.1-2.9-1.5-4.7-1.6
		c-3.6-0.1-7,1-10.5,1.3c-2.5,0.2-2.5,0.3-3-2.2c-0.3-1.4-0.6-2.8-0.9-4.2c-0.1-0.6-0.2-1.2,0.8-1.3c3.8-0.2,7.2-1.6,10.8-2.5
		c3.2-0.9,6.5-1.7,9.9-0.9c1.3,0.3,2,0.9,2.3,2.3c0.7,3,0.8,6,0.8,9.1C88.7,91.3,88.3,96.5,88.6,102z"/>
	<path fill="#0F0F0F" d="M89.3,81.5c0,3.4,0,6.9,0,10.3c-0.1,0-0.1,0-0.2,0c0-3.4,0-6.9,0-10.3C89.2,81.5,89.2,81.5,89.3,81.5z"/>
</g>
</svg>
