<?xml version="1.0" encoding="utf-8"?>
<!-- Generator: Adobe Illustrator 17.0.0, SVG Export Plug-In . SVG Version: 6.00 Build 0)  -->
<!DOCTYPE svg PUBLIC "-//W3C//DTD SVG 1.1//EN" "http://www.w3.org/Graphics/SVG/1.1/DTD/svg11.dtd">
<svg version="1.1" id="Layer_1" xmlns="http://www.w3.org/2000/svg" xmlns:xlink="http://www.w3.org/1999/xlink" x="0px" y="0px"
	 width="660px" height="300px" viewBox="0 0 660 300" enable-background="new 0 0 660 300" xml:space="preserve">
<g>
	<path fill="#980F0F" d="M126.441,289.959h-14.624l-20.815-65.871l-21.079,65.871H54.641l-25.953-92.22h16.205l18.971,69.428
		l21.342-68.901h11.594L118.8,265.85l18.444-68.111h16.205L126.441,289.959z"/>
	<polygon fill="#FFFFFF" points="114.562,286 91.024,211.514 67.189,286 57.479,286 33.634,201 42.033,201 63.638,280.307 
		87.967,202 94.079,202 119.129,278.716 140.11,201 148.447,201 123.635,286 	"/>
	<path fill="#980F0F" d="M164.773,289.959v-92.22h58.099v14.755h-42.289v22.001h33.067v14.755h-33.067v25.953h43.607v14.755H164.773
		z"/>
	<polygon fill="#FFFFFF" points="169,286 169,201 219,201 219,209 177,209 177,239 210,239 210,245 177,245 177,279 220,279 
		220,286 	"/>
	<path fill="#980F0F" d="M239.072,289.959v-92.22h23.582c21.342,0,35.175,3.294,35.175,23.45c0,8.168-1.713,14.096-7.773,19.498
		c11.198,4.347,15.941,10.935,15.941,22.001c0,22.132-17.258,27.27-32.672,27.27H239.072z M254.486,211.177v23.977h16.204
		c5.665,0,12.252-1.581,12.252-11.989c0-10.276-5.929-11.988-14.492-11.988H254.486z M254.486,247.801v28.72h15.546
		c12.12,0,19.893-2.767,19.893-14.096c0-11.462-7.641-14.623-17.259-14.623H254.486z"/>
	<path fill="#FFFFFF" d="M243,286v-84h19.654c23.891,0,31.175,4.414,31.175,19.32c0,7.856-1.744,12.266-6.434,16.447l-4.879,4.317
		l6.093,2.349c9.635,3.74,13.389,8.876,13.389,18.284c0,15.441-9.647,23.283-28.672,23.283H243z M250,281h20.032
		c6.535,0,23.893-0.14,23.893-18.236c0-8.496-3.688-18.764-21.258-18.764H250V281z M250,239h20.69c14.141,0,16.252-10.029,16.252-16
		c0-15.988-12.958-16-18.492-16H250V239z"/>
	<path fill="#980F0F" d="M314.952,243.849c0-29.115,19.234-47.954,45.715-47.954c9.486,0,19.366,2.24,25.953,5.402l-1.713,14.623
		c-7.509-2.767-14.755-5.402-24.24-5.402c-18.971,0-28.72,14.229-28.72,33.331c0,19.103,9.749,33.331,28.72,33.331
		c9.486,0,16.731-2.503,24.24-5.401l1.713,14.623c-6.719,3.294-16.467,5.401-25.953,5.401
		C334.186,291.803,314.952,272.964,314.952,243.849z"/>
	<path fill="#980F0F" d="M360.666,288.057c-25.103,0-41.969-17.766-41.969-44.208s16.866-44.208,41.969-44.208
		c7.525,0,15.659,1.497,21.91,3.976l-0.84,7.17c-6.192-2.165-12.83-4.015-21.07-4.015c-19.722,0-32.466,14.554-32.466,37.077
		s12.744,37.077,32.466,37.077c8.146,0,14.77-1.737,21.075-3.971l0.836,7.143C376.434,286.567,368.303,288.057,360.666,288.057z"/>
	<path fill="#980F0F" d="M462.763,289.959v-40.708h-46.11v40.708h-15.546v-92.22h15.546v36.624h46.11v-36.624h15.545v92.22H462.763z
		"/>
	<polygon fill="#980F0F" points="466,286 466,245 413,245 413,286 405,286 405,201 413,201 413,238 466,238 466,201 475,201 
		475,286 	"/>
	<path fill="#980F0F" d="M498.855,289.959v-92.22h58.098v14.755h-42.289v22.001h33.068v14.755h-33.068v25.953h43.607v14.755H498.855
		z"/>
	<polygon fill="#980F0F" points="503,286 503,201 553,201 553,209 511,209 511,239 544,239 544,245 511,245 511,279 554,279 
		554,286 	"/>
	<path fill="#980F0F" d="M588.7,212.495v22.001h31.75v14.755H588.7v40.708h-15.545v-92.22h56.649v14.755H588.7z"/>
	<polygon fill="#980F0F" points="577,286 577,201 626,201 626,209 585,209 585,239 617,239 617,245 585,245 585,286 	"/>
</g>
<g>
	<path fill="none" stroke="#42210B" stroke-width="7" stroke-miterlimit="10" d="M655.333,173.5c0-6.535-5.448-12-12.169-12h-22.592
		c-55.666-28-142.663-50.974-242.822-55.663c-5.884-21.485-26.023-38.695-49.973-38.695c-24.1,0-44.35,18.096-50.091,39.786
		C180.864,112.266,96.973,134.5,42.778,161.5H20.503c-6.721,0-12.169,5.465-12.169,12s5.448,12,12.169,12h622.661
		C649.885,185.5,655.333,180.035,655.333,173.5z M327.777,85.484c12.25,0,22.879,6.852,28.064,16.818
		c-7.986-0.194-16.043-0.296-24.166-0.296c-10.814,0-21.513,0.177-32.08,0.519C304.737,92.438,315.435,85.484,327.777,85.484z"/>
</g>
<g>
	<path fill="#42210B" d="M146.5,136.25c-46.292,7.375-56.329,17.524-55.133,24.341c0.179,1.02,0.927,1.909,2.169,2.668
		c5.88-7.509,23.963-14.425,34.213-17.842c20.878-6.959,64.991-12.713,61.75-12.917C187.423,132.37,158.822,134.287,146.5,136.25z"
		/>
</g>
<g>
	<path fill="#980F0F" d="M623.5,4.709c-3.674,20.821-12.928,41.235-28.851,55.932c-8.165,7.349-61.784,32.253-53.619,47.359l0,0
		c-11.84-11.84-13.064-30.211-2.041-42.459C561.852,41.045,619.417,46.352,623.5,4.709"/>
	<g>
		<path fill="#980F0F" d="M622.909,4.547c-3.364,18.352-10.694,35.752-23.033,49.893c-6.777,7.766-15.567,12.265-24.286,17.502
			c-9.618,5.778-19.365,11.73-27.693,19.31c-4.439,4.04-10.57,10.596-7.396,17.057c0.321-0.247,0.641-0.495,0.962-0.742
			c-13.439-14.042-11.948-34.805,3.508-46.524c9.603-7.281,21.616-11.014,32.834-14.986c20.814-7.37,43.542-16.477,46.307-41.348
			c0.087-0.784-1.138-0.776-1.225,0c-3.247,29.211-34.661,35.839-57.596,44.588c-10.216,3.897-22.192,8.932-28.701,18.225
			c-9.119,13.019-6.773,29.648,4.007,40.91c0.503,0.526,1.258-0.14,0.962-0.742c-4.027-8.196,8.586-17.071,13.926-21.117
			c8.927-6.763,18.7-12.367,28.299-18.1c8.459-5.052,15.098-10.183,21.141-18.251c10.023-13.384,16.162-28.962,19.165-45.35
			C624.232,4.1,623.052,3.771,622.909,4.547L622.909,4.547z"/>
	</g>
</g>
</svg>
